<?xml version="1.0" encoding="UTF-8" standalone="no"?>
<!DOCTYPE svg PUBLIC "-//W3C//DTD SVG 1.1//EN" "http://www.w3.org/Graphics/SVG/1.1/DTD/svg11.dtd">
<svg xmlns="http://www.w3.org/2000/svg" version="1.1" viewBox="0.00 0.00 820.00 799.00">
<path fill="#00ffff" d="
  M 421.97 0.00
  Q 433.36 1.47 444.75 2.89
  C 450.71 3.63 456.42 3.08 462.49 3.66
  Q 476.44 4.98 488.41 7.86
  Q 490.77 8.43 498.60 10.16
  Q 585.53 29.34 656.52 82.52
  C 679.60 99.81 700.20 119.62 719.76 141.37
  C 724.88 147.07 729.74 154.14 734.05 158.87
  C 736.80 161.88 738.72 165.16 741.69 168.88
  Q 743.63 171.32 747.16 176.68
  Q 758.64 194.14 758.70 194.24
  C 762.95 200.91 767.03 208.70 769.58 213.27
  Q 774.67 222.37 777.25 227.80
  Q 792.12 259.06 799.90 283.57
  Q 809.35 313.36 814.08 342.06
  Q 815.12 348.36 815.63 353.46
  C 816.01 357.23 815.92 360.42 816.30 362.79
  Q 816.82 366.10 817.07 369.74
  Q 817.83 381.02 820.00 392.12
  L 820.00 427.00
  L 817.73 441.75
  Q 817.72 441.85 817.71 441.95
  C 817.69 449.63 816.25 456.84 815.85 463.66
  Q 815.43 470.95 813.61 480.87
  Q 804.54 530.53 783.99 576.47
  Q 782.05 580.81 772.63 600.02
  C 768.85 607.72 763.13 616.39 759.81 622.16
  Q 754.35 631.66 749.65 638.44
  Q 737.18 656.48 728.15 667.17
  Q 723.25 672.98 719.36 677.72
  Q 715.17 682.84 710.20 687.89
  Q 694.27 704.04 678.42 718.63
  C 672.38 724.19 666.48 728.24 658.98 734.15
  C 637.79 750.83 614.36 764.99 590.18 776.67
  Q 571.65 785.63 565.87 787.87
  C 555.95 791.72 547.32 795.92 536.77 799.00
  L 525.41 799.00
  Q 514.31 794.30 511.72 781.85
  Q 510.76 777.26 510.73 775.00
  Q 510.63 768.85 510.80 731.41
  C 510.82 724.58 511.73 718.64 511.86 711.15
  Q 512.24 689.77 512.35 682.71
  C 512.57 669.76 511.42 659.72 510.59 646.41
  C 510.25 641.04 508.43 633.42 507.21 628.79
  Q 501.63 607.69 486.80 592.74
  Q 485.95 591.90 485.81 591.21
  A 1.49 1.49 0.0 0 1 486.94 589.46
  C 493.41 588.00 501.41 587.75 508.82 586.55
  Q 510.98 586.19 518.43 584.89
  Q 547.21 579.86 573.00 568.72
  Q 591.20 560.86 608.86 547.36
  C 637.13 525.77 656.18 491.40 663.92 457.17
  Q 668.73 435.90 669.86 424.24
  C 670.15 421.24 671.22 417.04 671.29 413.25
  Q 671.43 405.22 671.36 375.23
  C 671.34 365.64 669.20 355.75 666.74 346.22
  Q 659.33 317.47 642.55 294.02
  Q 640.56 291.24 632.16 280.99
  C 630.40 278.84 629.96 277.18 630.72 274.68
  Q 634.98 260.80 636.62 247.47
  Q 637.21 242.69 637.20 222.01
  C 637.20 213.64 636.07 206.15 634.34 198.20
  Q 631.39 184.72 628.17 175.08
  Q 627.38 172.70 625.72 170.47
  A 3.11 3.04 -4.3 0 0 624.64 169.56
  Q 622.62 168.50 617.31 168.62
  Q 598.44 169.02 581.02 175.06
  C 558.01 183.04 537.09 195.20 516.67 208.43
  C 514.27 209.99 511.98 211.01 508.98 210.46
  Q 503.26 209.40 502.29 209.16
  Q 471.09 201.55 439.29 199.34
  Q 434.46 199.00 423.64 198.05
  Q 410.38 196.89 397.53 198.10
  Q 386.93 199.10 383.38 199.17
  Q 376.03 199.31 369.21 200.13
  Q 348.01 202.67 343.71 203.46
  Q 324.95 206.88 312.34 210.16
  Q 307.47 211.42 303.93 209.07
  Q 284.76 196.31 264.66 185.98
  Q 260.12 183.65 253.26 180.82
  Q 244.49 177.22 241.62 176.17
  Q 232.73 172.93 220.36 170.32
  C 213.73 168.92 205.79 169.04 199.75 168.94
  C 195.42 168.87 193.35 169.60 191.98 173.74
  Q 190.11 179.40 186.70 191.82
  Q 185.54 196.03 184.86 200.13
  Q 183.61 207.60 183.40 208.52
  C 181.55 216.79 182.20 223.59 182.15 234.07
  C 182.09 243.64 183.49 254.18 185.63 262.68
  Q 187.21 268.92 188.70 274.77
  Q 189.70 278.64 187.78 280.78
  Q 174.41 295.70 165.43 313.57
  C 161.26 321.87 157.86 328.77 155.40 337.09
  Q 151.73 349.50 149.90 359.87
  C 149.43 362.58 149.56 364.36 148.85 367.34
  Q 148.10 370.49 148.09 372.82
  Q 148.03 389.72 148.09 411.49
  Q 148.11 415.16 149.05 420.44
  C 149.68 423.90 149.34 427.97 150.27 430.76
  Q 151.04 433.04 151.35 437.31
  Q 151.57 440.43 152.63 443.86
  A 7.25 7.19 -56.0 0 1 152.95 445.54
  Q 153.08 447.32 153.53 449.78
  Q 155.81 462.36 162.42 479.94
  Q 171.88 505.11 188.50 525.38
  Q 190.71 528.08 195.58 533.71
  Q 198.58 537.16 203.48 541.31
  Q 214.02 550.22 218.26 553.07
  Q 249.93 574.30 288.28 582.95
  C 292.58 583.92 299.09 585.46 304.26 586.16
  Q 314.40 587.54 320.40 588.53
  C 324.85 589.27 328.85 589.08 333.01 589.43
  A 1.31 1.31 0.0 0 1 334.18 591.06
  Q 334.00 591.76 333.21 592.48
  Q 325.49 599.46 321.34 606.82
  C 316.99 614.56 313.73 621.95 311.83 630.37
  C 310.48 636.32 309.22 645.33 305.19 646.70
  Q 299.85 648.51 292.91 650.90
  Q 288.79 652.31 275.03 654.88
  Q 272.40 655.37 254.78 655.34
  Q 249.27 655.33 243.40 653.65
  Q 225.31 648.48 211.22 636.78
  Q 206.08 632.50 200.55 625.49
  Q 195.59 619.20 191.61 612.88
  Q 185.88 603.78 183.25 600.71
  Q 176.88 593.27 173.05 589.68
  Q 161.52 578.87 148.69 573.13
  Q 143.10 570.63 133.40 569.09
  C 128.30 568.27 124.52 568.60 118.15 568.62
  A 4.93 4.75 -52.0 0 0 116.81 568.81
  C 112.01 570.17 106.09 572.35 107.50 578.26
  Q 108.36 581.84 110.12 583.64
  C 114.49 588.09 118.76 591.33 125.53 595.61
  Q 133.32 600.54 140.42 607.87
  C 152.24 620.07 161.41 634.98 167.90 651.48
  Q 175.38 670.52 190.42 683.80
  Q 196.77 689.41 206.03 694.54
  C 218.24 701.31 231.54 705.17 244.39 707.10
  Q 246.35 707.40 248.50 707.42
  Q 257.43 707.51 276.49 707.41
  Q 279.13 707.40 284.99 706.18
  C 288.12 705.53 290.95 705.89 293.90 705.22
  Q 299.30 704.00 305.29 702.89
  Q 308.21 702.36 308.21 705.00
  Q 308.17 739.82 308.62 773.00
  Q 308.69 777.97 308.18 780.95
  Q 305.73 795.33 292.28 799.00
  L 281.76 799.00
  C 242.22 784.72 204.62 766.26 171.03 741.72
  Q 149.98 726.34 136.03 713.73
  Q 119.98 699.21 111.60 689.90
  Q 99.62 676.58 92.91 668.35
  Q 68.56 638.52 50.20 604.83
  Q 42.41 590.54 34.43 572.55
  Q 23.51 547.92 16.87 525.68
  Q 6.81 491.97 2.71 456.84
  Q 2.39 454.10 1.63 442.47
  Q 1.17 435.27 0.00 428.13
  L 0.00 396.10
  C 0.33 394.33 0.91 392.38 1.04 390.73
  Q 1.64 383.06 1.70 373.25
  Q 1.72 369.51 2.97 358.67
  Q 3.89 350.61 4.98 344.14
  Q 22.32 240.69 86.85 157.59
  Q 92.70 150.06 104.96 136.23
  Q 115.28 124.58 124.27 115.97
  Q 180.77 61.77 251.70 32.23
  Q 272.25 23.67 294.16 16.98
  Q 315.35 10.52 342.08 5.57
  C 351.81 3.77 360.86 3.29 370.73 3.24
  Q 376.47 3.21 383.88 0.79
  A 6.50 6.41 -57.9 0 1 384.94 0.54
  L 388.92 0.00
  L 421.97 0.00
  Z
  M 511.68 730.08
  Q 511.68 732.99 511.83 736.00
  Q 511.81 736.05 511.84 736.10
  A 0.05 0.04 -61.1 0 0 511.92 736.07
  Q 512.10 733.79 512.08 730.08
  A 0.20 0.20 0.0 0 0 511.68 730.08
  Z"
/>
</svg>
