<?xml version="1.0" encoding="UTF-8" standalone="no"?>
<!DOCTYPE svg PUBLIC "-//W3C//DTD SVG 1.1//EN" "http://www.w3.org/Graphics/SVG/1.1/DTD/svg11.dtd">
<svg xmlns="http://www.w3.org/2000/svg" version="1.1" viewBox="0.00 0.00 650.00 508.00">
<g stroke-width="2.00" fill="none" stroke-linecap="butt">
<path stroke="#818181" vector-effect="non-scaling-stroke" d="
  M 1.09 421.12
  Q 31.87 407.50 62.53 396.21
  A 0.49 0.48 75.1 0 1 63.17 396.59
  Q 70.89 441.86 77.53 489.14
  C 77.63 489.79 77.62 491.44 77.63 491.44
  A 0.57 0.57 0.0 0 0 78.50 491.16
  C 91.76 452.44 108.61 415.35 131.00 381.26
  C 145.87 358.62 164.16 337.10 186.40 320.73
  A 0.79 0.79 0.0 0 0 186.59 319.66
  C 168.92 292.80 158.93 263.83 159.44 231.53
  A 6.15 6.10 -30.0 0 1 160.22 228.66
  C 179.46 194.53 199.66 161.54 226.55 132.55
  Q 239.74 118.32 254.77 108.53
  C 269.98 98.61 288.14 94.16 305.54 99.01
  C 325.43 104.55 341.30 121.25 348.47 140.79
  C 355.31 159.43 356.73 180.89 356.80 200.25
  Q 356.89 222.47 355.91 253.55
  Q 355.04 281.48 357.65 304.86
  C 360.35 329.08 369.14 356.70 391.61 369.52
  C 424.23 388.12 458.41 365.94 479.95 341.70
  C 498.70 320.60 514.21 296.94 527.85 271.85
  Q 543.89 242.34 553.40 219.22
  C 555.31 214.57 557.19 212.09 560.54 208.28
  Q 573.68 193.34 590.58 180.84
  Q 615.58 162.35 645.36 153.90
  A 0.78 0.78 0.0 0 0 645.88 152.88
  Q 640.89 139.31 636.71 123.56
  C 626.06 83.36 629.57 43.25 637.77 2.16
  A 0.30 0.30 0.0 0 0 637.22 1.93
  Q 630.52 11.78 620.11 25.11
  Q 608.90 39.47 592.71 53.47
  C 575.47 68.38 557.11 79.12 535.54 86.50
  A 0.97 0.96 69.3 0 0 534.97 87.78
  Q 551.82 127.88 550.14 170.83
  Q 549.70 182.11 547.43 197.69
  C 546.84 201.67 546.35 205.78 544.69 209.20
  C 539.31 220.25 529.78 240.82 521.78 255.38
  Q 514.47 268.66 509.95 276.45
  Q 497.64 297.67 482.85 316.84
  Q 470.66 332.62 456.33 344.52
  C 435.88 361.51 408.52 369.11 388.09 348.27
  C 380.82 340.85 375.54 329.07 373.34 319.14
  C 365.77 285.04 369.19 245.50 369.62 215.27
  C 370.25 171.55 369.04 119.14 326.90 92.12
  Q 306.44 78.99 282.21 81.95
  C 257.73 84.94 235.74 102.15 219.51 119.52
  C 192.91 148.00 171.30 181.84 152.40 216.50
  C 151.24 218.64 149.92 220.24 147.96 221.69
  Q 137.34 229.50 123.79 234.23
  Q 102.76 241.56 80.90 237.18
  A 0.84 0.84 0.0 0 0 79.90 237.98
  Q 79.44 256.46 74.79 274.54
  Q 69.28 295.95 58.85 319.87
  Q 41.16 360.46 15.97 396.75
  Q 7.27 409.30 0.09 419.93
  A 0.81 0.81 0.0 0 0 1.09 421.12"
/>
<path stroke="#818181" vector-effect="non-scaling-stroke" d="
  M 560.52 173.09
  A 0.42 0.42 0.0 0 0 561.33 173.27
  L 611.51 52.16
  A 0.25 0.24 78.8 0 0 611.11 51.89
  C 593.33 70.15 573.62 84.92 549.85 94.63
  A 0.54 0.54 0.0 0 0 549.54 95.31
  Q 562.38 133.15 560.52 173.09"
/>
<path stroke="#818181" vector-effect="non-scaling-stroke" d="
  M 569.73 182.36
  Q 596.91 157.29 630.95 144.94
  A 0.53 0.52 -18.6 0 0 631.28 144.28
  Q 618.36 104.83 619.64 62.99
  A 0.41 0.41 0.0 0 0 618.85 62.82
  L 569.41 182.14
  A 0.20 0.20 0.0 0 0 569.73 182.36"
/>
<path stroke="#818181" vector-effect="non-scaling-stroke" d="
  M 139.68 241.63
  A 0.24 0.24 0.0 0 0 139.36 241.31
  Q 123.95 249.09 106.22 251.09
  C 100.78 251.71 96.58 251.52 90.35 251.38
  A 0.73 0.72 -86.2 0 0 89.61 252.03
  Q 86.87 276.61 77.48 302.76
  C 65.91 334.97 49.90 365.55 31.57 393.86
  A 0.30 0.29 -83.8 0 0 31.92 394.30
  L 62.79 382.48
  A 2.25 2.22 3.2 0 0 63.96 381.45
  L 139.68 241.63"
/>
<path stroke="#818181" vector-effect="non-scaling-stroke" d="
  M 149.61 248.20
  A 0.42 0.42 0.0 0 0 148.82 248.04
  L 72.98 388.10
  A 1.53 1.49 -36.1 0 0 72.81 389.09
  L 82.31 448.82
  A 0.46 0.46 0.0 0 0 83.19 448.92
  Q 102.20 401.25 131.57 360.35
  Q 148.81 336.36 170.99 316.90
  A 0.56 0.56 0.0 0 0 171.11 316.20
  Q 152.97 284.49 149.61 248.20"
/>
</g>
<path fill="#ffffff" d="
  M 650.00 0.00
  L 650.00 508.00
  L 0.00 508.00
  L 0.00 0.00
  L 650.00 0.00
  Z
  M 1.09 421.12
  Q 31.87 407.50 62.53 396.21
  A 0.49 0.48 75.1 0 1 63.17 396.59
  Q 70.89 441.86 77.53 489.14
  C 77.63 489.79 77.62 491.44 77.63 491.44
  A 0.57 0.57 0.0 0 0 78.50 491.16
  C 91.76 452.44 108.61 415.35 131.00 381.26
  C 145.87 358.62 164.16 337.10 186.40 320.73
  A 0.79 0.79 0.0 0 0 186.59 319.66
  C 168.92 292.80 158.93 263.83 159.44 231.53
  A 6.15 6.10 -30.0 0 1 160.22 228.66
  C 179.46 194.53 199.66 161.54 226.55 132.55
  Q 239.74 118.32 254.77 108.53
  C 269.98 98.61 288.14 94.16 305.54 99.01
  C 325.43 104.55 341.30 121.25 348.47 140.79
  C 355.31 159.43 356.73 180.89 356.80 200.25
  Q 356.89 222.47 355.91 253.55
  Q 355.04 281.48 357.65 304.86
  C 360.35 329.08 369.14 356.70 391.61 369.52
  C 424.23 388.12 458.41 365.94 479.95 341.70
  C 498.70 320.60 514.21 296.94 527.85 271.85
  Q 543.89 242.34 553.40 219.22
  C 555.31 214.57 557.19 212.09 560.54 208.28
  Q 573.68 193.34 590.58 180.84
  Q 615.58 162.35 645.36 153.90
  A 0.78 0.78 0.0 0 0 645.88 152.88
  Q 640.89 139.31 636.71 123.56
  C 626.06 83.36 629.57 43.25 637.77 2.16
  A 0.30 0.30 0.0 0 0 637.22 1.93
  Q 630.52 11.78 620.11 25.11
  Q 608.90 39.47 592.71 53.47
  C 575.47 68.38 557.11 79.12 535.54 86.50
  A 0.97 0.96 69.3 0 0 534.97 87.78
  Q 551.82 127.88 550.14 170.83
  Q 549.70 182.11 547.43 197.69
  C 546.84 201.67 546.35 205.78 544.69 209.20
  C 539.31 220.25 529.78 240.82 521.78 255.38
  Q 514.47 268.66 509.95 276.45
  Q 497.64 297.67 482.85 316.84
  Q 470.66 332.62 456.33 344.52
  C 435.88 361.51 408.52 369.11 388.09 348.27
  C 380.82 340.85 375.54 329.07 373.34 319.14
  C 365.77 285.04 369.19 245.50 369.62 215.27
  C 370.25 171.55 369.04 119.14 326.90 92.12
  Q 306.44 78.99 282.21 81.95
  C 257.73 84.94 235.74 102.15 219.51 119.52
  C 192.91 148.00 171.30 181.84 152.40 216.50
  C 151.24 218.64 149.92 220.24 147.96 221.69
  Q 137.34 229.50 123.79 234.23
  Q 102.76 241.56 80.90 237.18
  A 0.84 0.84 0.0 0 0 79.90 237.98
  Q 79.44 256.46 74.79 274.54
  Q 69.28 295.95 58.85 319.87
  Q 41.16 360.46 15.97 396.75
  Q 7.27 409.30 0.09 419.93
  A 0.81 0.81 0.0 0 0 1.09 421.12
  Z"
/>
<path fill="#020202" d="
  M 1.09 421.12
  A 0.81 0.81 0.0 0 1 0.09 419.93
  Q 7.27 409.30 15.97 396.75
  Q 41.16 360.46 58.85 319.87
  Q 69.28 295.95 74.79 274.54
  Q 79.44 256.46 79.90 237.98
  A 0.84 0.84 0.0 0 1 80.90 237.18
  Q 102.76 241.56 123.79 234.23
  Q 137.34 229.50 147.96 221.69
  C 149.92 220.24 151.24 218.64 152.40 216.50
  C 171.30 181.84 192.91 148.00 219.51 119.52
  C 235.74 102.15 257.73 84.94 282.21 81.95
  Q 306.44 78.99 326.90 92.12
  C 369.04 119.14 370.25 171.55 369.62 215.27
  C 369.19 245.50 365.77 285.04 373.34 319.14
  C 375.54 329.07 380.82 340.85 388.09 348.27
  C 408.52 369.11 435.88 361.51 456.33 344.52
  Q 470.66 332.62 482.85 316.84
  Q 497.64 297.67 509.95 276.45
  Q 514.47 268.66 521.78 255.38
  C 529.78 240.82 539.31 220.25 544.69 209.20
  C 546.35 205.78 546.84 201.67 547.43 197.69
  Q 549.70 182.11 550.14 170.83
  Q 551.82 127.88 534.97 87.78
  A 0.97 0.96 69.3 0 1 535.54 86.50
  C 557.11 79.12 575.47 68.38 592.71 53.47
  Q 608.90 39.47 620.11 25.11
  Q 630.52 11.78 637.22 1.93
  A 0.30 0.30 0.0 0 1 637.77 2.16
  C 629.57 43.25 626.06 83.36 636.71 123.56
  Q 640.89 139.31 645.88 152.88
  A 0.78 0.78 0.0 0 1 645.36 153.90
  Q 615.58 162.35 590.58 180.84
  Q 573.68 193.34 560.54 208.28
  C 557.19 212.09 555.31 214.57 553.40 219.22
  Q 543.89 242.34 527.85 271.85
  C 514.21 296.94 498.70 320.60 479.95 341.70
  C 458.41 365.94 424.23 388.12 391.61 369.52
  C 369.14 356.70 360.35 329.08 357.65 304.86
  Q 355.04 281.48 355.91 253.55
  Q 356.89 222.47 356.80 200.25
  C 356.73 180.89 355.31 159.43 348.47 140.79
  C 341.30 121.25 325.43 104.55 305.54 99.01
  C 288.14 94.16 269.98 98.61 254.77 108.53
  Q 239.74 118.32 226.55 132.55
  C 199.66 161.54 179.46 194.53 160.22 228.66
  A 6.15 6.10 -30.0 0 0 159.44 231.53
  C 158.93 263.83 168.92 292.80 186.59 319.66
  A 0.79 0.79 0.0 0 1 186.40 320.73
  C 164.16 337.10 145.87 358.62 131.00 381.26
  C 108.61 415.35 91.76 452.44 78.50 491.16
  A 0.57 0.57 0.0 0 1 77.63 491.44
  C 77.62 491.44 77.63 489.79 77.53 489.14
  Q 70.89 441.86 63.17 396.59
  A 0.49 0.48 75.1 0 0 62.53 396.21
  Q 31.87 407.50 1.09 421.12
  Z
  M 560.52 173.09
  A 0.42 0.42 0.0 0 0 561.33 173.27
  L 611.51 52.16
  A 0.25 0.24 78.8 0 0 611.11 51.89
  C 593.33 70.15 573.62 84.92 549.85 94.63
  A 0.54 0.54 0.0 0 0 549.54 95.31
  Q 562.38 133.15 560.52 173.09
  Z
  M 569.73 182.36
  Q 596.91 157.29 630.95 144.94
  A 0.53 0.52 -18.6 0 0 631.28 144.28
  Q 618.36 104.83 619.64 62.99
  A 0.41 0.41 0.0 0 0 618.85 62.82
  L 569.41 182.14
  A 0.20 0.20 0.0 0 0 569.73 182.36
  Z
  M 139.68 241.63
  A 0.24 0.24 0.0 0 0 139.36 241.31
  Q 123.95 249.09 106.22 251.09
  C 100.78 251.71 96.58 251.52 90.35 251.38
  A 0.73 0.72 -86.2 0 0 89.61 252.03
  Q 86.87 276.61 77.48 302.76
  C 65.91 334.97 49.90 365.55 31.57 393.86
  A 0.30 0.29 -83.8 0 0 31.92 394.30
  L 62.79 382.48
  A 2.25 2.22 3.2 0 0 63.96 381.45
  L 139.68 241.63
  Z
  M 149.61 248.20
  A 0.42 0.42 0.0 0 0 148.82 248.04
  L 72.98 388.10
  A 1.53 1.49 -36.1 0 0 72.81 389.09
  L 82.31 448.82
  A 0.46 0.46 0.0 0 0 83.19 448.92
  Q 102.20 401.25 131.57 360.35
  Q 148.81 336.36 170.99 316.90
  A 0.56 0.56 0.0 0 0 171.11 316.20
  Q 152.97 284.49 149.61 248.20
  Z"
/>
<path fill="#ffffff" d="
  M 560.52 173.09
  Q 562.38 133.15 549.54 95.31
  A 0.54 0.54 0.0 0 1 549.85 94.63
  C 573.62 84.92 593.33 70.15 611.11 51.89
  A 0.25 0.24 78.8 0 1 611.51 52.16
  L 561.33 173.27
  A 0.42 0.42 0.0 0 1 560.52 173.09
  Z"
/>
<path fill="#ffffff" d="
  M 569.73 182.36
  A 0.20 0.20 0.0 0 1 569.41 182.14
  L 618.85 62.82
  A 0.41 0.41 0.0 0 1 619.64 62.99
  Q 618.36 104.83 631.28 144.28
  A 0.53 0.52 -18.6 0 1 630.95 144.94
  Q 596.91 157.29 569.73 182.36
  Z"
/>
<path fill="#ffffff" d="
  M 139.68 241.63
  L 63.96 381.45
  A 2.25 2.22 3.2 0 1 62.79 382.48
  L 31.92 394.30
  A 0.30 0.29 -83.8 0 1 31.57 393.86
  C 49.90 365.55 65.91 334.97 77.48 302.76
  Q 86.87 276.61 89.61 252.03
  A 0.73 0.72 -86.2 0 1 90.35 251.38
  C 96.58 251.52 100.78 251.71 106.22 251.09
  Q 123.95 249.09 139.36 241.31
  A 0.24 0.24 0.0 0 1 139.68 241.63
  Z"
/>
<path fill="#ffffff" d="
  M 149.61 248.20
  Q 152.97 284.49 171.11 316.20
  A 0.56 0.56 0.0 0 1 170.99 316.90
  Q 148.81 336.36 131.57 360.35
  Q 102.20 401.25 83.19 448.92
  A 0.46 0.46 0.0 0 1 82.31 448.82
  L 72.81 389.09
  A 1.53 1.49 -36.1 0 1 72.98 388.10
  L 148.82 248.04
  A 0.42 0.42 0.0 0 1 149.61 248.20
  Z"
/>
</svg>
