<?xml version="1.0" encoding="UTF-8" standalone="no"?>
<!DOCTYPE svg PUBLIC "-//W3C//DTD SVG 1.1//EN" "http://www.w3.org/Graphics/SVG/1.1/DTD/svg11.dtd">
<svg xmlns="http://www.w3.org/2000/svg" version="1.1" viewBox="0.00 0.00 600.00 600.00">
<rect width="600" height="600" fill="#020617"/>
<g stroke-width="2.00" fill="none" stroke-linecap="butt">
<path stroke="#22d3ee" vector-effect="non-scaling-stroke" d="
  M 68.23 348.97
  Q 68.26 349.14 68.23 349.24
  C 45.18 419.96 83.25 495.84 153.31 520.24
  Q 188.29 532.42 225.82 524.82
  A 0.96 0.95 -27.5 0 1 226.69 525.09
  Q 233.44 532.10 235.53 533.99
  C 290.31 583.59 373.00 581.43 424.91 529.15
  C 440.04 513.91 450.50 496.05 457.50 476.01
  A 1.06 1.05 3.0 0 1 458.27 475.32
  C 560.76 452.74 600.08 329.77 531.20 251.32
  Q 531.12 251.23 531.06 250.93
  Q 530.99 250.63 531.03 250.52
  C 562.19 150.88 476.38 54.41 373.54 75.33
  A 1.06 1.05 -26.9 0 1 372.56 75.01
  C 358.03 59.53 341.23 47.44 321.22 39.65
  C 252.57 12.90 176.11 44.46 146.14 112.01
  Q 145.00 114.58 141.67 123.73
  A 0.96 0.95 3.6 0 1 140.99 124.33
  Q 103.60 132.60 76.56 157.91
  C 22.41 208.62 18.38 293.42 68.12 348.72
  Q 68.19 348.80 68.23 348.97"
/>
<path stroke="#22d3ee" vector-effect="non-scaling-stroke" d="
  M 216.30 318.83
  Q 216.33 318.72 216.35 318.55
  Q 216.39 317.98 216.51 172.21
  Q 216.51 164.47 218.01 161.04
  Q 220.35 155.66 225.78 152.54
  Q 318.88 98.92 335.41 89.40
  A 0.42 0.41 -40.5 0 0 335.47 88.72
  C 289.21 50.84 221.42 60.89 187.72 110.08
  Q 170.58 135.09 170.25 166.36
  Q 170.22 168.73 170.14 291.80
  A 1.99 1.97 15.1 0 0 171.14 293.52
  L 215.61 319.12
  A 0.47 0.47 0.0 0 0 216.30 318.83"
/>
<path stroke="#22d3ee" vector-effect="non-scaling-stroke" d="
  M 241.81 237.10
  Q 241.92 237.07 242.08 237.00
  Q 242.59 236.75 369.03 164.08
  Q 375.75 160.22 379.47 159.81
  Q 385.30 159.15 390.72 162.30
  Q 483.68 216.25 500.19 225.83
  A 0.42 0.41 19.6 0 0 500.81 225.54
  C 510.56 166.52 468.00 112.76 408.53 108.10
  Q 378.29 105.73 351.01 121.05
  Q 348.94 122.21 242.20 183.59
  A 1.99 1.97 75.1 0 0 241.21 185.31
  L 241.21 236.65
  A 0.47 0.47 0.0 0 0 241.81 237.10"
/>
<path stroke="#22d3ee" vector-effect="non-scaling-stroke" d="
  M 273.90 382.29
  A 0.64 0.64 0.0 0 0 274.07 381.32
  Q 273.74 380.93 273.00 380.50
  Q 266.63 376.88 148.47 308.72
  Q 141.20 304.52 139.11 302.00
  Q 135.42 297.55 135.42 291.25
  Q 135.41 187.85 135.42 163.88
  A 0.40 0.40 0.0 0 0 134.88 163.50
  Q 104.54 174.89 86.11 201.36
  Q 77.41 213.85 73.14 227.87
  C 61.21 267.09 73.70 308.79 105.03 335.47
  Q 111.47 340.95 126.27 349.39
  Q 144.23 359.64 227.22 407.55
  Q 228.70 408.40 230.55 407.33
  Q 257.79 391.57 273.90 382.29"
/>
<path stroke="#22d3ee" vector-effect="non-scaling-stroke" d="
  M 325.17 218.79
  Q 325.25 218.87 325.39 218.98
  Q 325.86 219.29 452.12 292.11
  Q 458.82 295.98 461.05 298.99
  Q 464.54 303.70 464.54 309.97
  Q 464.55 417.39 464.56 436.46
  A 0.42 0.41 79.4 0 0 465.12 436.85
  C 521.02 415.67 546.13 351.90 520.32 298.16
  Q 507.20 270.84 480.27 254.95
  Q 478.23 253.74 371.61 192.28
  A 1.99 1.97 -45.0 0 0 369.63 192.29
  L 325.26 218.05
  A 0.47 0.47 0.0 0 0 325.17 218.79"
/>
<path stroke="#22d3ee" vector-effect="non-scaling-stroke" d="
  M 270.47 249.31
  Q 241.58 266.01 241.41 266.31
  Q 241.23 266.61 241.26 299.98
  Q 241.28 333.35 241.45 333.65
  Q 241.63 333.95 270.54 350.62
  Q 299.45 367.28 299.80 367.28
  Q 300.14 367.28 329.03 350.57
  Q 357.91 333.87 358.09 333.57
  Q 358.26 333.27 358.24 299.90
  Q 358.21 266.53 358.04 266.23
  Q 357.87 265.93 328.96 249.27
  Q 300.04 232.60 299.70 232.60
  Q 299.35 232.60 270.47 249.31"
/>
<path stroke="#22d3ee" vector-effect="non-scaling-stroke" d="
  M 382.67 281.16
  Q 382.64 281.27 382.62 281.45
  Q 382.58 282.01 382.62 427.85
  Q 382.62 435.60 381.12 439.03
  Q 378.79 444.41 373.36 447.55
  Q 280.28 501.28 263.75 510.83
  A 0.42 0.41 -40.6 0 0 263.69 511.51
  C 310.01 549.36 377.83 539.23 411.49 489.99
  Q 428.61 464.94 428.91 433.66
  Q 428.94 431.28 428.88 308.15
  A 1.99 1.97 15.0 0 0 427.88 306.44
  L 383.36 280.87
  A 0.47 0.47 0.0 0 0 382.67 281.16"
/>
<path stroke="#22d3ee" vector-effect="non-scaling-stroke" d="
  M 357.64 362.58
  Q 357.53 362.61 357.37 362.68
  Q 356.86 362.93 230.36 435.88
  Q 223.64 439.75 219.91 440.17
  Q 214.07 440.84 208.64 437.69
  Q 115.49 383.81 98.94 374.24
  A 0.42 0.41 19.5 0 0 98.32 374.53
  C 88.64 433.64 131.33 487.41 190.89 491.99
  Q 221.17 494.32 248.46 478.94
  Q 250.53 477.77 357.32 416.16
  A 1.99 1.98 75.1 0 0 358.31 414.44
  L 358.24 363.03
  A 0.47 0.47 0.0 0 0 357.64 362.58"
/>
</g>
<path fill="#020617" d="
  M 600.00 0.00
  L 600.00 600.00
  L 0.00 600.00
  L 0.00 0.00
  L 600.00 0.00
  Z
  M 68.23 348.97
  Q 68.26 349.14 68.23 349.24
  C 45.18 419.96 83.25 495.84 153.31 520.24
  Q 188.29 532.42 225.82 524.82
  A 0.96 0.95 -27.5 0 1 226.69 525.09
  Q 233.44 532.10 235.53 533.99
  C 290.31 583.59 373.00 581.43 424.91 529.15
  C 440.04 513.91 450.50 496.05 457.50 476.01
  A 1.06 1.05 3.0 0 1 458.27 475.32
  C 560.76 452.74 600.08 329.77 531.20 251.32
  Q 531.12 251.23 531.06 250.93
  Q 530.99 250.63 531.03 250.52
  C 562.19 150.88 476.38 54.41 373.54 75.33
  A 1.06 1.05 -26.9 0 1 372.56 75.01
  C 358.03 59.53 341.23 47.44 321.22 39.65
  C 252.57 12.90 176.11 44.46 146.14 112.01
  Q 145.00 114.58 141.67 123.73
  A 0.96 0.95 3.6 0 1 140.99 124.33
  Q 103.60 132.60 76.56 157.91
  C 22.41 208.62 18.38 293.42 68.12 348.72
  Q 68.19 348.80 68.23 348.97
  Z"
/>
<path fill="#22d3ee" d="
  M 531.06 250.93
  Q 531.12 251.23 531.20 251.32
  C 600.08 329.77 560.76 452.74 458.27 475.32
  A 1.06 1.05 3.0 0 0 457.50 476.01
  C 450.50 496.05 440.04 513.91 424.91 529.15
  C 373.00 581.43 290.31 583.59 235.53 533.99
  Q 233.44 532.10 226.69 525.09
  A 0.96 0.95 -27.5 0 0 225.82 524.82
  Q 188.29 532.42 153.31 520.24
  C 83.25 495.84 45.18 419.96 68.23 349.24
  Q 68.26 349.14 68.23 348.97
  Q 68.19 348.80 68.12 348.72
  C 18.38 293.42 22.41 208.62 76.56 157.91
  Q 103.60 132.60 140.99 124.33
  A 0.96 0.95 3.6 0 0 141.67 123.73
  Q 145.00 114.58 146.14 112.01
  C 176.11 44.46 252.57 12.90 321.22 39.65
  C 341.23 47.44 358.03 59.53 372.56 75.01
  A 1.06 1.05 -26.9 0 0 373.54 75.33
  C 476.38 54.41 562.19 150.88 531.03 250.52
  Q 530.99 250.63 531.06 250.93
  Z
  M 216.30 318.83
  Q 216.33 318.72 216.35 318.55
  Q 216.39 317.98 216.51 172.21
  Q 216.51 164.47 218.01 161.04
  Q 220.35 155.66 225.78 152.54
  Q 318.88 98.92 335.41 89.40
  A 0.42 0.41 -40.5 0 0 335.47 88.72
  C 289.21 50.84 221.42 60.89 187.72 110.08
  Q 170.58 135.09 170.25 166.36
  Q 170.22 168.73 170.14 291.80
  A 1.99 1.97 15.1 0 0 171.14 293.52
  L 215.61 319.12
  A 0.47 0.47 0.0 0 0 216.30 318.83
  Z
  M 241.81 237.10
  Q 241.92 237.07 242.08 237.00
  Q 242.59 236.75 369.03 164.08
  Q 375.75 160.22 379.47 159.81
  Q 385.30 159.15 390.72 162.30
  Q 483.68 216.25 500.19 225.83
  A 0.42 0.41 19.6 0 0 500.81 225.54
  C 510.56 166.52 468.00 112.76 408.53 108.10
  Q 378.29 105.73 351.01 121.05
  Q 348.94 122.21 242.20 183.59
  A 1.99 1.97 75.1 0 0 241.21 185.31
  L 241.21 236.65
  A 0.47 0.47 0.0 0 0 241.81 237.10
  Z
  M 273.90 382.29
  A 0.64 0.64 0.0 0 0 274.07 381.32
  Q 273.74 380.93 273.00 380.50
  Q 266.63 376.88 148.47 308.72
  Q 141.20 304.52 139.11 302.00
  Q 135.42 297.55 135.42 291.25
  Q 135.41 187.85 135.42 163.88
  A 0.40 0.40 0.0 0 0 134.88 163.50
  Q 104.54 174.89 86.11 201.36
  Q 77.41 213.85 73.14 227.87
  C 61.21 267.09 73.70 308.79 105.03 335.47
  Q 111.47 340.95 126.27 349.39
  Q 144.23 359.64 227.22 407.55
  Q 228.70 408.40 230.55 407.33
  Q 257.79 391.57 273.90 382.29
  Z
  M 325.17 218.79
  Q 325.25 218.87 325.39 218.98
  Q 325.86 219.29 452.12 292.11
  Q 458.82 295.98 461.05 298.99
  Q 464.54 303.70 464.54 309.97
  Q 464.55 417.39 464.56 436.46
  A 0.42 0.41 79.4 0 0 465.12 436.85
  C 521.02 415.67 546.13 351.90 520.32 298.16
  Q 507.20 270.84 480.27 254.95
  Q 478.23 253.74 371.61 192.28
  A 1.99 1.97 -45.0 0 0 369.63 192.29
  L 325.26 218.05
  A 0.47 0.47 0.0 0 0 325.17 218.79
  Z
  M 270.47 249.31
  Q 241.58 266.01 241.41 266.31
  Q 241.23 266.61 241.26 299.98
  Q 241.28 333.35 241.45 333.65
  Q 241.63 333.95 270.54 350.62
  Q 299.45 367.28 299.80 367.28
  Q 300.14 367.28 329.03 350.57
  Q 357.91 333.87 358.09 333.57
  Q 358.26 333.27 358.24 299.90
  Q 358.21 266.53 358.04 266.23
  Q 357.87 265.93 328.96 249.27
  Q 300.04 232.60 299.70 232.60
  Q 299.35 232.60 270.47 249.31
  Z
  M 382.67 281.16
  Q 382.64 281.27 382.62 281.45
  Q 382.58 282.01 382.62 427.85
  Q 382.62 435.60 381.12 439.03
  Q 378.79 444.41 373.36 447.55
  Q 280.28 501.28 263.75 510.83
  A 0.42 0.41 -40.6 0 0 263.69 511.51
  C 310.01 549.36 377.83 539.23 411.49 489.99
  Q 428.61 464.94 428.91 433.66
  Q 428.94 431.28 428.88 308.15
  A 1.99 1.97 15.0 0 0 427.88 306.44
  L 383.36 280.87
  A 0.47 0.47 0.0 0 0 382.67 281.16
  Z
  M 357.64 362.58
  Q 357.53 362.61 357.37 362.68
  Q 356.86 362.93 230.36 435.88
  Q 223.64 439.75 219.91 440.17
  Q 214.07 440.84 208.64 437.69
  Q 115.49 383.81 98.94 374.24
  A 0.42 0.41 19.5 0 0 98.32 374.53
  C 88.64 433.64 131.33 487.41 190.89 491.99
  Q 221.17 494.32 248.46 478.94
  Q 250.53 477.77 357.32 416.16
  A 1.99 1.98 75.1 0 0 358.31 414.44
  L 358.24 363.03
  A 0.47 0.47 0.0 0 0 357.64 362.58
  Z"
/>
<path fill="#020617" d="
  M 216.30 318.83
  A 0.47 0.47 0.0 0 1 215.61 319.12
  L 171.14 293.52
  A 1.99 1.97 15.1 0 1 170.14 291.80
  Q 170.22 168.73 170.25 166.36
  Q 170.58 135.09 187.72 110.08
  C 221.42 60.89 289.21 50.84 335.47 88.72
  A 0.42 0.41 -40.5 0 1 335.41 89.40
  Q 318.88 98.92 225.78 152.54
  Q 220.35 155.66 218.01 161.04
  Q 216.51 164.47 216.51 172.21
  Q 216.39 317.98 216.35 318.55
  Q 216.33 318.72 216.30 318.83
  Z"
/>
<path fill="#020617" d="
  M 241.81 237.10
  A 0.47 0.47 0.0 0 1 241.21 236.65
  L 241.21 185.31
  A 1.99 1.97 75.1 0 1 242.20 183.59
  Q 348.94 122.21 351.01 121.05
  Q 378.29 105.73 408.53 108.10
  C 468.00 112.76 510.56 166.52 500.81 225.54
  A 0.42 0.41 19.6 0 1 500.19 225.83
  Q 483.68 216.25 390.72 162.30
  Q 385.30 159.15 379.47 159.81
  Q 375.75 160.22 369.03 164.08
  Q 242.59 236.75 242.08 237.00
  Q 241.92 237.07 241.81 237.10
  Z"
/>
<path fill="#020617" d="
  M 273.90 382.29
  Q 257.79 391.57 230.55 407.33
  Q 228.70 408.40 227.22 407.55
  Q 144.23 359.64 126.27 349.39
  Q 111.47 340.95 105.03 335.47
  C 73.70 308.79 61.21 267.09 73.14 227.87
  Q 77.41 213.85 86.11 201.36
  Q 104.54 174.89 134.88 163.50
  A 0.40 0.40 0.0 0 1 135.42 163.88
  Q 135.41 187.85 135.42 291.25
  Q 135.42 297.55 139.11 302.00
  Q 141.20 304.52 148.47 308.72
  Q 266.63 376.88 273.00 380.50
  Q 273.74 380.93 274.07 381.32
  A 0.64 0.64 0.0 0 1 273.90 382.29
  Z"
/>
<path fill="#020617" d="
  M 325.17 218.79
  A 0.47 0.47 0.0 0 1 325.26 218.05
  L 369.63 192.29
  A 1.99 1.97 -45.0 0 1 371.61 192.28
  Q 478.23 253.74 480.27 254.95
  Q 507.20 270.84 520.32 298.16
  C 546.13 351.90 521.02 415.67 465.12 436.85
  A 0.42 0.41 79.4 0 1 464.56 436.46
  Q 464.55 417.39 464.54 309.97
  Q 464.54 303.70 461.05 298.99
  Q 458.82 295.98 452.12 292.11
  Q 325.86 219.29 325.39 218.98
  Q 325.25 218.87 325.17 218.79
  Z"
/>
<path fill="#020617" d="
  M 299.70 232.60
  Q 300.04 232.60 328.96 249.27
  Q 357.87 265.93 358.04 266.23
  Q 358.21 266.53 358.24 299.90
  Q 358.26 333.27 358.09 333.57
  Q 357.91 333.87 329.03 350.57
  Q 300.14 367.28 299.80 367.28
  Q 299.45 367.28 270.54 350.62
  Q 241.63 333.95 241.45 333.65
  Q 241.28 333.35 241.26 299.98
  Q 241.23 266.61 241.41 266.31
  Q 241.58 266.01 270.47 249.31
  Q 299.35 232.60 299.70 232.60
  Z"
/>
<path fill="#020617" d="
  M 382.67 281.16
  A 0.47 0.47 0.0 0 1 383.36 280.87
  L 427.88 306.44
  A 1.99 1.97 15.0 0 1 428.88 308.15
  Q 428.94 431.28 428.91 433.66
  Q 428.61 464.94 411.49 489.99
  C 377.83 539.23 310.01 549.36 263.69 511.51
  A 0.42 0.41 -40.6 0 1 263.75 510.83
  Q 280.28 501.28 373.36 447.55
  Q 378.79 444.41 381.12 439.03
  Q 382.62 435.60 382.62 427.85
  Q 382.58 282.01 382.62 281.45
  Q 382.64 281.27 382.67 281.16
  Z"
/>
<path fill="#020617" d="
  M 357.64 362.58
  A 0.47 0.47 0.0 0 1 358.24 363.03
  L 358.31 414.44
  A 1.99 1.98 75.1 0 1 357.32 416.16
  Q 250.53 477.77 248.46 478.94
  Q 221.17 494.32 190.89 491.99
  C 131.33 487.41 88.64 433.64 98.32 374.53
  A 0.42 0.41 19.5 0 1 98.94 374.24
  Q 115.49 383.81 208.64 437.69
  Q 214.07 440.84 219.91 440.17
  Q 223.64 439.75 230.36 435.88
  Q 356.86 362.93 357.37 362.68
  Q 357.53 362.61 357.64 362.58
  Z"
/>
</svg>
