<svg xmlns="http://www.w3.org/2000/svg" viewBox="0 0 2400 900" preserveAspectRatio="xMidYMid slice"><rect width="2400" height="900" fill="#19080b"/><path d="M0 660 C260 520 430 710 690 570 C940 435 1180 660 1430 500 C1700 330 1950 570 2400 380 L2400 900 L0 900 Z" fill="#42151a"/><path d="M0 330 C340 230 520 360 790 245 C1020 145 1290 300 1550 170 C1810 40 2090 180 2400 90" fill="none" stroke="#fb7185" stroke-opacity=".45" stroke-width="18"/><path d="M130 735 C440 610 760 740 1040 610 C1380 450 1700 700 2260 515" fill="none" stroke="#f59e0b" stroke-opacity=".22" stroke-width="10"/></svg>
