<svg xmlns="http://www.w3.org/2000/svg" viewBox="0 0 1000 1000" preserveAspectRatio="none">
  <circle class="dot" cx="120" cy="140" r="2" />
  <circle class="dot" cx="220" cy="220" r="2" />
  <circle class="dot" cx="360" cy="180" r="2" />
  <circle class="dot" cx="480" cy="260" r="2" />
  <circle class="dot" cx="640" cy="160" r="2" />
  <circle class="dot" cx="780" cy="220" r="2" />
  <circle class="dot" cx="880" cy="140" r="2" />
  <circle class="dot" cx="140" cy="360" r="2" />
  <circle class="dot" cx="300" cy="420" r="2" />
  <circle class="dot" cx="460" cy="380" r="2" />
  <circle class="dot" cx="620" cy="420" r="2" />
  <circle class="dot" cx="760" cy="360" r="2" />
  <circle class="dot" cx="900" cy="420" r="2" />
  <circle class="dot" cx="120" cy="560" r="2" />
  <circle class="dot" cx="260" cy="640" r="2" />
  <circle class="dot" cx="420" cy="580" r="2" />
  <circle class="dot" cx="580" cy="640" r="2" />
  <circle class="dot" cx="720" cy="580" r="2" />
  <circle class="dot" cx="860" cy="640" r="2" />
  <circle class="dot" cx="180" cy="820" r="2" />
  <circle class="dot" cx="360" cy="760" r="2" />
  <circle class="dot" cx="520" cy="820" r="2" />
  <circle class="dot" cx="700" cy="760" r="2" />
  <circle class="dot" cx="860" cy="820" r="2" />
</svg>
