<svg xmlns="http://www.w3.org/2000/svg" version="1.1" viewBox="0.00 0.00 256.00 256.00">
<g stroke-width="2.00" fill="none" stroke-linecap="butt">
<path stroke="#797f88" vector-effect="non-scaling-stroke" d="
  M 127.72 14.63
  L 127.20 57.11"
/>
<path stroke="#456585" vector-effect="non-scaling-stroke" d="
  M 127.20 57.11
  Q 119.79 57.57 112.22 60.88"
/>
<path stroke="#75869e" vector-effect="non-scaling-stroke" d="
  M 112.22 60.88
  L 109.31 61.09"
/>
<path stroke="#637a99" vector-effect="non-scaling-stroke" d="
  M 109.31 61.09
  L 108.68 61.05"
/>
<path stroke="#456585" vector-effect="non-scaling-stroke" d="
  M 108.68 61.05
  L 105.94 61.17"
/>
<path stroke="#637a99" vector-effect="non-scaling-stroke" d="
  M 105.94 61.17
  L 91.53 63.32"
/>
<path stroke="#bcc7d6" vector-effect="non-scaling-stroke" d="
  M 153.11 18.33
  L 144.92 59.87"
/>
<path stroke="#7196b9" vector-effect="non-scaling-stroke" d="
  M 144.92 59.87
  C 144.23 56.92 144.12 54.22 144.12 51.12
  C 143.92 53.86 143.62 56.60 143.23 59.36
  A 0.56 0.55 -83.7 0 1 142.65 59.83
  Q 134.18 59.45 127.20 57.11"
/>
<path stroke="#5b91ca" vector-effect="non-scaling-stroke" d="
  M 145.72 64.21
  Q 145.53 64.25 145.27 64.33
  Q 145.53 64.25 145.72 64.21"
/>
<path stroke="#a6c2e6" vector-effect="non-scaling-stroke" d="
  M 163.82 77.90
  L 163.65 80.00"
/>
<path stroke="#8bb2e3" vector-effect="non-scaling-stroke" d="
  M 163.65 80.00
  Q 162.86 83.18 160.72 85.82
  A 1.16 1.13 -72.3 0 1 159.93 86.24
  L 147.78 87.29"
/>
<path stroke="#4989c2" vector-effect="non-scaling-stroke" d="
  M 147.78 87.29
  L 147.64 74.05"
/>
<path stroke="#5b91ca" vector-effect="non-scaling-stroke" d="
  M 147.64 74.05
  L 148.04 66.22
  A 0.38 0.37 80.9 0 0 147.53 65.85
  Q 141.33 68.24 136.28 71.16
  C 131.20 74.10 127.06 75.15 122.13 72.57
  Q 116.37 69.56 109.92 64.20
  A 1.41 1.38 65.2 0 0 109.05 63.87
  L 99.65 63.60
  A 0.36 0.35 -10.0 0 0 99.31 64.08
  L 99.45 64.43
  A 0.33 0.32 76.7 0 0 99.78 64.64
  Q 104.60 64.30 108.07 64.44
  Q 109.06 64.49 110.27 66.01
  A 0.19 0.19 0.0 0 1 110.07 66.31
  Q 110.06 66.31 108.04 64.56
  A 1.07 1.04 32.0 0 0 106.36 64.92
  Q 106.24 65.21 106.66 65.49
  A 0.78 0.77 -74.5 0 1 107.01 66.12
  L 107.50 86.45"
/>
<path stroke="#8bb2e3" vector-effect="non-scaling-stroke" d="
  M 107.50 86.45
  L 106.68 75.88
  A 0.70 0.70 0.0 0 0 105.33 75.68
  Q 103.17 81.21 97.14 82.33
  A 1.94 1.92 -18.6 0 1 95.07 81.31
  L 91.43 74.19"
/>
<path stroke="#a6c2e6" vector-effect="non-scaling-stroke" d="
  M 91.43 74.19
  L 90.69 69.44
  A 0.48 0.48 0.0 0 0 89.88 69.17
  Q 87.57 71.45 85.69 72.92
  C 82.77 75.21 81.18 77.62 79.67 80.78
  A 0.70 0.70 0.0 0 1 78.35 80.64
  Q 77.14 75.43 80.20 72.25
  A 1.48 1.47 64.1 0 0 80.60 71.08
  L 79.78 62.74"
/>
<path stroke="#5b91ca" vector-effect="non-scaling-stroke" d="
  M 108.68 61.05
  Q 109.33 62.80 111.10 63.59
  A 0.19 0.19 0.0 0 1 111.00 63.96
  L 101.65 62.87
  A 0.44 0.44 0.0 0 1 101.62 62.00
  L 105.94 61.17"
/>
<path stroke="#8bb2e3" vector-effect="non-scaling-stroke" d="
  M 122.85 65.54
  Q 117.27 63.92 111.77 62.44
  Q 110.81 62.18 109.31 61.09"
/>
<path stroke="#6d9dcf" vector-effect="non-scaling-stroke" d="
  M 164.37 63.01
  Q 164.45 63.60 164.22 64.06"
/>
<path stroke="#7ca5d0" vector-effect="non-scaling-stroke" d="
  M 164.22 64.06
  L 164.28 71.32"
/>
<path stroke="#88add3" vector-effect="non-scaling-stroke" d="
  M 164.28 71.32
  L 163.82 77.90"
/>
<path stroke="#5b91ca" vector-effect="non-scaling-stroke" d="
  M 163.82 77.90
  C 159.08 80.69 158.57 75.93 157.60 73.01
  A 0.36 0.36 0.0 0 0 156.92 72.98
  L 153.49 81.07
  A 0.95 0.95 0.0 0 1 151.67 80.74
  L 151.14 66.94
  A 2.19 2.18 12.2 0 0 149.93 65.07
  Q 148.23 64.21 145.72 64.21
  L 147.01 63.75
  A 0.14 0.14 0.0 0 0 146.96 63.48
  L 141.28 63.61"
/>
<path stroke="#9abbd9" vector-effect="non-scaling-stroke" d="
  M 141.28 63.61
  L 146.87 62.74
  A 0.27 0.27 0.0 0 0 147.02 62.28
  Q 146.51 61.79 145.75 61.74
  C 142.26 61.53 139.57 61.69 136.12 60.90
  Q 133.56 60.32 126.92 59.08
  A 4.77 4.47 44.3 0 0 125.47 59.05
  L 122.07 59.56
  A 0.20 0.20 0.0 0 0 122.02 59.94
  Q 122.82 60.29 123.37 60.13
  L 123.38 60.13
  Q 123.28 60.13 123.19 60.15
  Q 120.58 60.99 118.08 61.48"
/>
<path stroke="#6d9dcf" vector-effect="non-scaling-stroke" d="
  M 118.08 61.48
  Q 119.80 61.10 120.98 60.14
  A 0.27 0.27 0.0 0 0 120.77 59.66
  L 115.82 60.29
  A 1.31 0.05 -19.8 0 0 114.87 60.59
  Q 113.66 61.02 112.22 60.88"
/>
<path stroke="#bcc7d6" vector-effect="non-scaling-stroke" d="
  M 159.03 19.16
  Q 156.38 32.19 153.58 45.09
  Q 152.46 50.27 150.77 55.29"
/>
<path stroke="#88add3" vector-effect="non-scaling-stroke" d="
  M 150.77 55.29
  L 149.75 58.95
  A 1.95 1.95 0.0 0 1 147.52 60.34
  L 144.92 59.87"
/>
<path stroke="#b8d0ed" vector-effect="non-scaling-stroke" d="
  M 141.28 63.61
  L 128.61 67.99
  A 1.98 1.91 37.5 0 1 127.74 68.09
  Q 124.73 67.78 122.85 65.54"
/>
<path stroke="#cbddf3" vector-effect="non-scaling-stroke" d="
  M 122.85 65.54
  Q 124.91 66.36 121.81 63.48
  A 0.56 0.55 32.5 0 1 121.67 62.87
  Q 121.76 62.66 121.74 62.52
  A 0.47 0.44 48.4 0 0 120.84 62.43
  Q 120.83 62.48 120.92 62.79
  A 0.16 0.16 0.0 0 1 120.65 62.95
  L 120.41 62.73
  A 0.55 0.54 48.0 0 1 120.45 61.92
  Q 120.68 61.73 121.01 61.50
  A 0.09 0.06 -66.5 0 0 120.98 61.35
  Q 120.91 61.39 120.85 61.40
  Q 120.71 61.42 120.64 61.49
  Q 119.30 62.68 118.08 61.48"
/>
<path stroke="#6d9dcf" vector-effect="non-scaling-stroke" d="
  M 166.84 105.81
  Q 165.38 106.24 163.53 106.14"
/>
<path stroke="#9098b0" vector-effect="non-scaling-stroke" d="
  M 163.53 106.14
  L 151.41 105.45
  A 0.76 0.76 0.0 0 0 150.61 106.21
  L 150.61 109.07
  A 0.16 0.16 0.0 0 1 150.37 109.21
  Q 150.20 109.12 150.29 108.94"
/>
<path stroke="#8f9eb4" vector-effect="non-scaling-stroke" d="
  M 150.29 108.94
  L 149.60 106.23
  A 0.19 0.19 0.0 0 1 149.81 105.99
  Q 149.99 106.01 150.06 105.93
  A 0.21 0.21 0.0 0 0 149.91 105.58
  Q 148.58 105.53 147.95 104.85"
/>
<path stroke="#c8d8ee" stroke-opacity="0.996" vector-effect="non-scaling-stroke" d="
  M 174.20 82.15
  Q 177.24 85.51 177.36 89.71
  Q 177.57 97.12 178.88 102.91
  A 0.47 0.47 0.0 0 1 178.52 103.48
  L 171.76 104.94"
/>
<path stroke="#88add3" vector-effect="non-scaling-stroke" d="
  M 171.76 104.94
  L 166.84 105.81"
/>
<path stroke="#b9cfed" stroke-opacity="0.996" vector-effect="non-scaling-stroke" d="
  M 166.84 105.81
  Q 165.37 106.09 164.60 105.68
  A 0.87 0.86 -70.6 0 1 164.16 104.75
  Q 164.77 101.67 164.05 98.96
  A 5.71 5.43 -54.2 0 1 163.87 97.63
  L 163.65 80.00"
/>
<path stroke="#2b74ae" vector-effect="non-scaling-stroke" d="
  M 147.64 74.05
  Q 145.25 73.27 143.84 74.42
  C 139.05 78.33 136.85 80.46 132.54 82.44
  A 1.42 1.42 0.0 0 0 131.95 84.53
  Q 134.56 88.41 136.83 92.54
  Q 138.00 94.66 140.90 96.12
  Q 146.23 98.82 147.84 91.22"
/>
<path stroke="#6d9dcf" vector-effect="non-scaling-stroke" d="
  M 147.84 91.22
  L 147.95 104.85"
/>
<path stroke="#5f7c9b" vector-effect="non-scaling-stroke" d="
  M 147.95 104.85
  Q 147.81 105.52 146.17 105.32"
/>
<path stroke="#6b8cae" vector-effect="non-scaling-stroke" d="
  M 146.17 105.32
  C 140.12 104.49 136.66 102.89 132.24 100.38
  A 0.03 0.03 0.0 0 0 132.20 100.43
  L 134.30 103.20"
/>
<path stroke="#6d9dcf" vector-effect="non-scaling-stroke" d="
  M 134.30 103.20
  C 132.09 102.96 130.51 101.69 128.54 101.95
  Q 123.61 102.58 120.58 103.83"
/>
<path stroke="#486785" vector-effect="non-scaling-stroke" d="
  M 120.58 103.83
  Q 114.85 104.87 108.49 105.33
  Q 108.09 105.36 107.53 104.99"
/>
<path stroke="#7ca5d0" vector-effect="non-scaling-stroke" d="
  M 107.53 104.99
  Q 108.37 102.84 107.91 99.96"
/>
<path stroke="#6d9dcf" vector-effect="non-scaling-stroke" d="
  M 107.91 99.96
  L 107.50 86.45"
/>
<path stroke="#5b95c7" vector-effect="non-scaling-stroke" d="
  M 147.78 87.29
  L 147.84 91.22"
/>
<path stroke="#adc8ea" stroke-opacity="0.996" vector-effect="non-scaling-stroke" d="
  M 107.91 99.96
  L 106.51 96.35
  A 1.02 1.02 0.0 0 0 104.82 96.02
  L 103.46 97.46
  A 2.68 2.65 58.2 0 0 102.86 100.06
  Q 103.73 102.89 106.49 105.11"
/>
<path stroke="#78899e" vector-effect="non-scaling-stroke" d="
  M 106.49 105.11
  L 91.79 106.35"
/>
<path stroke="#6d9dcf" vector-effect="non-scaling-stroke" d="
  M 91.79 106.35
  L 89.21 105.88"
/>
<path stroke="#b9cfed" stroke-opacity="0.996" vector-effect="non-scaling-stroke" d="
  M 91.43 74.19
  C 93.03 83.60 96.28 98.02 89.21 105.88"
/>
<path stroke="#88add3" vector-effect="non-scaling-stroke" d="
  M 89.21 105.88
  L 84.29 104.90"
/>
<path stroke="#a6c2e6" vector-effect="non-scaling-stroke" d="
  M 84.29 104.90
  L 65.15 102.26
  Q 65.12 102.26 65.10 102.26
  L 62.34 102.19"
/>
<path stroke="#88add3" vector-effect="non-scaling-stroke" d="
  M 62.34 102.19
  L 62.53 94.59"
/>
<path stroke="#9096a2" vector-effect="non-scaling-stroke" d="
  M 62.53 94.59
  L 62.49 62.61"
/>
<path stroke="#c8d8ee" stroke-opacity="0.996" vector-effect="non-scaling-stroke" d="
  M 170.77 75.29
  C 169.57 73.45 166.98 68.68 164.28 71.32"
/>
<path stroke="#8694a8" vector-effect="non-scaling-stroke" d="
  M 192.81 62.32
  L 192.75 95.28"
/>
<path stroke="#8f9eb4" vector-effect="non-scaling-stroke" d="
  M 192.75 95.28
  L 192.91 100.74"
/>
<path stroke="#9badc7" vector-effect="non-scaling-stroke" d="
  M 192.91 100.74
  Q 191.82 103.93 200.29 102.88"
/>
<path stroke="#a5b3cf" vector-effect="non-scaling-stroke" d="
  M 200.29 102.88
  Q 201.08 102.79 202.06 101.79"
/>
<path stroke="#adbed8" stroke-opacity="0.996" vector-effect="non-scaling-stroke" d="
  M 202.06 101.79
  Q 204.21 103.40 207.05 103.69"
/>
<path stroke="#a5b3cf" vector-effect="non-scaling-stroke" d="
  M 207.05 103.69
  L 207.17 99.68
  A 0.16 0.16 0.0 0 1 207.48 99.62
  L 209.24 103.80"
/>
<path stroke="#8bb2e3" vector-effect="non-scaling-stroke" d="
  M 209.24 103.80
  L 201.20 106.92"
/>
<path stroke="#cbddf3" vector-effect="non-scaling-stroke" d="
  M 201.20 106.92
  Q 201.90 106.32 201.93 106.25
  A 1.31 1.30 11.6 0 0 200.80 104.54
  Q 191.00 103.69 182.05 104.98"
/>
<path stroke="#adc8ea" stroke-opacity="0.996" vector-effect="non-scaling-stroke" d="
  M 182.05 104.98
  L 180.72 105.08"
/>
<path stroke="#8bb2e3" vector-effect="non-scaling-stroke" d="
  M 180.72 105.08
  L 179.26 105.38
  A 0.71 0.70 50.6 0 0 179.13 106.72
  L 185.65 109.49
  A 0.43 0.43 0.0 0 1 185.88 110.06
  L 185.70 110.49
  A 0.27 0.26 24.8 0 1 185.33 110.62
  L 176.21 105.95"
/>
<path stroke="#6d9dcf" vector-effect="non-scaling-stroke" d="
  M 176.21 105.95
  L 172.98 104.94"
/>
<path stroke="#adc8ea" stroke-opacity="0.996" vector-effect="non-scaling-stroke" d="
  M 172.98 104.94
  L 180.66 103.29
  A 0.46 0.46 0.0 0 0 181.00 102.66
  Q 179.04 97.77 178.84 95.96
  C 178.14 89.43 178.53 85.51 174.20 82.15"
/>
<path stroke="#b9cfed" stroke-opacity="0.996" vector-effect="non-scaling-stroke" d="
  M 174.20 82.15
  L 170.77 75.29"
/>
<path stroke="#adc8ea" stroke-opacity="0.996" vector-effect="non-scaling-stroke" d="
  M 170.77 75.29
  C 169.94 70.41 169.54 65.72 164.22 64.06"
/>
<path stroke="#9fa6b1" vector-effect="non-scaling-stroke" d="
  M 163.98 33.69
  C 161.20 42.93 157.28 51.21 155.89 61.13
  A 0.33 0.32 78.6 0 0 156.38 61.46
  L 157.12 61.01
  A 0.03 0.02 -31.7 0 0 157.13 60.99
  Q 158.26 51.01 164.09 42.98"
/>
<path stroke="#7196b9" vector-effect="non-scaling-stroke" d="
  M 163.44 62.44
  Q 162.32 65.04 162.13 67.86
  Q 161.77 65.82 161.62 63.77
  A 0.21 0.21 0.0 0 0 161.41 63.57
  L 161.40 63.57
  A 0.22 0.22 0.0 0 0 161.19 63.78
  C 161.11 65.14 161.13 66.49 161.13 67.86
  C 161.11 66.50 161.13 65.14 161.12 63.79
  A 0.21 0.21 0.0 0 0 160.91 63.58
  L 160.90 63.58
  A 0.20 0.20 0.0 0 0 160.69 63.78
  L 160.62 68.87
  A 0.03 0.02 -0.0 0 1 160.59 68.89
  Q 160.58 68.88 160.56 68.88
  A 0.12 0.05 4.3 0 1 160.45 68.82
  L 160.45 63.24
  A 0.73 0.71 -85.9 0 0 159.84 62.52
  L 148.23 60.71
  A 0.01 0.01 0.0 0 1 148.22 60.70
  L 148.22 60.69
  A 0.22 0.22 0.0 0 1 148.42 60.47
  Q 149.53 60.36 149.86 59.16
  Q 150.40 57.24 150.77 55.29"
/>
<path stroke="#82787b" vector-effect="non-scaling-stroke" d="
  M 150.29 108.94
  L 150.03 108.94
  A 0.24 0.24 0.0 0 0 149.78 109.19
  Q 149.82 111.82 148.98 114.27"
/>
<path stroke="#96939a" vector-effect="non-scaling-stroke" d="
  M 148.98 114.27
  L 149.26 110.54"
/>
<path stroke="#5b91ca" vector-effect="non-scaling-stroke" d="
  M 176.00 106.74
  Q 175.84 106.61 175.69 106.46
  Q 175.68 106.45 175.69 106.46
  Q 175.84 106.61 176.00 106.74"
/>
<path stroke="#5b91ca" vector-effect="non-scaling-stroke" d="
  M 196.05 142.64
  Q 189.78 143.13 183.78 145.05
  C 178.11 146.86 172.90 145.14 168.43 149.71
  A 0.55 0.54 46.2 0 0 168.42 150.47
  Q 168.79 150.88 169.21 151.03"
/>
<path stroke="#9abbd9" vector-effect="non-scaling-stroke" d="
  M 169.21 151.03
  L 164.96 150.29"
/>
<path stroke="#506b89" vector-effect="non-scaling-stroke" d="
  M 164.96 150.29
  L 165.17 149.84"
/>
<path stroke="#51607f" vector-effect="non-scaling-stroke" d="
  M 165.17 149.84
  Q 165.69 143.82 165.83 137.99
  Q 166.06 128.41 165.62 119.06"
/>
<path stroke="#607797" vector-effect="non-scaling-stroke" d="
  M 165.62 119.06
  Q 168.71 116.18 169.02 112.44
  A 1.50 1.41 3.9 0 0 167.61 110.92
  Q 166.93 110.87 166.22 111.87
  A 0.19 0.19 0.0 0 1 165.88 111.76
  L 165.88 106.91
  A 0.56 0.56 0.0 0 0 165.38 106.35
  L 163.53 106.14"
/>
<path stroke="#745c60" vector-effect="non-scaling-stroke" d="
  M 165.62 119.06
  L 165.59 106.70"
/>
<path stroke="#736769" vector-effect="non-scaling-stroke" d="
  M 165.59 106.70
  Q 160.69 107.56 156.21 110.94
  Q 152.03 114.08 153.17 119.47
  Q 154.16 124.16 154.98 127.62
  Q 155.01 127.75 156.54 135.70
  Q 158.04 143.53 162.68 150.45"
/>
<path stroke="#9098b0" vector-effect="non-scaling-stroke" d="
  M 162.68 150.45
  L 153.88 150.45"
/>
<path stroke="#7ca5d0" vector-effect="non-scaling-stroke" d="
  M 172.98 104.94
  Q 172.45 105.11 171.76 104.94"
/>
<path stroke="#9098b0" vector-effect="non-scaling-stroke" d="
  M 137.29 104.91
  L 127.17 103.99"
/>
<path stroke="#78899e" vector-effect="non-scaling-stroke" d="
  M 127.17 103.99
  L 120.58 103.83"
/>
<path stroke="#8d8d93" vector-effect="non-scaling-stroke" d="
  M 146.17 105.32
  L 149.26 110.54"
/>
<path stroke="#a2a2ae" vector-effect="non-scaling-stroke" d="
  M 149.26 110.54
  Q 149.33 113.25 148.07 114.99
  A 0.23 0.23 0.0 0 1 147.65 114.87
  Q 147.27 109.89 144.34 105.92
  A 0.94 0.94 0.0 0 0 143.51 105.54
  Q 140.59 105.76 138.21 106.94"
/>
<path stroke="#8e878f" vector-effect="non-scaling-stroke" d="
  M 138.21 106.94
  L 137.29 104.91"
/>
<path stroke="#9badc7" vector-effect="non-scaling-stroke" d="
  M 137.29 104.91
  Q 137.91 103.70 139.26 104.31
  A 0.01 0.01 0.0 0 0 139.27 104.29
  Q 139.27 104.27 139.26 104.25
  A 0.09 0.09 0.0 0 0 139.19 104.18
  L 134.30 103.20"
/>
<path stroke="#87919f" vector-effect="non-scaling-stroke" d="
  M 107.53 104.99
  L 106.49 105.11"
/>
<path stroke="#6b6366" vector-effect="non-scaling-stroke" d="
  M 127.17 103.99
  L 127.34 146.26
  A 1.24 1.13 36.2 0 0 127.43 146.71
  Q 127.65 147.24 127.66 147.66"
/>
<path stroke="#7f7e85" vector-effect="non-scaling-stroke" d="
  M 127.66 147.66
  Q 125.86 148.24 123.68 148.42
  Q 122.83 148.49 122.46 149.00"
/>
<path stroke="#a5a7a8" vector-effect="non-scaling-stroke" d="
  M 122.46 149.00
  Q 121.99 149.10 121.58 149.00"
/>
<path stroke="#486785" vector-effect="non-scaling-stroke" d="
  M 121.58 149.00
  L 100.30 150.67"
/>
<path stroke="#78899e" vector-effect="non-scaling-stroke" d="
  M 100.30 150.67
  L 91.29 150.79"
/>
<path stroke="#486785" vector-effect="non-scaling-stroke" d="
  M 91.29 150.79
  Q 90.24 150.03 90.23 148.77
  Q 90.05 128.39 90.08 108.00
  Q 90.09 106.81 91.79 106.35"
/>
<path stroke="#6d9dcf" vector-effect="non-scaling-stroke" d="
  M 91.29 150.79
  Q 89.26 150.51 87.77 151.25"
/>
<path stroke="#7ca5d0" vector-effect="non-scaling-stroke" d="
  M 87.77 151.25
  Q 83.12 151.66 79.44 150.06
  Q 70.76 146.30 62.61 145.22"
/>
<path stroke="#2b74ae" vector-effect="non-scaling-stroke" d="
  M 63.25 140.67
  Q 69.99 140.71 75.50 142.95
  A 1.73 1.73 0.0 0 0 77.86 141.06
  Q 77.02 136.12 74.48 132.84
  C 70.54 127.74 76.40 126.24 77.12 121.71
  Q 77.51 119.31 76.98 117.04
  A 0.68 0.67 84.3 0 0 76.35 116.52
  L 63.10 115.85"
/>
<path stroke="#5b91ca" vector-effect="non-scaling-stroke" d="
  M 84.29 104.90
  Q 81.01 105.35 79.84 105.80
  C 76.70 107.00 71.90 109.81 67.63 110.88
  Q 65.06 111.52 62.51 112.00"
/>
<path stroke="#5b91ca" vector-effect="non-scaling-stroke" d="
  M 62.34 102.19
  Q 62.37 102.44 62.06 102.66
  Q 61.89 102.78 61.53 102.81
  Q 54.72 103.38 48.39 104.79
  Q 48.24 104.82 45.82 105.68
  A 0.32 0.31 -51.6 0 0 45.89 106.29
  Q 49.34 106.66 50.95 108.73"
/>
<path stroke="#456585" vector-effect="non-scaling-stroke" d="
  M 62.53 94.59
  Q 61.73 96.55 61.61 99.09
  A 0.69 0.69 0.0 0 1 61.10 99.73
  L 34.36 106.91"
/>
<path stroke="#8d8d93" vector-effect="non-scaling-stroke" d="
  M 194.02 102.37
  Q 192.85 102.35 192.91 100.74"
/>
<path stroke="#5b91ca" vector-effect="non-scaling-stroke" d="
  M 213.30 105.64
  Q 208.55 105.68 205.47 108.94"
/>
<path stroke="#5b91ca" vector-effect="non-scaling-stroke" d="
  M 196.07 113.88
  C 187.71 115.65 182.15 111.37 176.00 106.74
  Q 176.18 106.39 176.21 105.95"
/>
<path stroke="#9abbe4" vector-effect="non-scaling-stroke" d="
  M 180.72 105.08
  Q 180.87 106.28 182.04 106.73"
/>
<path stroke="#b8d0ed" vector-effect="non-scaling-stroke" d="
  M 182.04 106.73
  C 184.42 108.39 187.26 111.21 190.24 110.90
  Q 195.31 110.37 201.20 106.92"
/>
<path stroke="#dae5f4" vector-effect="non-scaling-stroke" d="
  M 182.04 106.73
  L 182.05 104.98"
/>
<path stroke="#96939a" vector-effect="non-scaling-stroke" d="
  M 210.11 62.93
  Q 209.57 76.11 208.52 89.13
  Q 208.05 94.85 211.27 103.01"
/>
<path stroke="#a2a2ae" vector-effect="non-scaling-stroke" d="
  M 211.27 103.01
  L 210.96 103.81"
/>
<path stroke="#92a7c9" vector-effect="non-scaling-stroke" d="
  M 210.96 103.81
  Q 210.09 103.37 209.24 103.80"
/>
<path stroke="#b3b2be" vector-effect="non-scaling-stroke" d="
  M 207.05 103.69
  L 205.00 90.93
  A 0.41 0.41 0.0 0 0 204.21 90.86
  Q 202.37 96.11 202.06 101.79"
/>
<path stroke="#a2a2ae" vector-effect="non-scaling-stroke" d="
  M 200.29 102.88
  Q 199.91 98.52 200.78 93.69
  Q 202.02 86.84 203.19 80.00
  A 0.25 0.24 -80.7 0 0 202.99 79.71
  L 202.97 79.70
  A 0.28 0.27 10.0 0 0 202.66 79.91
  Q 201.28 86.58 199.70 96.07
  Q 199.16 99.29 196.83 102.00
  A 1.10 1.10 0.0 0 1 196.00 102.38
  L 194.02 102.37"
/>
<path stroke="#96939a" vector-effect="non-scaling-stroke" d="
  M 194.02 102.37
  Q 194.71 102.36 195.30 102.11
  A 1.00 0.98 -5.5 0 0 195.88 101.42
  L 201.31 76.51"
/>
<path stroke="#8d898e" vector-effect="non-scaling-stroke" d="
  M 205.13 62.88
  L 201.31 76.51"
/>
<path stroke="#787473" vector-effect="non-scaling-stroke" d="
  M 201.31 76.51
  C 197.52 84.48 197.01 92.99 194.88 101.31
  A 0.79 0.78 -40.8 0 1 193.34 101.20
  L 192.75 95.28"
/>
<path stroke="#978d96" vector-effect="non-scaling-stroke" d="
  M 148.98 114.27
  Q 147.71 126.40 150.63 138.03
  Q 151.01 139.55 151.97 144.32
  Q 152.63 147.56 153.88 150.45"
/>
<path stroke="#a5b3cf" vector-effect="non-scaling-stroke" d="
  M 153.88 150.45
  Q 151.94 150.83 149.49 150.46
  Q 148.63 150.33 147.84 151.26"
/>
<path stroke="#7492b6" vector-effect="non-scaling-stroke" d="
  M 147.84 151.26
  Q 148.30 150.85 147.98 150.45
  Q 147.42 149.75 146.54 149.90
  Q 143.24 150.47 139.94 151.31"
/>
<path stroke="#d1d1d9" vector-effect="non-scaling-stroke" d="
  M 139.94 151.31
  Q 140.11 149.42 138.43 149.26
  Q 132.02 148.62 122.46 149.00"
/>
<path stroke="#8bb2e3" vector-effect="non-scaling-stroke" d="
  M 196.52 145.74
  Q 192.28 144.84 189.60 146.93"
/>
<path stroke="#b8d0ed" vector-effect="non-scaling-stroke" d="
  M 189.60 146.93
  Q 187.64 146.91 184.55 147.99"
/>
<path stroke="#9abbe4" vector-effect="non-scaling-stroke" d="
  M 184.55 147.99
  Q 181.02 148.57 177.98 150.37"
/>
<path stroke="#b8d0ed" vector-effect="non-scaling-stroke" d="
  M 177.98 150.37
  Q 173.63 151.44 169.21 151.03"
/>
<path stroke="#e6edf6" vector-effect="non-scaling-stroke" d="
  M 170.72 152.01
  C 167.35 153.86 168.36 158.60 169.45 161.42
  C 171.94 167.90 169.90 173.08 166.84 178.59
  A 0.78 0.78 0.0 0 1 165.41 178.41
  L 164.09 173.29"
/>
<path stroke="#cbddf3" vector-effect="non-scaling-stroke" d="
  M 164.09 173.29
  Q 163.95 167.75 163.52 162.23
  C 163.23 158.56 163.03 154.73 164.96 151.82
  A 1.04 1.03 18.2 0 1 165.90 151.35
  Q 167.37 151.43 167.46 151.40
  A 0.28 0.28 0.0 0 0 167.49 150.88
  C 166.63 150.49 165.38 151.31 164.28 150.50"
/>
<path stroke="#645052" vector-effect="non-scaling-stroke" d="
  M 165.59 106.70
  Q 165.58 109.89 164.35 110.25
  Q 163.08 115.68 160.04 119.76
  C 158.69 121.57 157.96 123.76 157.95 125.56
  Q 157.90 130.57 159.01 137.51
  Q 160.15 144.64 165.17 149.84"
/>
<path stroke="#adabac" vector-effect="non-scaling-stroke" d="
  M 164.96 150.29
  L 164.28 150.50"
/>
<path stroke="#808da2" vector-effect="non-scaling-stroke" d="
  M 164.28 150.50
  L 162.68 150.45"
/>
<path stroke="#b9cfed" stroke-opacity="0.996" vector-effect="non-scaling-stroke" d="
  M 164.09 173.29
  L 164.56 180.43"
/>
<path stroke="#978d96" vector-effect="non-scaling-stroke" d="
  M 138.21 106.94
  Q 137.41 120.85 135.96 134.63
  Q 135.67 137.36 134.39 139.66
  Q 133.74 140.84 131.21 142.86
  Q 128.63 144.93 127.66 147.66"
/>
<path stroke="#8bb2e3" vector-effect="non-scaling-stroke" d="
  M 108.11 164.84
  L 107.71 180.99
  A 0.47 0.47 0.0 0 1 107.15 181.44
  C 103.45 180.65 101.92 178.61 100.24 175.46
  A 0.51 0.51 0.0 0 0 99.49 175.28
  L 92.56 180.12"
/>
<path stroke="#cbddf3" vector-effect="non-scaling-stroke" d="
  M 91.67 155.81
  Q 91.61 153.58 90.75 151.94
  A 0.93 0.92 -10.7 0 0 90.02 151.45
  L 87.77 151.25"
/>
<path stroke="#9abbd9" vector-effect="non-scaling-stroke" d="
  M 139.94 151.31
  Q 134.03 154.41 127.69 153.40
  Q 119.06 152.03 112.04 151.44
  A 0.40 0.40 0.0 0 1 111.67 151.00
  L 111.70 150.74
  A 0.72 0.72 0.0 0 1 112.49 150.11
  Q 115.58 150.41 117.95 149.52
  A 2.21 2.20 -52.0 0 1 118.98 149.39
  Q 120.41 149.54 121.58 149.00"
/>
<path stroke="#6d9dcf" vector-effect="non-scaling-stroke" d="
  M 147.84 151.26
  L 148.22 172.74
  A 1.14 1.12 20.6 0 0 148.60 173.56
  C 152.96 177.45 158.13 176.44 163.44 175.32
  A 0.19 0.19 0.0 0 1 163.67 175.50
  L 163.68 175.84
  A 0.32 0.31 -11.4 0 1 163.47 176.15
  Q 159.67 177.53 155.31 179.48
  Q 151.32 181.27 148.87 178.08
  A 0.25 0.25 0.0 0 0 148.43 178.24
  L 148.88 189.95
  A 1.04 1.00 -71.1 0 0 149.21 190.66
  C 153.85 194.85 158.35 189.31 160.63 185.28
  Q 160.77 185.04 163.07 182.77
  A 0.31 0.31 0.0 0 1 163.44 182.73
  Q 163.81 182.94 163.82 183.17
  A 0.40 0.39 81.8 0 1 163.51 183.59
  Q 163.32 183.63 163.25 183.69
  A 0.24 0.24 0.0 0 0 163.32 184.11
  Q 164.39 184.46 164.77 185.45"
/>
<path stroke="#56738f" vector-effect="non-scaling-stroke" d="
  M 164.87 193.28
  L 157.87 194.05"
/>
<path stroke="#6784a2" vector-effect="non-scaling-stroke" d="
  M 157.87 194.05
  L 153.12 194.71"
/>
<path stroke="#6b8cae" vector-effect="non-scaling-stroke" d="
  M 153.12 194.71
  L 145.22 194.04"
/>
<path stroke="#9abbd9" vector-effect="non-scaling-stroke" d="
  M 145.22 194.04
  Q 145.16 193.09 143.70 192.70
  Q 132.74 189.78 124.89 190.67
  Q 121.81 191.02 115.07 194.18
  A 0.26 0.26 0.0 0 0 115.08 194.65
  L 120.32 196.84"
/>
<path stroke="#6b8cae" vector-effect="non-scaling-stroke" d="
  M 120.32 196.84
  L 104.97 194.78"
/>
<path stroke="#4b6b8a" vector-effect="non-scaling-stroke" d="
  M 104.97 194.78
  L 91.99 192.29"
/>
<path stroke="#5b91ca" vector-effect="non-scaling-stroke" d="
  M 92.03 183.62
  Q 94.76 180.56 98.17 178.83
  A 0.27 0.26 85.6 0 1 98.54 179.15
  C 96.92 184.08 95.99 188.70 100.91 192.13
  A 0.73 0.73 0.0 0 0 101.81 192.08
  Q 103.30 190.78 106.22 190.46
  A 1.34 1.29 -75.0 0 0 107.17 189.89
  Q 108.01 188.65 108.06 184.75
  Q 108.17 174.83 108.11 164.84"
/>
<path stroke="#6d9dcf" vector-effect="non-scaling-stroke" d="
  M 108.11 164.84
  L 108.03 151.51
  A 1.12 1.12 0.0 0 0 106.86 150.39
  L 100.30 150.67"
/>
<path stroke="#dae5f4" vector-effect="non-scaling-stroke" d="
  M 87.77 151.25
  Q 85.36 153.78 85.23 155.86
  Q 84.78 162.76 84.28 170.21
  Q 83.93 175.59 85.06 177.63
  Q 88.31 183.47 89.74 189.88
  A 0.62 0.61 42.1 0 0 90.95 189.82
  L 92.84 173.55
  A 26.85 26.73 44.9 0 0 92.81 167.15
  L 91.67 155.81"
/>
<path stroke="#adc8ea" stroke-opacity="0.996" vector-effect="non-scaling-stroke" d="
  M 91.67 155.81
  Q 93.63 165.28 93.92 168.53
  Q 94.36 173.34 92.56 180.12"
/>
<path stroke="#9abbe4" vector-effect="non-scaling-stroke" d="
  M 92.56 180.12
  L 92.03 183.62"
/>
<path stroke="#7ca5d0" vector-effect="non-scaling-stroke" d="
  M 92.03 183.62
  Q 91.57 187.04 91.55 190.75
  Q 91.54 191.78 90.80 192.08"
/>
<path stroke="#9abbe4" vector-effect="non-scaling-stroke" d="
  M 89.55 191.92
  Q 88.01 188.39 87.12 187.61
  Q 82.94 183.98 80.59 179.23
  A 1.24 1.24 0.0 0 0 78.24 179.73
  L 77.82 191.88"
/>
<path stroke="#8a939f" vector-effect="non-scaling-stroke" d="
  M 62.96 191.72
  L 62.10 154.11
  A 0.23 0.21 4.8 0 0 61.91 153.90
  L 50.84 152.68"
/>
<path stroke="#7ca5d0" vector-effect="non-scaling-stroke" d="
  M 50.84 152.68
  L 48.61 151.65
  A 0.30 0.30 0.0 0 1 48.57 151.13
  L 52.80 148.25"
/>
<path stroke="#dae5f4" vector-effect="non-scaling-stroke" d="
  M 58.04 146.98
  L 56.36 149.64
  A 1.12 1.10 8.7 0 1 55.72 150.10
  Q 54.82 150.35 54.65 151.18
  A 1.06 0.94 9.7 0 0 55.56 152.32
  Q 66.11 153.83 76.74 151.09
  A 0.49 0.49 0.0 0 0 76.86 150.19
  Q 75.28 149.25 73.29 149.07
  A 2.77 2.73 63.2 0 1 72.10 148.67
  Q 66.59 145.23 59.92 146.42"
/>
<path stroke="#89a1c2" vector-effect="non-scaling-stroke" d="
  M 213.52 104.79
  Q 212.06 104.69 210.96 103.81"
/>
<path stroke="#585558" vector-effect="non-scaling-stroke" d="
  M 228.59 68.97
  L 228.61 70.79"
/>
<path stroke="#585558" vector-effect="non-scaling-stroke" d="
  M 228.64 81.83
  L 228.62 86.17"
/>
<path stroke="#506b89" vector-effect="non-scaling-stroke" d="
  M 214.99 108.03
  Q 214.26 106.59 213.30 105.64"
/>
<path stroke="#6e819c" vector-effect="non-scaling-stroke" d="
  M 213.30 105.64
  L 215.78 105.44"
/>
<path stroke="#456585" vector-effect="non-scaling-stroke" d="
  M 214.32 108.01
  Q 212.88 107.70 211.54 108.22"
/>
<path stroke="#716c6d" vector-effect="non-scaling-stroke" d="
  M 218.20 63.20
  Q 217.88 69.22 217.84 75.08
  C 217.80 80.57 215.54 85.14 216.80 90.78
  Q 218.07 96.44 219.27 102.71
  A 2.59 2.44 70.2 0 1 218.09 105.41
  Q 217.42 105.79 215.78 105.44"
/>
<path stroke="#7d92ae" vector-effect="non-scaling-stroke" d="
  M 215.78 105.44
  L 213.52 104.79"
/>
<path stroke="#8d8d93" vector-effect="non-scaling-stroke" d="
  M 213.52 104.79
  L 209.40 92.72
  A 0.02 0.02 0.0 0 0 209.37 92.70
  L 209.09 92.81
  A 0.23 0.22 73.2 0 0 208.96 93.07
  L 211.27 103.01"
/>
<path stroke="#9abbe4" vector-effect="non-scaling-stroke" d="
  M 169.53 191.79
  Q 169.54 191.88 169.54 191.97"
/>
<path stroke="#7ca5d0" vector-effect="non-scaling-stroke" d="
  M 166.82 192.11
  Q 164.64 192.45 164.74 190.75
  Q 164.88 188.10 164.77 185.45"
/>
<path stroke="#adc8ea" stroke-opacity="0.996" vector-effect="non-scaling-stroke" d="
  M 164.77 185.45
  L 164.56 180.43"
/>
<path stroke="#c8d8ee" stroke-opacity="0.996" vector-effect="non-scaling-stroke" d="
  M 164.56 180.43
  Q 166.70 182.42 168.98 183.02
  A 1.57 1.56 9.9 0 0 170.95 181.64
  Q 171.34 176.79 171.78 170.67
  C 172.12 165.95 171.45 163.15 170.03 159.52
  Q 169.23 157.48 169.61 154.00
  A 0.76 0.60 -38.0 0 1 169.65 153.84
  Q 169.76 153.45 169.86 153.40
  A 0.27 0.27 0.0 0 1 170.22 153.76
  Q 170.15 153.92 169.96 154.02
  A 0.07 0.07 0.0 0 0 169.98 154.14
  Q 170.13 154.18 170.22 154.02
  Q 170.69 153.12 170.72 152.01"
/>
<path stroke="#dae5f4" vector-effect="non-scaling-stroke" d="
  M 170.72 152.01
  C 173.29 151.79 175.69 152.26 177.98 150.37"
/>
<path stroke="#dae5f4" vector-effect="non-scaling-stroke" d="
  M 180.82 151.84
  Q 179.82 151.81 179.30 151.52
  A 0.64 0.64 0.0 0 1 179.45 150.34
  Q 182.20 149.62 184.55 147.99"
/>
<path stroke="#808da2" vector-effect="non-scaling-stroke" d="
  M 203.30 147.50
  Q 203.33 149.37 205.22 149.65
  A 0.23 0.22 -80.5 0 1 205.41 149.92
  L 205.41 149.93
  A 0.20 0.19 -71.2 0 1 205.15 150.06
  L 204.20 149.71
  A 0.24 0.24 0.0 0 0 203.93 150.09
  Q 204.08 150.28 204.48 150.50
  Q 204.95 150.76 204.65 151.02
  Q 204.60 151.07 204.24 151.45
  A 0.26 0.25 -68.3 0 0 204.42 151.88
  L 205.69 151.88
  A 0.24 0.23 -6.1 0 1 205.92 152.06
  L 205.92 152.07
  A 0.22 0.21 -0.0 0 1 205.70 152.28
  Q 199.94 152.15 193.11 153.82
  A 1.25 1.24 -7.8 0 0 192.16 155.06
  L 192.25 159.21"
/>
<path stroke="#8bb2e3" vector-effect="non-scaling-stroke" d="
  M 192.25 159.21
  Q 184.99 163.44 179.05 169.30
  Q 175.31 173.00 174.50 176.76
  C 173.38 182.01 173.00 187.18 169.53 191.79"
/>
<path stroke="#adc8ea" stroke-opacity="0.996" vector-effect="non-scaling-stroke" d="
  M 169.53 191.79
  Q 171.57 186.11 171.94 181.09
  Q 172.71 170.81 173.36 166.48
  C 173.41 166.16 173.38 166.26 173.37 166.36
  C 173.34 168.15 172.92 173.16 172.27 181.41
  A 0.20 0.20 0.0 0 0 172.46 181.62
  L 172.47 181.62
  A 0.22 0.22 0.0 0 0 172.71 181.41
  C 173.09 174.42 174.22 164.18 179.99 159.57
  Q 184.99 155.57 186.45 154.68
  A 0.14 0.14 0.0 0 0 186.40 154.42
  L 178.84 152.84
  A 0.43 0.43 0.0 0 1 178.70 152.06
  Q 179.33 151.67 180.82 151.84"
/>
<path stroke="#cbddf3" vector-effect="non-scaling-stroke" d="
  M 180.82 151.84
  Q 190.24 153.61 199.98 151.55
  A 1.51 1.51 0.0 0 0 200.64 148.92
  Q 197.16 146.02 189.60 146.93"
/>
<path stroke="#a5a5aa" vector-effect="non-scaling-stroke" d="
  M 147.51 237.65
  Q 146.71 220.29 150.38 203.02"
/>
<path stroke="#95959a" vector-effect="non-scaling-stroke" d="
  M 153.12 194.71
  L 150.38 203.02"
/>
<path stroke="#aaacb6" vector-effect="non-scaling-stroke" d="
  M 150.38 203.02
  Q 150.65 197.14 146.09 195.67"
/>
<path stroke="#aaacb6" vector-effect="non-scaling-stroke" d="
  M 145.46 195.81
  L 139.75 197.08
  A 1.89 1.85 15.6 0 0 138.84 197.58
  Q 135.91 200.49 135.68 203.70
  Q 134.75 217.01 133.19 226.11
  C 132.57 229.77 132.07 235.57 135.00 238.77"
/>
<path stroke="#8d8d93" vector-effect="non-scaling-stroke" d="
  M 133.21 238.87
  L 132.04 238.86"
/>
<path stroke="#5e5c5e" vector-effect="non-scaling-stroke" d="
  M 164.85 196.54
  L 164.87 198.21"
/>
<path stroke="#5e5c5e" vector-effect="non-scaling-stroke" d="
  M 164.88 198.79
  L 164.86 200.21"
/>
<path stroke="#807c7b" vector-effect="non-scaling-stroke" d="
  M 156.72 236.70
  Q 156.14 228.43 156.07 220.08
  C 156.02 214.33 157.10 208.62 157.91 202.85
  Q 158.21 200.68 157.87 194.05"
/>
<path stroke="#c8cbd1" vector-effect="non-scaling-stroke" d="
  M 145.22 194.04
  Q 144.69 192.91 143.23 193.14
  A 0.24 0.24 0.0 0 0 143.13 193.58
  L 146.09 195.67"
/>
<path stroke="#d9dce2" vector-effect="non-scaling-stroke" d="
  M 146.09 195.67
  Q 145.73 195.65 145.46 195.81"
/>
<path stroke="#c8cbd1" vector-effect="non-scaling-stroke" d="
  M 145.46 195.81
  L 140.95 195.45
  A 2.76 2.67 -49.4 0 0 140.00 195.54
  Q 130.48 198.30 120.32 196.84"
/>
<path stroke="#797c82" vector-effect="non-scaling-stroke" d="
  M 104.97 194.78
  L 125.93 198.55
  A 2.08 2.07 -86.8 0 1 127.64 200.47
  Q 128.62 218.15 127.73 236.50
  Q 127.65 238.17 128.71 238.86"
/>
<path stroke="#535559" vector-effect="non-scaling-stroke" d="
  M 117.77 238.12
  Q 117.23 238.03 116.70 238.17"
/>
<path stroke="#4b6985" vector-effect="non-scaling-stroke" d="
  M 50.84 152.68
  Q 43.65 152.13 36.54 149.87"
/>
<path stroke="#9abbe4" vector-effect="non-scaling-stroke" d="
  M 192.00 177.71
  Q 191.90 177.59 191.81 177.48"
/>
<path stroke="#8bb2e3" vector-effect="non-scaling-stroke" d="
  M 191.81 177.48
  Q 191.96 176.50 191.71 175.73"
/>
<path stroke="#9abbe4" vector-effect="non-scaling-stroke" d="
  M 191.71 175.73
  Q 190.87 174.32 189.37 173.95
  A 0.65 0.64 -71.0 0 0 188.63 174.32
  C 186.46 179.39 186.49 185.81 186.02 191.77
  A 0.82 0.81 -75.0 0 0 186.47 192.56
  Q 187.21 192.93 188.22 192.91"
/>
<path stroke="#637a99" vector-effect="non-scaling-stroke" d="
  M 175.71 192.47
  L 173.54 192.37"
/>
<path stroke="#637a99" vector-effect="non-scaling-stroke" d="
  M 170.96 192.17
  L 170.29 192.12"
/>
<path stroke="#736769" vector-effect="non-scaling-stroke" d="
  M 223.05 193.17
  Q 220.48 192.37 217.86 191.91
  Q 211.73 190.84 205.45 189.82
  Q 201.37 189.15 198.53 187.40
  A 0.83 0.83 0.0 0 1 198.14 186.68
  Q 198.42 177.31 198.98 169.65
  Q 199.50 162.63 203.64 153.51
  A 0.20 0.19 16.9 0 0 203.49 153.24
  L 202.73 153.16
  A 0.09 0.08 -71.1 0 0 202.64 153.21
  L 199.70 160.47"
/>
<path stroke="#716c6d" vector-effect="non-scaling-stroke" d="
  M 199.70 160.47
  Q 199.83 159.70 199.72 159.22
  A 0.21 0.21 0.0 0 0 199.32 159.19
  C 196.40 166.62 196.02 174.62 194.72 183.02
  Q 193.92 188.20 195.53 191.31
  A 0.87 0.87 0.0 0 0 196.24 191.79
  Q 202.73 192.34 205.48 192.48
  Q 211.89 192.81 208.47 193.69"
/>
<path stroke="#8f95a3" vector-effect="non-scaling-stroke" d="
  M 193.39 193.34
  Q 191.95 191.76 191.90 191.05
  Q 191.64 187.11 192.00 177.71"
/>
<path stroke="#6e819c" vector-effect="non-scaling-stroke" d="
  M 192.00 177.71
  L 192.25 159.21"
/>
<path stroke="#adc8ea" stroke-opacity="0.996" vector-effect="non-scaling-stroke" d="
  M 191.71 175.73
  C 186.54 177.21 186.58 187.41 186.38 191.92
  A 0.20 0.20 0.0 0 0 186.58 192.13
  L 186.87 192.13
  A 0.41 0.40 -89.3 0 0 187.27 191.73
  Q 187.39 183.86 191.81 177.48"
/>
<path stroke="#82787b" vector-effect="non-scaling-stroke" d="
  M 219.29 193.44
  C 212.79 191.19 206.90 191.38 199.21 191.65
  A 0.99 0.99 0.0 0 1 198.37 191.21
  Q 195.77 187.26 196.09 183.03
  Q 196.45 178.23 197.89 166.99
  Q 198.16 164.86 199.70 160.47"
/>
<path stroke="#5b91ca" vector-effect="non-scaling-stroke" d="
  M 148.91 62.45
  A 0.12 0.12 0.0 0 0 148.79 62.33
  A 0.12 0.12 0.0 0 0 148.67 62.45
  A 0.12 0.12 0.0 0 0 148.79 62.57
  A 0.12 0.12 0.0 0 0 148.91 62.45"
/>
<path stroke="#b8d0ed" vector-effect="non-scaling-stroke" d="
  M 54.15 105.94
  L 56.41 107.51
  A 3.24 3.12 72.6 0 0 57.07 107.87
  L 62.48 110.05
  A 5.82 5.80 45.1 0 0 66.80 110.06
  L 74.19 107.11
  A 0.99 0.99 0.0 0 0 74.11 105.24
  Q 66.14 102.89 56.77 103.72
  Q 55.18 103.86 54.06 105.16
  A 0.53 0.52 -52.2 0 0 54.15 105.94"
/>
<path stroke="#b9cfed" stroke-opacity="0.996" vector-effect="non-scaling-stroke" d="
  M 201.7453 149.6197
  A 0.22 0.08 -107.1 0 0 201.7335 149.8535
  A 0.22 0.08 -107.1 0 0 201.8747 150.0403
  A 0.22 0.08 -107.1 0 0 201.8865 149.8065
  A 0.22 0.08 -107.1 0 0 201.7453 149.6197"
/>
<path stroke="#5b91ca" vector-effect="non-scaling-stroke" d="
  M 143.36 191.88
  A 0.11 0.11 0.0 0 0 143.25 191.77
  A 0.11 0.11 0.0 0 0 143.14 191.88
  A 0.11 0.11 0.0 0 0 143.25 191.99
  A 0.11 0.11 0.0 0 0 143.36 191.88"
/>
<path stroke="#5b91ca" vector-effect="non-scaling-stroke" d="
  M 114.8331 192.2681
  A 0.38 0.10 -10.9 0 0 114.4411 192.2418
  A 0.38 0.10 -10.9 0 0 114.0869 192.4119
  A 0.38 0.10 -10.9 0 0 114.4789 192.4382
  A 0.38 0.10 -10.9 0 0 114.8331 192.2681"
/>
<path stroke="#5b91ca" vector-effect="non-scaling-stroke" d="
  M 151.5092 194.1671
  A 0.32 0.07 -4.1 0 0 151.1850 194.1202
  A 0.32 0.07 -4.1 0 0 150.8708 194.2129
  A 0.32 0.07 -4.1 0 0 151.1950 194.2598
  A 0.32 0.07 -4.1 0 0 151.5092 194.1671"
/>
</g>
<path fill="#4d4e54" d="
  M 127.72 14.63
  L 127.20 57.11
  Q 119.79 57.57 112.22 60.88
  L 109.31 61.09
  L 108.68 61.05
  L 105.94 61.17
  L 91.53 63.32
  L 91.61 20.73
  A 1.01 1.01 0.0 0 1 92.47 19.73
  L 127.72 14.63
  Z"
/>
<path fill="#a5b0bc" d="
  M 153.11 18.33
  L 144.92 59.87
  C 144.23 56.92 144.12 54.22 144.12 51.12
  C 143.92 53.86 143.62 56.60 143.23 59.36
  A 0.56 0.55 -83.7 0 1 142.65 59.83
  Q 134.18 59.45 127.20 57.11
  L 127.72 14.63
  L 153.11 18.33
  Z"
/>
<path fill="#d4dff0" fill-opacity="0.996" d="
  M 159.03 19.16
  Q 156.38 32.19 153.58 45.09
  Q 152.46 50.27 150.77 55.29
  L 149.75 58.95
  A 1.95 1.95 0.0 0 1 147.52 60.34
  L 144.92 59.87
  L 153.11 18.33
  L 159.03 19.16
  Z"
/>
<path fill="#a5b0bc" d="
  M 163.98 33.69
  C 161.20 42.93 157.28 51.21 155.89 61.13
  A 0.33 0.32 78.6 0 0 156.38 61.46
  L 157.12 61.01
  A 0.03 0.02 -31.7 0 0 157.13 60.99
  Q 158.26 51.01 164.09 42.98
  L 163.44 62.44
  Q 162.32 65.04 162.13 67.86
  Q 161.77 65.82 161.62 63.77
  A 0.21 0.21 0.0 0 0 161.41 63.57
  L 161.40 63.57
  A 0.22 0.22 0.0 0 0 161.19 63.78
  C 161.11 65.14 161.13 66.49 161.13 67.86
  C 161.11 66.50 161.13 65.14 161.12 63.79
  A 0.21 0.21 0.0 0 0 160.91 63.58
  L 160.90 63.58
  A 0.20 0.20 0.0 0 0 160.69 63.78
  L 160.62 68.87
  A 0.03 0.02 -0.0 0 1 160.59 68.89
  Q 160.58 68.88 160.56 68.88
  A 0.12 0.05 4.3 0 1 160.45 68.82
  L 160.45 63.24
  A 0.73 0.71 -85.9 0 0 159.84 62.52
  L 148.23 60.71
  A 0.01 0.01 0.0 0 1 148.22 60.70
  L 148.22 60.69
  A 0.22 0.22 0.0 0 1 148.42 60.47
  Q 149.53 60.36 149.86 59.16
  Q 150.40 57.24 150.77 55.29
  Q 152.46 50.27 153.58 45.09
  Q 156.38 32.19 159.03 19.16
  L 162.66 20.10
  A 0.81 0.80 -87.7 0 1 163.25 20.74
  Q 164.33 27.17 163.98 33.69
  Z"
/>
<path fill="#999ca6" d="
  M 163.98 33.69
  L 164.09 42.98
  Q 158.26 51.01 157.13 60.99
  A 0.03 0.02 -31.7 0 1 157.12 61.01
  L 156.38 61.46
  A 0.33 0.32 78.6 0 1 155.89 61.13
  C 157.28 51.21 161.20 42.93 163.98 33.69
  Z"
/>
<path fill="#3d7bb6" d="
  M 144.92 59.87
  L 147.52 60.34
  A 1.95 1.95 0.0 0 0 149.75 58.95
  L 150.77 55.29
  Q 150.40 57.24 149.86 59.16
  Q 149.53 60.36 148.42 60.47
  A 0.22 0.22 0.0 0 0 148.22 60.69
  L 148.22 60.70
  A 0.01 0.01 0.0 0 0 148.23 60.71
  L 159.84 62.52
  A 0.73 0.71 -85.9 0 1 160.45 63.24
  L 160.45 68.82
  A 0.12 0.05 4.3 0 0 160.56 68.88
  Q 160.58 68.88 160.59 68.89
  A 0.03 0.02 0.0 0 0 160.62 68.87
  L 160.69 63.78
  A 0.20 0.20 0.0 0 1 160.90 63.58
  L 160.91 63.58
  A 0.21 0.21 0.0 0 1 161.12 63.79
  C 161.13 65.14 161.11 66.50 161.13 67.86
  C 161.13 66.49 161.11 65.14 161.19 63.78
  A 0.22 0.22 0.0 0 1 161.40 63.57
  L 161.41 63.57
  A 0.21 0.21 0.0 0 1 161.62 63.77
  Q 161.77 65.82 162.13 67.86
  Q 162.32 65.04 163.44 62.44
  L 164.37 63.01
  Q 164.45 63.60 164.22 64.06
  L 164.28 71.32
  L 163.82 77.90
  C 159.08 80.69 158.57 75.93 157.60 73.01
  A 0.36 0.36 0.0 0 0 156.92 72.98
  L 153.49 81.07
  A 0.95 0.95 0.0 0 1 151.67 80.74
  L 151.14 66.94
  A 2.19 2.18 12.2 0 0 149.93 65.07
  Q 148.23 64.21 145.72 64.21
  L 147.01 63.75
  A 0.14 0.14 0.0 0 0 146.96 63.48
  L 141.28 63.61
  L 146.87 62.74
  A 0.27 0.27 0.0 0 0 147.02 62.28
  Q 146.51 61.79 145.75 61.74
  C 142.26 61.53 139.57 61.69 136.12 60.90
  Q 133.56 60.32 126.92 59.08
  A 4.77 4.47 44.3 0 0 125.47 59.05
  L 122.07 59.56
  A 0.20 0.20 0.0 0 0 122.02 59.94
  Q 122.82 60.29 123.37 60.13
  L 123.38 60.13
  Q 123.28 60.13 123.19 60.15
  Q 120.58 60.99 118.08 61.48
  Q 119.80 61.10 120.98 60.14
  A 0.27 0.27 0.0 0 0 120.77 59.66
  L 115.82 60.29
  A 1.31 0.05 -19.8 0 0 114.87 60.59
  Q 113.66 61.02 112.22 60.88
  Q 119.79 57.57 127.20 57.11
  Q 134.18 59.45 142.65 59.83
  A 0.56 0.55 -83.7 0 0 143.23 59.36
  C 143.62 56.60 143.92 53.86 144.12 51.12
  C 144.12 54.22 144.23 56.92 144.92 59.87
  Z
  M 148.91 62.45
  A 0.12 0.12 0.0 0 0 148.79 62.33
  A 0.12 0.12 0.0 0 0 148.67 62.45
  A 0.12 0.12 0.0 0 0 148.79 62.57
  A 0.12 0.12 0.0 0 0 148.91 62.45
  Z"
/>
<path fill="#f7fafc" d="
  M 141.28 63.61
  L 128.61 67.99
  A 1.98 1.91 37.5 0 1 127.74 68.09
  Q 124.73 67.78 122.85 65.54
  Q 124.91 66.36 121.81 63.48
  A 0.56 0.55 32.5 0 1 121.67 62.87
  Q 121.76 62.66 121.74 62.52
  A 0.47 0.44 48.4 0 0 120.84 62.43
  Q 120.83 62.48 120.92 62.79
  A 0.16 0.16 0.0 0 1 120.65 62.95
  L 120.41 62.73
  A 0.55 0.54 48.0 0 1 120.45 61.92
  Q 120.68 61.73 121.01 61.50
  A 0.09 0.06 -66.5 0 0 120.98 61.35
  Q 120.91 61.39 120.85 61.40
  Q 120.71 61.42 120.64 61.49
  Q 119.30 62.68 118.08 61.48
  Q 120.58 60.99 123.19 60.15
  Q 123.28 60.13 123.38 60.13
  L 123.37 60.13
  Q 122.82 60.29 122.02 59.94
  A 0.20 0.20 0.0 0 1 122.07 59.56
  L 125.47 59.05
  A 4.77 4.47 44.3 0 1 126.92 59.08
  Q 133.56 60.32 136.12 60.90
  C 139.57 61.69 142.26 61.53 145.75 61.74
  Q 146.51 61.79 147.02 62.28
  A 0.27 0.27 0.0 0 1 146.87 62.74
  L 141.28 63.61
  Z"
/>
<path fill="#9ebfe9" fill-opacity="0.996" d="
  M 118.08 61.48
  Q 119.30 62.68 120.64 61.49
  Q 120.71 61.42 120.85 61.40
  Q 120.91 61.39 120.98 61.35
  A 0.09 0.06 -66.5 0 1 121.01 61.50
  Q 120.68 61.73 120.45 61.92
  A 0.55 0.54 48.0 0 0 120.41 62.73
  L 120.65 62.95
  A 0.16 0.16 0.0 0 0 120.92 62.79
  Q 120.83 62.48 120.84 62.43
  A 0.47 0.44 48.4 0 1 121.74 62.52
  Q 121.76 62.66 121.67 62.87
  A 0.56 0.55 32.5 0 0 121.81 63.48
  Q 124.91 66.36 122.85 65.54
  Q 117.27 63.92 111.77 62.44
  Q 110.81 62.18 109.31 61.09
  L 112.22 60.88
  Q 113.66 61.02 114.87 60.59
  A 1.31 0.05 -19.8 0 1 115.82 60.29
  L 120.77 59.66
  A 0.27 0.27 0.0 0 1 120.98 60.14
  Q 119.80 61.10 118.08 61.48
  Z"
/>
<path fill="#3d7bb6" d="
  M 108.68 61.05
  Q 109.33 62.80 111.10 63.59
  A 0.19 0.19 0.0 0 1 111.00 63.96
  L 101.65 62.87
  A 0.44 0.44 0.0 0 1 101.62 62.00
  L 105.94 61.17
  L 108.68 61.05
  Z"
/>
<path fill="#79a6dd" d="
  M 109.31 61.09
  Q 110.81 62.18 111.77 62.44
  Q 117.27 63.92 122.85 65.54
  Q 124.73 67.78 127.74 68.09
  A 1.98 1.91 37.5 0 0 128.61 67.99
  L 141.28 63.61
  L 146.96 63.48
  A 0.14 0.14 0.0 0 1 147.01 63.75
  L 145.72 64.21
  Q 145.53 64.25 145.27 64.33
  Q 145.53 64.25 145.72 64.21
  Q 148.23 64.21 149.93 65.07
  A 2.19 2.18 12.2 0 1 151.14 66.94
  L 151.67 80.74
  A 0.95 0.95 0.0 0 0 153.49 81.07
  L 156.92 72.98
  A 0.36 0.36 0.0 0 1 157.60 73.01
  C 158.57 75.93 159.08 80.69 163.82 77.90
  L 163.65 80.00
  Q 162.86 83.18 160.72 85.82
  A 1.16 1.13 -72.3 0 1 159.93 86.24
  L 147.78 87.29
  L 147.64 74.05
  L 148.04 66.22
  A 0.38 0.37 80.9 0 0 147.53 65.85
  Q 141.33 68.24 136.28 71.16
  C 131.20 74.10 127.06 75.15 122.13 72.57
  Q 116.37 69.56 109.92 64.20
  A 1.41 1.38 65.2 0 0 109.05 63.87
  L 99.65 63.60
  A 0.36 0.35 -10.0 0 0 99.31 64.08
  L 99.45 64.43
  A 0.33 0.32 76.7 0 0 99.78 64.64
  Q 104.60 64.30 108.07 64.44
  Q 109.06 64.49 110.27 66.01
  A 0.19 0.19 0.0 0 1 110.07 66.31
  Q 110.06 66.31 108.04 64.56
  A 1.07 1.04 32.0 0 0 106.36 64.92
  Q 106.24 65.21 106.66 65.49
  A 0.78 0.77 -74.5 0 1 107.01 66.12
  L 107.50 86.45
  L 106.68 75.88
  A 0.70 0.70 0.0 0 0 105.33 75.68
  Q 103.17 81.21 97.14 82.33
  A 1.94 1.92 -18.6 0 1 95.07 81.31
  L 91.43 74.19
  L 90.69 69.44
  A 0.48 0.48 0.0 0 0 89.88 69.17
  Q 87.57 71.45 85.69 72.92
  C 82.77 75.21 81.18 77.62 79.67 80.78
  A 0.70 0.70 0.0 0 1 78.35 80.64
  Q 77.14 75.43 80.20 72.25
  A 1.48 1.47 64.1 0 0 80.60 71.08
  L 79.78 62.74
  L 91.53 63.32
  L 105.94 61.17
  L 101.62 62.00
  A 0.44 0.44 0.0 0 0 101.65 62.87
  L 111.00 63.96
  A 0.19 0.19 0.0 0 0 111.10 63.59
  Q 109.33 62.80 108.68 61.05
  L 109.31 61.09
  Z"
/>
<circle fill="#79a6dd" cx="148.79" cy="62.45" r="0.12"/>
<path fill="#d4dff0" fill-opacity="0.996" d="
  M 79.78 62.74
  L 80.60 71.08
  A 1.48 1.47 64.1 0 1 80.20 72.25
  Q 77.14 75.43 78.35 80.64
  A 0.70 0.70 0.0 0 0 79.67 80.78
  C 81.18 77.62 82.77 75.21 85.69 72.92
  Q 87.57 71.45 89.88 69.17
  A 0.48 0.48 0.0 0 1 90.69 69.44
  L 91.43 74.19
  C 93.03 83.60 96.28 98.02 89.21 105.88
  L 84.29 104.90
  L 65.15 102.26
  Q 65.12 102.26 65.10 102.26
  L 62.34 102.19
  L 62.53 94.59
  L 62.49 62.61
  L 79.78 62.74
  Z"
/>
<path fill="#9ebfe9" fill-opacity="0.996" d="
  M 192.81 62.32
  L 192.75 95.28
  L 192.91 100.74
  Q 191.82 103.93 200.29 102.88
  Q 201.08 102.79 202.06 101.79
  Q 204.21 103.40 207.05 103.69
  L 207.17 99.68
  A 0.16 0.16 0.0 0 1 207.48 99.62
  L 209.24 103.80
  L 201.20 106.92
  Q 201.90 106.32 201.93 106.25
  A 1.31 1.30 11.6 0 0 200.80 104.54
  Q 191.00 103.69 182.05 104.98
  L 180.72 105.08
  L 179.26 105.38
  A 0.71 0.70 50.6 0 0 179.13 106.72
  L 185.65 109.49
  A 0.43 0.43 0.0 0 1 185.88 110.06
  L 185.70 110.49
  A 0.27 0.26 24.8 0 1 185.33 110.62
  L 176.21 105.95
  L 172.98 104.94
  L 180.66 103.29
  A 0.46 0.46 0.0 0 0 181.00 102.66
  Q 179.04 97.77 178.84 95.96
  C 178.14 89.43 178.53 85.51 174.20 82.15
  L 170.77 75.29
  C 169.94 70.41 169.54 65.72 164.22 64.06
  Q 164.45 63.60 164.37 63.01
  L 192.81 62.32
  Z"
/>
<path fill="#6f6a67" d="
  M 205.13 62.88
  L 201.31 76.51
  C 197.52 84.48 197.01 92.99 194.88 101.31
  A 0.79 0.78 -40.8 0 1 193.34 101.20
  L 192.75 95.28
  L 192.81 62.32
  L 205.13 62.88
  Z"
/>
<path fill="#4d4e54" d="
  M 62.49 62.61
  L 62.53 94.59
  Q 61.73 96.55 61.61 99.09
  A 0.69 0.69 0.0 0 1 61.10 99.73
  L 34.36 106.91
  L 29.41 106.13
  A 0.71 0.70 -85.8 0 1 28.81 105.43
  L 28.81 65.20
  A 0.85 0.84 86.1 0 1 29.54 64.36
  Q 34.36 63.68 39.50 63.25
  Q 46.09 62.69 62.49 62.61
  Z"
/>
<path fill="#aba8b5" d="
  M 205.13 62.88
  L 210.11 62.93
  Q 209.57 76.11 208.52 89.13
  Q 208.05 94.85 211.27 103.01
  L 210.96 103.81
  Q 210.09 103.37 209.24 103.80
  L 207.48 99.62
  A 0.16 0.16 0.0 0 0 207.17 99.68
  L 207.05 103.69
  L 205.00 90.93
  A 0.41 0.41 0.0 0 0 204.21 90.86
  Q 202.37 96.11 202.06 101.79
  Q 201.08 102.79 200.29 102.88
  Q 199.91 98.52 200.78 93.69
  Q 202.02 86.84 203.19 80.00
  A 0.25 0.24 -80.7 0 0 202.99 79.71
  L 202.97 79.70
  A 0.28 0.27 10.0 0 0 202.66 79.91
  Q 201.28 86.58 199.70 96.07
  Q 199.16 99.29 196.83 102.00
  A 1.10 1.10 0.0 0 1 196.00 102.38
  L 194.02 102.37
  Q 194.71 102.36 195.30 102.11
  A 1.00 0.98 -5.5 0 0 195.88 101.42
  L 201.31 76.51
  L 205.13 62.88
  Z"
/>
<path fill="#807d7f" d="
  M 218.20 63.20
  Q 217.88 69.22 217.84 75.08
  C 217.80 80.57 215.54 85.14 216.80 90.78
  Q 218.07 96.44 219.27 102.71
  A 2.59 2.44 70.2 0 1 218.09 105.41
  Q 217.42 105.79 215.78 105.44
  L 213.52 104.79
  L 209.40 92.72
  A 0.02 0.02 0.0 0 0 209.37 92.70
  L 209.09 92.81
  A 0.23 0.22 73.2 0 0 208.96 93.07
  L 211.27 103.01
  Q 208.05 94.85 208.52 89.13
  Q 209.57 76.11 210.11 62.93
  L 218.20 63.20
  Z"
/>
<path fill="#625b5b" d="
  M 228.59 68.97
  L 228.61 70.79
  L 228.64 81.83
  L 228.62 86.17
  L 228.62 105.00
  A 1.59 1.59 0.0 0 1 227.21 106.58
  L 214.99 108.03
  Q 214.26 106.59 213.30 105.64
  L 215.78 105.44
  Q 217.42 105.79 218.09 105.41
  A 2.59 2.44 70.2 0 0 219.27 102.71
  Q 218.07 96.44 216.80 90.78
  C 215.54 85.14 217.80 80.57 217.84 75.08
  Q 217.88 69.22 218.20 63.20
  L 227.68 64.44
  A 0.77 0.76 -3.3 0 1 228.32 65.00
  Q 228.82 66.85 228.59 68.97
  Z"
/>
<path fill="#3d7bb6" d="
  M 147.64 74.05
  Q 145.25 73.27 143.84 74.42
  C 139.05 78.33 136.85 80.46 132.54 82.44
  A 1.42 1.42 0.0 0 0 131.95 84.53
  Q 134.56 88.41 136.83 92.54
  Q 138.00 94.66 140.90 96.12
  Q 146.23 98.82 147.84 91.22
  L 147.95 104.85
  Q 147.81 105.52 146.17 105.32
  C 140.12 104.49 136.66 102.89 132.24 100.38
  A 0.03 0.03 0.0 0 0 132.20 100.43
  L 134.30 103.20
  C 132.09 102.96 130.51 101.69 128.54 101.95
  Q 123.61 102.58 120.58 103.83
  Q 114.85 104.87 108.49 105.33
  Q 108.09 105.36 107.53 104.99
  Q 108.37 102.84 107.91 99.96
  L 107.50 86.45
  L 107.01 66.12
  A 0.78 0.77 -74.5 0 0 106.66 65.49
  Q 106.24 65.21 106.36 64.92
  A 1.07 1.04 32.0 0 1 108.04 64.56
  Q 110.06 66.31 110.07 66.31
  A 0.19 0.19 0.0 0 0 110.27 66.01
  Q 109.06 64.49 108.07 64.44
  Q 104.60 64.30 99.78 64.64
  A 0.33 0.32 76.7 0 1 99.45 64.43
  L 99.31 64.08
  A 0.36 0.35 -10.0 0 1 99.65 63.60
  L 109.05 63.87
  A 1.41 1.38 65.2 0 1 109.92 64.20
  Q 116.37 69.56 122.13 72.57
  C 127.06 75.15 131.20 74.10 136.28 71.16
  Q 141.33 68.24 147.53 65.85
  A 0.38 0.37 80.9 0 1 148.04 66.22
  L 147.64 74.05
  Z"
/>
<path fill="#bcd0eb" fill-opacity="0.996" d="
  M 170.77 75.29
  C 169.57 73.45 166.98 68.68 164.28 71.32
  L 164.22 64.06
  C 169.54 65.72 169.94 70.41 170.77 75.29
  Z"
/>
<path fill="#3d7bb6" d="
  M 145.72 64.21
  Q 145.53 64.25 145.27 64.33
  Q 145.53 64.25 145.72 64.21
  Z"
/>
<path fill="#d4dff0" fill-opacity="0.996" d="
  M 170.77 75.29
  L 174.20 82.15
  Q 177.24 85.51 177.36 89.71
  Q 177.57 97.12 178.88 102.91
  A 0.47 0.47 0.0 0 1 178.52 103.48
  L 171.76 104.94
  L 166.84 105.81
  Q 165.37 106.09 164.60 105.68
  A 0.87 0.86 -70.6 0 1 164.16 104.75
  Q 164.77 101.67 164.05 98.96
  A 5.71 5.43 -54.2 0 1 163.87 97.63
  L 163.65 80.00
  L 163.82 77.90
  L 164.28 71.32
  C 166.98 68.68 169.57 73.45 170.77 75.29
  Z"
/>
<path fill="#4d4e54" d="
  M 228.59 68.97
  L 228.61 70.79
  L 228.59 68.97
  Z"
/>
<path fill="#186ca6" d="
  M 147.64 74.05
  L 147.78 87.29
  L 147.84 91.22
  Q 146.23 98.82 140.90 96.12
  Q 138.00 94.66 136.83 92.54
  Q 134.56 88.41 131.95 84.53
  A 1.42 1.42 0.0 0 1 132.54 82.44
  C 136.85 80.46 139.05 78.33 143.84 74.42
  Q 145.25 73.27 147.64 74.05
  Z"
/>
<path fill="#9ebfe9" fill-opacity="0.996" d="
  M 107.50 86.45
  L 107.91 99.96
  L 106.51 96.35
  A 1.02 1.02 0.0 0 0 104.82 96.02
  L 103.46 97.46
  A 2.68 2.65 58.2 0 0 102.86 100.06
  Q 103.73 102.89 106.49 105.11
  L 91.79 106.35
  L 89.21 105.88
  C 96.28 98.02 93.03 83.60 91.43 74.19
  L 95.07 81.31
  A 1.94 1.92 -18.6 0 0 97.14 82.33
  Q 103.17 81.21 105.33 75.68
  A 0.70 0.70 0.0 0 1 106.68 75.88
  L 107.50 86.45
  Z"
/>
<path fill="#807d7f" d="
  M 201.31 76.51
  L 195.88 101.42
  A 1.00 0.98 -5.5 0 1 195.30 102.11
  Q 194.71 102.36 194.02 102.37
  Q 192.85 102.35 192.91 100.74
  L 192.75 95.28
  L 193.34 101.20
  A 0.79 0.78 -40.8 0 0 194.88 101.31
  C 197.01 92.99 197.52 84.48 201.31 76.51
  Z"
/>
<path fill="#999ca6" d="
  M 200.29 102.88
  Q 191.82 103.93 192.91 100.74
  Q 192.85 102.35 194.02 102.37
  L 196.00 102.38
  A 1.10 1.10 0.0 0 0 196.83 102.00
  Q 199.16 99.29 199.70 96.07
  Q 201.28 86.58 202.66 79.91
  A 0.28 0.27 10.0 0 1 202.97 79.70
  L 202.99 79.71
  A 0.25 0.24 -80.7 0 1 203.19 80.00
  Q 202.02 86.84 200.78 93.69
  Q 199.91 98.52 200.29 102.88
  Z"
/>
<path fill="#9ebfe9" fill-opacity="0.996" d="
  M 163.65 80.00
  L 163.87 97.63
  A 5.71 5.43 -54.2 0 0 164.05 98.96
  Q 164.77 101.67 164.16 104.75
  A 0.87 0.86 -70.6 0 0 164.60 105.68
  Q 165.37 106.09 166.84 105.81
  Q 165.38 106.24 163.53 106.14
  L 151.41 105.45
  A 0.76 0.76 0.0 0 0 150.61 106.21
  L 150.61 109.07
  A 0.16 0.16 0.0 0 1 150.37 109.21
  Q 150.20 109.12 150.29 108.94
  L 149.60 106.23
  A 0.19 0.19 0.0 0 1 149.81 105.99
  Q 149.99 106.01 150.06 105.93
  A 0.21 0.21 0.0 0 0 149.91 105.58
  Q 148.58 105.53 147.95 104.85
  L 147.84 91.22
  L 147.78 87.29
  L 159.93 86.24
  A 1.16 1.13 -72.3 0 0 160.72 85.82
  Q 162.86 83.18 163.65 80.00
  Z"
/>
<path fill="#4d4e54" d="
  M 228.64 81.83
  L 228.62 86.17
  L 228.64 81.83
  Z"
/>
<path fill="#bcd0eb" fill-opacity="0.996" d="
  M 172.98 104.94
  Q 172.45 105.11 171.76 104.94
  L 178.52 103.48
  A 0.47 0.47 0.0 0 0 178.88 102.91
  Q 177.57 97.12 177.36 89.71
  Q 177.24 85.51 174.20 82.15
  C 178.53 85.51 178.14 89.43 178.84 95.96
  Q 179.04 97.77 181.00 102.66
  A 0.46 0.46 0.0 0 1 180.66 103.29
  L 172.98 104.94
  Z"
/>
<path fill="#bbbdc7" fill-opacity="0.996" d="
  M 207.05 103.69
  Q 204.21 103.40 202.06 101.79
  Q 202.37 96.11 204.21 90.86
  A 0.41 0.41 0.0 0 1 205.00 90.93
  L 207.05 103.69
  Z"
/>
<path fill="#999ca6" d="
  M 213.52 104.79
  Q 212.06 104.69 210.96 103.81
  L 211.27 103.01
  L 208.96 93.07
  A 0.23 0.22 73.2 0 1 209.09 92.81
  L 209.37 92.70
  A 0.02 0.02 0.0 0 1 209.40 92.72
  L 213.52 104.79
  Z"
/>
<path fill="#3d7bb6" d="
  M 62.53 94.59
  L 62.34 102.19
  Q 62.37 102.44 62.06 102.66
  Q 61.89 102.78 61.53 102.81
  Q 54.72 103.38 48.39 104.79
  Q 48.24 104.82 45.82 105.68
  A 0.32 0.31 -51.6 0 0 45.89 106.29
  Q 49.34 106.66 50.95 108.73
  Q 42.77 108.56 34.36 106.91
  L 61.10 99.73
  A 0.69 0.69 0.0 0 0 61.61 99.09
  Q 61.73 96.55 62.53 94.59
  Z"
/>
<path fill="#bcd0eb" fill-opacity="0.996" d="
  M 107.91 99.96
  Q 108.37 102.84 107.53 104.99
  L 106.49 105.11
  Q 103.73 102.89 102.86 100.06
  A 2.68 2.65 58.2 0 1 103.46 97.46
  L 104.82 96.02
  A 1.02 1.02 0.0 0 1 106.51 96.35
  L 107.91 99.96
  Z"
/>
<path fill="#999ca6" d="
  M 146.17 105.32
  L 149.26 110.54
  Q 149.33 113.25 148.07 114.99
  A 0.23 0.23 0.0 0 1 147.65 114.87
  Q 147.27 109.89 144.34 105.92
  A 0.94 0.94 0.0 0 0 143.51 105.54
  Q 140.59 105.76 138.21 106.94
  L 137.29 104.91
  Q 137.91 103.70 139.26 104.31
  A 0.01 0.01 0.0 0 0 139.27 104.29
  Q 139.27 104.27 139.26 104.25
  A 0.09 0.09 0.0 0 0 139.19 104.18
  L 134.30 103.20
  L 132.20 100.43
  A 0.03 0.03 0.0 0 1 132.24 100.38
  C 136.66 102.89 140.12 104.49 146.17 105.32
  Z"
/>
<path fill="#9ebfe9" fill-opacity="0.996" d="
  M 134.30 103.20
  L 139.19 104.18
  A 0.09 0.09 0.0 0 1 139.26 104.25
  Q 139.27 104.27 139.27 104.29
  A 0.01 0.01 0.0 0 1 139.26 104.31
  Q 137.91 103.70 137.29 104.91
  L 127.17 103.99
  L 120.58 103.83
  Q 123.61 102.58 128.54 101.95
  C 130.51 101.69 132.09 102.96 134.30 103.20
  Z"
/>
<path fill="#79a6dd" d="
  M 84.29 104.90
  Q 81.01 105.35 79.84 105.80
  C 76.70 107.00 71.90 109.81 67.63 110.88
  Q 65.06 111.52 62.51 112.00
  L 50.95 108.73
  Q 49.34 106.66 45.89 106.29
  A 0.32 0.31 -51.6 0 1 45.82 105.68
  Q 48.24 104.82 48.39 104.79
  Q 54.72 103.38 61.53 102.81
  Q 61.89 102.78 62.06 102.66
  Q 62.37 102.44 62.34 102.19
  L 65.10 102.26
  Q 65.12 102.26 65.15 102.26
  L 84.29 104.90
  Z
  M 54.15 105.94
  L 56.41 107.51
  A 3.24 3.12 72.6 0 0 57.07 107.87
  L 62.48 110.05
  A 5.82 5.80 45.1 0 0 66.80 110.06
  L 74.19 107.11
  A 0.99 0.99 0.0 0 0 74.11 105.24
  Q 66.14 102.89 56.77 103.72
  Q 55.18 103.86 54.06 105.16
  A 0.53 0.52 -52.2 0 0 54.15 105.94
  Z"
/>
<path fill="#79a6dd" d="
  M 210.96 103.81
  Q 212.06 104.69 213.52 104.79
  L 215.78 105.44
  L 213.30 105.64
  Q 208.55 105.68 205.47 108.94
  Q 203.03 109.15 199.23 109.94
  Q 195.67 110.68 196.07 113.88
  C 187.71 115.65 182.15 111.37 176.00 106.74
  Q 176.18 106.39 176.21 105.95
  L 185.33 110.62
  A 0.27 0.26 24.8 0 0 185.70 110.49
  L 185.88 110.06
  A 0.43 0.43 0.0 0 0 185.65 109.49
  L 179.13 106.72
  A 0.71 0.70 50.6 0 1 179.26 105.38
  L 180.72 105.08
  Q 180.87 106.28 182.04 106.73
  C 184.42 108.39 187.26 111.21 190.24 110.90
  Q 195.31 110.37 201.20 106.92
  L 209.24 103.80
  Q 210.09 103.37 210.96 103.81
  Z"
/>
<path fill="#f7fafc" d="
  M 54.06 105.16
  Q 55.18 103.86 56.77 103.72
  Q 66.14 102.89 74.11 105.24
  A 0.99 0.99 0.0 0 1 74.19 107.11
  L 66.80 110.06
  A 5.82 5.80 45.1 0 1 62.48 110.05
  L 57.07 107.87
  A 3.24 3.12 72.6 0 1 56.41 107.51
  L 54.15 105.94
  A 0.53 0.52 -52.2 0 1 54.06 105.16
  Z"
/>
<path fill="#525354" d="
  M 120.58 103.83
  L 127.17 103.99
  L 127.34 146.26
  A 1.24 1.13 36.2 0 0 127.43 146.71
  Q 127.65 147.24 127.66 147.66
  Q 125.86 148.24 123.68 148.42
  Q 122.83 148.49 122.46 149.00
  Q 121.99 149.10 121.58 149.00
  L 100.30 150.67
  L 91.29 150.79
  Q 90.24 150.03 90.23 148.77
  Q 90.05 128.39 90.08 108.00
  Q 90.09 106.81 91.79 106.35
  L 106.49 105.11
  L 107.53 104.99
  Q 108.09 105.36 108.49 105.33
  Q 114.85 104.87 120.58 103.83
  Z"
/>
<path fill="#837277" d="
  M 137.29 104.91
  L 138.21 106.94
  Q 137.41 120.85 135.96 134.63
  Q 135.67 137.36 134.39 139.66
  Q 133.74 140.84 131.21 142.86
  Q 128.63 144.93 127.66 147.66
  Q 127.65 147.24 127.43 146.71
  A 1.24 1.13 36.2 0 1 127.34 146.26
  L 127.17 103.99
  L 137.29 104.91
  Z"
/>
<path fill="#f7fafc" d="
  M 201.20 106.92
  Q 195.31 110.37 190.24 110.90
  C 187.26 111.21 184.42 108.39 182.04 106.73
  L 182.05 104.98
  Q 191.00 103.69 200.80 104.54
  A 1.31 1.30 11.6 0 1 201.93 106.25
  Q 201.90 106.32 201.20 106.92
  Z"
/>
<path fill="#807d7f" d="
  M 147.95 104.85
  Q 148.58 105.53 149.91 105.58
  A 0.21 0.21 0.0 0 1 150.06 105.93
  Q 149.99 106.01 149.81 105.99
  A 0.19 0.19 0.0 0 0 149.60 106.23
  L 150.29 108.94
  L 150.03 108.94
  A 0.24 0.24 0.0 0 0 149.78 109.19
  Q 149.82 111.82 148.98 114.27
  L 149.26 110.54
  L 146.17 105.32
  Q 147.81 105.52 147.95 104.85
  Z"
/>
<path fill="#3d7bb6" d="
  M 84.29 104.90
  L 89.21 105.88
  L 91.79 106.35
  Q 90.09 106.81 90.08 108.00
  Q 90.05 128.39 90.23 148.77
  Q 90.24 150.03 91.29 150.79
  Q 89.26 150.51 87.77 151.25
  Q 83.12 151.66 79.44 150.06
  Q 70.76 146.30 62.61 145.22
  L 63.25 140.67
  Q 69.99 140.71 75.50 142.95
  A 1.73 1.73 0.0 0 0 77.86 141.06
  Q 77.02 136.12 74.48 132.84
  C 70.54 127.74 76.40 126.24 77.12 121.71
  Q 77.51 119.31 76.98 117.04
  A 0.68 0.67 84.3 0 0 76.35 116.52
  L 63.10 115.85
  L 62.51 112.00
  Q 65.06 111.52 67.63 110.88
  C 71.90 109.81 76.70 107.00 79.84 105.80
  Q 81.01 105.35 84.29 104.90
  Z"
/>
<path fill="#3d7bb6" d="
  M 171.76 104.94
  Q 172.45 105.11 172.98 104.94
  L 176.21 105.95
  Q 176.18 106.39 176.00 106.74
  Q 175.84 106.61 175.69 106.46
  Q 175.68 106.45 175.69 106.46
  Q 175.84 106.61 176.00 106.74
  C 182.15 111.37 187.71 115.65 196.07 113.88
  L 196.05 142.64
  Q 189.78 143.13 183.78 145.05
  C 178.11 146.86 172.90 145.14 168.43 149.71
  A 0.55 0.54 46.2 0 0 168.42 150.47
  Q 168.79 150.88 169.21 151.03
  L 164.96 150.29
  L 165.17 149.84
  Q 165.69 143.82 165.83 137.99
  Q 166.06 128.41 165.62 119.06
  Q 168.71 116.18 169.02 112.44
  A 1.50 1.41 3.9 0 0 167.61 110.92
  Q 166.93 110.87 166.22 111.87
  A 0.19 0.19 0.0 0 1 165.88 111.76
  L 165.88 106.91
  A 0.56 0.56 0.0 0 0 165.38 106.35
  L 163.53 106.14
  Q 165.38 106.24 166.84 105.81
  L 171.76 104.94
  Z"
/>
<path fill="#bcd0eb" fill-opacity="0.996" d="
  M 182.05 104.98
  L 182.04 106.73
  Q 180.87 106.28 180.72 105.08
  L 182.05 104.98
  Z"
/>
<path fill="#aba8b5" d="
  M 149.26 110.54
  L 148.98 114.27
  Q 147.71 126.40 150.63 138.03
  Q 151.01 139.55 151.97 144.32
  Q 152.63 147.56 153.88 150.45
  Q 151.94 150.83 149.49 150.46
  Q 148.63 150.33 147.84 151.26
  Q 148.30 150.85 147.98 150.45
  Q 147.42 149.75 146.54 149.90
  Q 143.24 150.47 139.94 151.31
  Q 140.11 149.42 138.43 149.26
  Q 132.02 148.62 122.46 149.00
  Q 122.83 148.49 123.68 148.42
  Q 125.86 148.24 127.66 147.66
  Q 128.63 144.93 131.21 142.86
  Q 133.74 140.84 134.39 139.66
  Q 135.67 137.36 135.96 134.63
  Q 137.41 120.85 138.21 106.94
  Q 140.59 105.76 143.51 105.54
  A 0.94 0.94 0.0 0 1 144.34 105.92
  Q 147.27 109.89 147.65 114.87
  A 0.23 0.23 0.0 0 0 148.07 114.99
  Q 149.33 113.25 149.26 110.54
  Z"
/>
<path fill="#79a6dd" d="
  M 176.00 106.74
  Q 175.84 106.61 175.69 106.46
  Q 175.68 106.45 175.69 106.46
  Q 175.84 106.61 176.00 106.74
  Z"
/>
<path fill="#3d7bb6" d="
  M 213.30 105.64
  Q 214.26 106.59 214.99 108.03
  Q 214.64 107.92 214.32 108.01
  Q 212.88 107.70 211.54 108.22
  L 205.47 108.94
  Q 208.55 105.68 213.30 105.64
  Z"
/>
<path fill="#837277" d="
  M 163.53 106.14
  L 165.38 106.35
  A 0.56 0.56 0.0 0 1 165.88 106.91
  L 165.88 111.76
  A 0.19 0.19 0.0 0 0 166.22 111.87
  Q 166.93 110.87 167.61 110.92
  A 1.50 1.41 3.9 0 1 169.02 112.44
  Q 168.71 116.18 165.62 119.06
  L 165.59 106.70
  Q 160.69 107.56 156.21 110.94
  Q 152.03 114.08 153.17 119.47
  Q 154.16 124.16 154.98 127.62
  Q 155.01 127.75 156.54 135.70
  Q 158.04 143.53 162.68 150.45
  L 153.88 150.45
  Q 152.63 147.56 151.97 144.32
  Q 151.01 139.55 150.63 138.03
  Q 147.71 126.40 148.98 114.27
  Q 149.82 111.82 149.78 109.19
  A 0.24 0.24 0.0 0 1 150.03 108.94
  L 150.29 108.94
  Q 150.20 109.12 150.37 109.21
  A 0.16 0.16 0.0 0 0 150.61 109.07
  L 150.61 106.21
  A 0.76 0.76 0.0 0 1 151.41 105.45
  L 163.53 106.14
  Z"
/>
<path fill="#625b5b" d="
  M 165.59 106.70
  Q 165.58 109.89 164.35 110.25
  Q 163.08 115.68 160.04 119.76
  C 158.69 121.57 157.96 123.76 157.95 125.56
  Q 157.90 130.57 159.01 137.51
  Q 160.15 144.64 165.17 149.84
  L 164.96 150.29
  L 164.28 150.50
  L 162.68 150.45
  Q 158.04 143.53 156.54 135.70
  Q 155.01 127.75 154.98 127.62
  Q 154.16 124.16 153.17 119.47
  Q 152.03 114.08 156.21 110.94
  Q 160.69 107.56 165.59 106.70
  Z"
/>
<path fill="#654548" d="
  M 165.59 106.70
  L 165.62 119.06
  Q 166.06 128.41 165.83 137.99
  Q 165.69 143.82 165.17 149.84
  Q 160.15 144.64 159.01 137.51
  Q 157.90 130.57 157.95 125.56
  C 157.96 123.76 158.69 121.57 160.04 119.76
  Q 163.08 115.68 164.35 110.25
  Q 165.58 109.89 165.59 106.70
  Z"
/>
<path fill="#4d4e54" d="
  M 214.32 108.01
  L 211.54 108.22
  Q 212.88 107.70 214.32 108.01
  Z"
/>
<path fill="#186ca6" d="
  M 63.25 140.67
  L 63.10 115.85
  L 76.35 116.52
  A 0.68 0.67 84.3 0 1 76.98 117.04
  Q 77.51 119.31 77.12 121.71
  C 76.40 126.24 70.54 127.74 74.48 132.84
  Q 77.02 136.12 77.86 141.06
  A 1.73 1.73 0.0 0 1 75.50 142.95
  Q 69.99 140.71 63.25 140.67
  Z"
/>
<path fill="#79a6dd" d="
  M 196.05 142.64
  L 196.52 145.74
  Q 192.28 144.84 189.60 146.93
  Q 187.64 146.91 184.55 147.99
  Q 181.02 148.57 177.98 150.37
  Q 173.63 151.44 169.21 151.03
  Q 168.79 150.88 168.42 150.47
  A 0.55 0.54 46.2 0 1 168.43 149.71
  C 172.90 145.14 178.11 146.86 183.78 145.05
  Q 189.78 143.13 196.05 142.64
  Z"
/>
<path fill="#bcd0eb" fill-opacity="0.996" d="
  M 62.61 145.22
  Q 70.76 146.30 79.44 150.06
  Q 83.12 151.66 87.77 151.25
  Q 85.36 153.78 85.23 155.86
  Q 84.78 162.76 84.28 170.21
  Q 83.93 175.59 85.06 177.63
  Q 88.31 183.47 89.74 189.88
  A 0.62 0.61 42.1 0 0 90.95 189.82
  L 92.84 173.55
  A 26.85 26.73 44.9 0 0 92.81 167.15
  L 91.67 155.81
  Q 93.63 165.28 93.92 168.53
  Q 94.36 173.34 92.56 180.12
  L 92.03 183.62
  Q 91.57 187.04 91.55 190.75
  Q 91.54 191.78 90.80 192.08
  L 89.55 191.92
  Q 88.01 188.39 87.12 187.61
  Q 82.94 183.98 80.59 179.23
  A 1.24 1.24 0.0 0 0 78.24 179.73
  L 77.82 191.88
  L 62.96 191.72
  L 62.10 154.11
  A 0.23 0.21 4.8 0 0 61.91 153.90
  L 50.84 152.68
  L 48.61 151.65
  A 0.30 0.30 0.0 0 1 48.57 151.13
  L 52.80 148.25
  L 58.04 146.98
  L 56.36 149.64
  A 1.12 1.10 8.7 0 1 55.72 150.10
  Q 54.82 150.35 54.65 151.18
  A 1.06 0.94 9.7 0 0 55.56 152.32
  Q 66.11 153.83 76.74 151.09
  A 0.49 0.49 0.0 0 0 76.86 150.19
  Q 75.28 149.25 73.29 149.07
  A 2.77 2.73 63.2 0 1 72.10 148.67
  Q 66.59 145.23 59.92 146.42
  L 62.61 145.22
  Z"
/>
<path fill="#9ebfe9" fill-opacity="0.996" d="
  M 196.52 145.74
  L 203.30 147.50
  Q 203.33 149.37 205.22 149.65
  A 0.23 0.22 -80.5 0 1 205.41 149.92
  L 205.41 149.93
  A 0.20 0.19 -71.2 0 1 205.15 150.06
  L 204.20 149.71
  A 0.24 0.24 0.0 0 0 203.93 150.09
  Q 204.08 150.28 204.48 150.50
  Q 204.95 150.76 204.65 151.02
  Q 204.60 151.07 204.24 151.45
  A 0.26 0.25 -68.3 0 0 204.42 151.88
  L 205.69 151.88
  A 0.24 0.23 -6.1 0 1 205.92 152.06
  L 205.92 152.07
  A 0.22 0.21 -0.0 0 1 205.70 152.28
  Q 199.94 152.15 193.11 153.82
  A 1.25 1.24 -7.8 0 0 192.16 155.06
  L 192.25 159.21
  Q 184.99 163.44 179.05 169.30
  Q 175.31 173.00 174.50 176.76
  C 173.38 182.01 173.00 187.18 169.53 191.79
  Q 171.57 186.11 171.94 181.09
  Q 172.71 170.81 173.36 166.48
  C 173.41 166.16 173.38 166.26 173.37 166.36
  C 173.34 168.15 172.92 173.16 172.27 181.41
  A 0.20 0.20 0.0 0 0 172.46 181.62
  L 172.47 181.62
  A 0.22 0.22 0.0 0 0 172.71 181.41
  C 173.09 174.42 174.22 164.18 179.99 159.57
  Q 184.99 155.57 186.45 154.68
  A 0.14 0.14 0.0 0 0 186.40 154.42
  L 178.84 152.84
  A 0.43 0.43 0.0 0 1 178.70 152.06
  Q 179.33 151.67 180.82 151.84
  Q 190.24 153.61 199.98 151.55
  A 1.51 1.51 0.0 0 0 200.64 148.92
  Q 197.16 146.02 189.60 146.93
  Q 192.28 144.84 196.52 145.74
  Z
  M 201.7453 149.6197
  A 0.22 0.08 -107.1 0 0 201.7335 149.8535
  A 0.22 0.08 -107.1 0 0 201.8747 150.0403
  A 0.22 0.08 -107.1 0 0 201.8865 149.8065
  A 0.22 0.08 -107.1 0 0 201.7453 149.6197
  Z"
/>
<path fill="#f7fafc" d="
  M 58.04 146.98
  Q 59.12 146.27 59.92 146.42
  Q 66.59 145.23 72.10 148.67
  A 2.77 2.73 63.2 0 0 73.29 149.07
  Q 75.28 149.25 76.86 150.19
  A 0.49 0.49 0.0 0 1 76.74 151.09
  Q 66.11 153.83 55.56 152.32
  A 1.06 0.94 9.7 0 1 54.65 151.18
  Q 54.82 150.35 55.72 150.10
  A 1.12 1.10 8.7 0 0 56.36 149.64
  L 58.04 146.98
  Z"
/>
<path fill="#f7fafc" d="
  M 189.60 146.93
  Q 197.16 146.02 200.64 148.92
  A 1.51 1.51 0.0 0 1 199.98 151.55
  Q 190.24 153.61 180.82 151.84
  Q 179.82 151.81 179.30 151.52
  A 0.64 0.64 0.0 0 1 179.45 150.34
  Q 182.20 149.62 184.55 147.99
  Q 187.64 146.91 189.60 146.93
  Z"
/>
<path fill="#625b5b" d="
  M 223.05 193.17
  Q 220.48 192.37 217.86 191.91
  Q 211.73 190.84 205.45 189.82
  Q 201.37 189.15 198.53 187.40
  A 0.83 0.83 0.0 0 1 198.14 186.68
  Q 198.42 177.31 198.98 169.65
  Q 199.50 162.63 203.64 153.51
  A 0.20 0.19 16.9 0 0 203.49 153.24
  L 202.73 153.16
  A 0.09 0.08 -71.1 0 0 202.64 153.21
  L 199.70 160.47
  Q 199.83 159.70 199.72 159.22
  A 0.21 0.21 0.0 0 0 199.32 159.19
  C 196.40 166.62 196.02 174.62 194.72 183.02
  Q 193.92 188.20 195.53 191.31
  A 0.87 0.87 0.0 0 0 196.24 191.79
  Q 202.73 192.34 205.48 192.48
  Q 211.89 192.81 208.47 193.69
  L 193.39 193.34
  Q 191.95 191.76 191.90 191.05
  Q 191.64 187.11 192.00 177.71
  L 192.25 159.21
  L 192.16 155.06
  A 1.25 1.24 -7.8 0 1 193.11 153.82
  Q 199.94 152.15 205.70 152.28
  A 0.22 0.21 -0.0 0 0 205.92 152.07
  L 205.92 152.06
  A 0.24 0.23 -6.1 0 0 205.69 151.88
  L 204.42 151.88
  A 0.26 0.25 -68.3 0 1 204.24 151.45
  Q 204.60 151.07 204.65 151.02
  Q 204.95 150.76 204.48 150.50
  Q 204.08 150.28 203.93 150.09
  A 0.24 0.24 0.0 0 1 204.20 149.71
  L 205.15 150.06
  A 0.20 0.19 -71.2 0 0 205.41 149.93
  L 205.41 149.92
  A 0.23 0.22 -80.5 0 0 205.22 149.65
  Q 203.33 149.37 203.30 147.50
  L 227.71 150.16
  A 0.96 0.95 3.0 0 1 228.57 151.11
  Q 228.79 183.22 228.79 183.50
  Q 228.81 187.83 228.35 192.01
  A 0.99 0.98 -88.6 0 1 227.43 192.89
  L 223.05 193.17
  Z"
/>
<path fill="#bcd0eb" fill-opacity="0.996" d="
  M 184.55 147.99
  Q 182.20 149.62 179.45 150.34
  A 0.64 0.64 0.0 0 0 179.30 151.52
  Q 179.82 151.81 180.82 151.84
  Q 179.33 151.67 178.70 152.06
  A 0.43 0.43 0.0 0 0 178.84 152.84
  L 186.40 154.42
  A 0.14 0.14 0.0 0 1 186.45 154.68
  Q 184.99 155.57 179.99 159.57
  C 174.22 164.18 173.09 174.42 172.71 181.41
  A 0.22 0.22 0.0 0 1 172.47 181.62
  L 172.46 181.62
  A 0.20 0.20 0.0 0 1 172.27 181.41
  C 172.92 173.16 173.34 168.15 173.37 166.36
  C 173.38 166.26 173.41 166.16 173.36 166.48
  Q 172.71 170.81 171.94 181.09
  Q 171.57 186.11 169.53 191.79
  Q 169.54 191.88 169.54 191.97
  L 166.82 192.11
  Q 164.64 192.45 164.74 190.75
  Q 164.88 188.10 164.77 185.45
  L 164.56 180.43
  Q 166.70 182.42 168.98 183.02
  A 1.57 1.56 9.9 0 0 170.95 181.64
  Q 171.34 176.79 171.78 170.67
  C 172.12 165.95 171.45 163.15 170.03 159.52
  Q 169.23 157.48 169.61 154.00
  A 0.76 0.60 -38.0 0 1 169.65 153.84
  Q 169.76 153.45 169.86 153.40
  A 0.27 0.27 0.0 0 1 170.22 153.76
  Q 170.15 153.92 169.96 154.02
  A 0.07 0.07 0.0 0 0 169.98 154.14
  Q 170.13 154.18 170.22 154.02
  Q 170.69 153.12 170.72 152.01
  C 173.29 151.79 175.69 152.26 177.98 150.37
  Q 181.02 148.57 184.55 147.99
  Z"
/>
<path fill="#3d7bb6" d="
  M 52.80 148.25
  L 48.57 151.13
  A 0.30 0.30 0.0 0 0 48.61 151.65
  L 50.84 152.68
  Q 43.65 152.13 36.54 149.87
  L 52.80 148.25
  Z"
/>
<path fill="#f7fafc" d="
  M 139.94 151.31
  Q 134.03 154.41 127.69 153.40
  Q 119.06 152.03 112.04 151.44
  A 0.40 0.40 0.0 0 1 111.67 151.00
  L 111.70 150.74
  A 0.72 0.72 0.0 0 1 112.49 150.11
  Q 115.58 150.41 117.95 149.52
  A 2.21 2.20 -52.0 0 1 118.98 149.39
  Q 120.41 149.54 121.58 149.00
  Q 121.99 149.10 122.46 149.00
  Q 132.02 148.62 138.43 149.26
  Q 140.11 149.42 139.94 151.31
  Z"
/>
<path fill="#3d7bb6" d="
  M 121.58 149.00
  Q 120.41 149.54 118.98 149.39
  A 2.21 2.20 -52.0 0 0 117.95 149.52
  Q 115.58 150.41 112.49 150.11
  A 0.72 0.72 0.0 0 0 111.70 150.74
  L 111.67 151.00
  A 0.40 0.40 0.0 0 0 112.04 151.44
  Q 119.06 152.03 127.69 153.40
  Q 134.03 154.41 139.94 151.31
  Q 143.24 150.47 146.54 149.90
  Q 147.42 149.75 147.98 150.45
  Q 148.30 150.85 147.84 151.26
  L 148.22 172.74
  A 1.14 1.12 20.6 0 0 148.60 173.56
  C 152.96 177.45 158.13 176.44 163.44 175.32
  A 0.19 0.19 0.0 0 1 163.67 175.50
  L 163.68 175.84
  A 0.32 0.31 -11.4 0 1 163.47 176.15
  Q 159.67 177.53 155.31 179.48
  Q 151.32 181.27 148.87 178.08
  A 0.25 0.25 0.0 0 0 148.43 178.24
  L 148.88 189.95
  A 1.04 1.00 -71.1 0 0 149.21 190.66
  C 153.85 194.85 158.35 189.31 160.63 185.28
  Q 160.77 185.04 163.07 182.77
  A 0.31 0.31 0.0 0 1 163.44 182.73
  Q 163.81 182.94 163.82 183.17
  A 0.40 0.39 81.8 0 1 163.51 183.59
  Q 163.32 183.63 163.25 183.69
  A 0.24 0.24 0.0 0 0 163.32 184.11
  Q 164.39 184.46 164.77 185.45
  Q 164.88 188.10 164.74 190.75
  Q 164.64 192.45 166.82 192.11
  Q 164.96 192.33 164.87 193.28
  L 157.87 194.05
  L 153.12 194.71
  L 145.22 194.04
  Q 145.16 193.09 143.70 192.70
  Q 132.74 189.78 124.89 190.67
  Q 121.81 191.02 115.07 194.18
  A 0.26 0.26 0.0 0 0 115.08 194.65
  L 120.32 196.84
  L 104.97 194.78
  L 91.99 192.29
  Q 91.61 192.66 90.80 192.08
  Q 91.54 191.78 91.55 190.75
  Q 91.57 187.04 92.03 183.62
  Q 94.76 180.56 98.17 178.83
  A 0.27 0.26 85.6 0 1 98.54 179.15
  C 96.92 184.08 95.99 188.70 100.91 192.13
  A 0.73 0.73 0.0 0 0 101.81 192.08
  Q 103.30 190.78 106.22 190.46
  A 1.34 1.29 -75.0 0 0 107.17 189.89
  Q 108.01 188.65 108.06 184.75
  Q 108.17 174.83 108.11 164.84
  L 108.03 151.51
  A 1.12 1.12 0.0 0 0 106.86 150.39
  L 100.30 150.67
  L 121.58 149.00
  Z
  M 143.36 191.88
  A 0.11 0.11 0.0 0 0 143.25 191.77
  A 0.11 0.11 0.0 0 0 143.14 191.88
  A 0.11 0.11 0.0 0 0 143.25 191.99
  A 0.11 0.11 0.0 0 0 143.36 191.88
  Z
  M 114.8331 192.2681
  A 0.38 0.10 -10.9 0 0 114.4411 192.2418
  A 0.38 0.10 -10.9 0 0 114.0869 192.4119
  A 0.38 0.10 -10.9 0 0 114.4789 192.4382
  A 0.38 0.10 -10.9 0 0 114.8331 192.2681
  Z
  M 151.5092 194.1671
  A 0.32 0.07 -4.1 0 0 151.1850 194.1202
  A 0.32 0.07 -4.1 0 0 150.8708 194.2129
  A 0.32 0.07 -4.1 0 0 151.1950 194.2598
  A 0.32 0.07 -4.1 0 0 151.5092 194.1671
  Z"
/>
<ellipse fill="#d4dff0" fill-opacity="0.996" cx="0.00" cy="0.00" transform="translate(201.81,149.83) rotate(-107.1)" rx="0.22" ry="0.08"/>
<path fill="#585753" d="
  M 36.54 149.87
  Q 43.65 152.13 50.84 152.68
  L 61.91 153.90
  A 0.23 0.21 4.8 0 1 62.10 154.11
  L 62.96 191.72
  L 29.87 192.42
  A 0.69 0.68 89.2 0 1 29.17 191.73
  L 29.17 151.13
  A 0.79 0.78 -6.5 0 1 29.78 150.37
  Q 33.60 149.53 36.54 149.87
  Z"
/>
<path fill="#f7fafc" d="
  M 164.96 150.29
  L 169.21 151.03
  Q 173.63 151.44 177.98 150.37
  C 175.69 152.26 173.29 151.79 170.72 152.01
  C 167.35 153.86 168.36 158.60 169.45 161.42
  C 171.94 167.90 169.90 173.08 166.84 178.59
  A 0.78 0.78 0.0 0 1 165.41 178.41
  L 164.09 173.29
  Q 163.95 167.75 163.52 162.23
  C 163.23 158.56 163.03 154.73 164.96 151.82
  A 1.04 1.03 18.2 0 1 165.90 151.35
  Q 167.37 151.43 167.46 151.40
  A 0.28 0.28 0.0 0 0 167.49 150.88
  C 166.63 150.49 165.38 151.31 164.28 150.50
  L 164.96 150.29
  Z"
/>
<path fill="#9ebfe9" fill-opacity="0.996" d="
  M 108.11 164.84
  L 107.71 180.99
  A 0.47 0.47 0.0 0 1 107.15 181.44
  C 103.45 180.65 101.92 178.61 100.24 175.46
  A 0.51 0.51 0.0 0 0 99.49 175.28
  L 92.56 180.12
  Q 94.36 173.34 93.92 168.53
  Q 93.63 165.28 91.67 155.81
  Q 91.61 153.58 90.75 151.94
  A 0.93 0.92 -10.7 0 0 90.02 151.45
  L 87.77 151.25
  Q 89.26 150.51 91.29 150.79
  L 100.30 150.67
  L 106.86 150.39
  A 1.12 1.12 0.0 0 1 108.03 151.51
  L 108.11 164.84
  Z"
/>
<path fill="#9ebfe9" fill-opacity="0.996" d="
  M 153.88 150.45
  L 162.68 150.45
  L 164.28 150.50
  C 165.38 151.31 166.63 150.49 167.49 150.88
  A 0.28 0.28 0.0 0 1 167.46 151.40
  Q 167.37 151.43 165.90 151.35
  A 1.04 1.03 18.2 0 0 164.96 151.82
  C 163.03 154.73 163.23 158.56 163.52 162.23
  Q 163.95 167.75 164.09 173.29
  L 164.56 180.43
  L 164.77 185.45
  Q 164.39 184.46 163.32 184.11
  A 0.24 0.24 0.0 0 1 163.25 183.69
  Q 163.32 183.63 163.51 183.59
  A 0.40 0.39 81.8 0 0 163.82 183.17
  Q 163.81 182.94 163.44 182.73
  A 0.31 0.31 0.0 0 0 163.07 182.77
  Q 160.77 185.04 160.63 185.28
  C 158.35 189.31 153.85 194.85 149.21 190.66
  A 1.04 1.00 -71.1 0 1 148.88 189.95
  L 148.43 178.24
  A 0.25 0.25 0.0 0 1 148.87 178.08
  Q 151.32 181.27 155.31 179.48
  Q 159.67 177.53 163.47 176.15
  A 0.32 0.31 -11.4 0 0 163.68 175.84
  L 163.67 175.50
  A 0.19 0.19 0.0 0 0 163.44 175.32
  C 158.13 176.44 152.96 177.45 148.60 173.56
  A 1.14 1.12 20.6 0 1 148.22 172.74
  L 147.84 151.26
  Q 148.63 150.33 149.49 150.46
  Q 151.94 150.83 153.88 150.45
  Z"
/>
<path fill="#f7fafc" d="
  M 91.67 155.81
  L 92.81 167.15
  A 26.85 26.73 44.9 0 1 92.84 173.55
  L 90.95 189.82
  A 0.62 0.61 42.1 0 1 89.74 189.88
  Q 88.31 183.47 85.06 177.63
  Q 83.93 175.59 84.28 170.21
  Q 84.78 162.76 85.23 155.86
  Q 85.36 153.78 87.77 151.25
  L 90.02 151.45
  A 0.93 0.92 -10.7 0 1 90.75 151.94
  Q 91.61 153.58 91.67 155.81
  Z"
/>
<path fill="#d4dff0" fill-opacity="0.996" d="
  M 170.72 152.01
  Q 170.69 153.12 170.22 154.02
  Q 170.13 154.18 169.98 154.14
  A 0.07 0.07 0.0 0 1 169.96 154.02
  Q 170.15 153.92 170.22 153.76
  A 0.27 0.27 0.0 0 0 169.86 153.40
  Q 169.76 153.45 169.65 153.84
  A 0.76 0.60 -38.0 0 0 169.61 154.00
  Q 169.23 157.48 170.03 159.52
  C 171.45 163.15 172.12 165.95 171.78 170.67
  Q 171.34 176.79 170.95 181.64
  A 1.57 1.56 9.9 0 1 168.98 183.02
  Q 166.70 182.42 164.56 180.43
  L 164.09 173.29
  L 165.41 178.41
  A 0.78 0.78 0.0 0 0 166.84 178.59
  C 169.90 173.08 171.94 167.90 169.45 161.42
  C 168.36 158.60 167.35 153.86 170.72 152.01
  Z"
/>
<path fill="#837277" d="
  M 223.05 193.17
  L 219.29 193.44
  C 212.79 191.19 206.90 191.38 199.21 191.65
  A 0.99 0.99 0.0 0 1 198.37 191.21
  Q 195.77 187.26 196.09 183.03
  Q 196.45 178.23 197.89 166.99
  Q 198.16 164.86 199.70 160.47
  L 202.64 153.21
  A 0.09 0.08 -71.1 0 1 202.73 153.16
  L 203.49 153.24
  A 0.20 0.19 16.9 0 1 203.64 153.51
  Q 199.50 162.63 198.98 169.65
  Q 198.42 177.31 198.14 186.68
  A 0.83 0.83 0.0 0 0 198.53 187.40
  Q 201.37 189.15 205.45 189.82
  Q 211.73 190.84 217.86 191.91
  Q 220.48 192.37 223.05 193.17
  Z"
/>
<path fill="#807d7f" d="
  M 199.70 160.47
  Q 198.16 164.86 197.89 166.99
  Q 196.45 178.23 196.09 183.03
  Q 195.77 187.26 198.37 191.21
  A 0.99 0.99 0.0 0 0 199.21 191.65
  C 206.90 191.38 212.79 191.19 219.29 193.44
  L 208.47 193.69
  Q 211.89 192.81 205.48 192.48
  Q 202.73 192.34 196.24 191.79
  A 0.87 0.87 0.0 0 1 195.53 191.31
  Q 193.92 188.20 194.72 183.02
  C 196.02 174.62 196.40 166.62 199.32 159.19
  A 0.21 0.21 0.0 0 1 199.72 159.22
  Q 199.83 159.70 199.70 160.47
  Z"
/>
<path fill="#79a6dd" d="
  M 192.25 159.21
  L 192.00 177.71
  Q 191.90 177.59 191.81 177.48
  Q 191.96 176.50 191.71 175.73
  Q 190.87 174.32 189.37 173.95
  A 0.65 0.64 -71.0 0 0 188.63 174.32
  C 186.46 179.39 186.49 185.81 186.02 191.77
  A 0.82 0.81 -75.0 0 0 186.47 192.56
  Q 187.21 192.93 188.22 192.91
  L 175.71 192.47
  L 173.54 192.37
  L 170.96 192.17
  L 170.29 192.12
  L 169.54 191.97
  Q 169.54 191.88 169.53 191.79
  C 173.00 187.18 173.38 182.01 174.50 176.76
  Q 175.31 173.00 179.05 169.30
  Q 184.99 163.44 192.25 159.21
  Z"
/>
<path fill="#79a6dd" d="
  M 108.11 164.84
  Q 108.17 174.83 108.06 184.75
  Q 108.01 188.65 107.17 189.89
  A 1.34 1.29 -75.0 0 1 106.22 190.46
  Q 103.30 190.78 101.81 192.08
  A 0.73 0.73 0.0 0 1 100.91 192.13
  C 95.99 188.70 96.92 184.08 98.54 179.15
  A 0.27 0.26 85.6 0 0 98.17 178.83
  Q 94.76 180.56 92.03 183.62
  L 92.56 180.12
  L 99.49 175.28
  A 0.51 0.51 0.0 0 1 100.24 175.46
  C 101.92 178.61 103.45 180.65 107.15 181.44
  A 0.47 0.47 0.0 0 0 107.71 180.99
  L 108.11 164.84
  Z"
/>
<path fill="#bcd0eb" fill-opacity="0.996" d="
  M 191.71 175.73
  C 186.54 177.21 186.58 187.41 186.38 191.92
  A 0.20 0.20 0.0 0 0 186.58 192.13
  L 186.87 192.13
  A 0.41 0.40 -89.3 0 0 187.27 191.73
  Q 187.39 183.86 191.81 177.48
  Q 191.90 177.59 192.00 177.71
  Q 191.64 187.11 191.90 191.05
  Q 191.95 191.76 193.39 193.34
  L 188.22 192.91
  Q 187.21 192.93 186.47 192.56
  A 0.82 0.81 -75.0 0 1 186.02 191.77
  C 186.49 185.81 186.46 179.39 188.63 174.32
  A 0.65 0.64 -71.0 0 1 189.37 173.95
  Q 190.87 174.32 191.71 175.73
  Z"
/>
<path fill="#9ebfe9" fill-opacity="0.996" d="
  M 191.71 175.73
  Q 191.96 176.50 191.81 177.48
  Q 187.39 183.86 187.27 191.73
  A 0.41 0.40 -89.3 0 1 186.87 192.13
  L 186.58 192.13
  A 0.20 0.20 0.0 0 1 186.38 191.92
  C 186.58 187.41 186.54 177.21 191.71 175.73
  Z"
/>
<path fill="#79a6dd" d="
  M 89.55 191.92
  L 77.82 191.88
  L 78.24 179.73
  A 1.24 1.24 0.0 0 1 80.59 179.23
  Q 82.94 183.98 87.12 187.61
  Q 88.01 188.39 89.55 191.92
  Z"
/>
<path fill="#f7fafc" d="
  M 145.22 194.04
  Q 144.69 192.91 143.23 193.14
  A 0.24 0.24 0.0 0 0 143.13 193.58
  L 146.09 195.67
  Q 145.73 195.65 145.46 195.81
  L 140.95 195.45
  A 2.76 2.67 -49.4 0 0 140.00 195.54
  Q 130.48 198.30 120.32 196.84
  L 115.08 194.65
  A 0.26 0.26 0.0 0 1 115.07 194.18
  Q 121.81 191.02 124.89 190.67
  Q 132.74 189.78 143.70 192.70
  Q 145.16 193.09 145.22 194.04
  Z"
/>
<circle fill="#79a6dd" cx="143.25" cy="191.88" r="0.11"/>
<ellipse fill="#79a6dd" cx="0.00" cy="0.00" transform="translate(114.46,192.34) rotate(-10.9)" rx="0.38" ry="0.10"/>
<path fill="#4d4e54" d="
  M 170.96 192.17
  L 170.29 192.12
  L 170.96 192.17
  Z"
/>
<path fill="#4d4e54" d="
  M 175.71 192.47
  L 173.54 192.37
  L 175.71 192.47
  Z"
/>
<path fill="#595b5e" d="
  M 104.97 194.78
  L 125.93 198.55
  A 2.08 2.07 -86.8 0 1 127.64 200.47
  Q 128.62 218.15 127.73 236.50
  Q 127.65 238.17 128.71 238.86
  L 117.77 238.12
  Q 117.23 238.03 116.70 238.17
  L 92.86 235.90
  A 0.77 0.76 2.9 0 1 92.17 235.14
  L 91.99 192.29
  L 104.97 194.78
  Z"
/>
<path fill="#6f6a67" d="
  M 164.87 193.28
  L 164.85 196.54
  L 164.87 198.21
  L 164.88 198.79
  L 164.86 200.21
  Q 164.84 216.10 164.85 231.98
  C 164.85 233.74 165.25 235.91 162.92 236.15
  Q 159.75 236.48 156.72 236.70
  Q 156.14 228.43 156.07 220.08
  C 156.02 214.33 157.10 208.62 157.91 202.85
  Q 158.21 200.68 157.87 194.05
  L 164.87 193.28
  Z"
/>
<path fill="#999ca6" d="
  M 145.22 194.04
  L 153.12 194.71
  L 150.38 203.02
  Q 150.65 197.14 146.09 195.67
  L 143.13 193.58
  A 0.24 0.24 0.0 0 1 143.23 193.14
  Q 144.69 192.91 145.22 194.04
  Z"
/>
<ellipse fill="#79a6dd" cx="0.00" cy="0.00" transform="translate(151.19,194.19) rotate(-4.1)" rx="0.32" ry="0.07"/>
<path fill="#908d8e" d="
  M 157.87 194.05
  Q 158.21 200.68 157.91 202.85
  C 157.10 208.62 156.02 214.33 156.07 220.08
  Q 156.14 228.43 156.72 236.70
  L 147.51 237.65
  Q 146.71 220.29 150.38 203.02
  L 153.12 194.71
  L 157.87 194.05
  Z"
/>
<path fill="#999ca6" d="
  M 120.32 196.84
  Q 130.48 198.30 140.00 195.54
  A 2.76 2.67 -49.4 0 1 140.95 195.45
  L 145.46 195.81
  L 139.75 197.08
  A 1.89 1.85 15.6 0 0 138.84 197.58
  Q 135.91 200.49 135.68 203.70
  Q 134.75 217.01 133.19 226.11
  C 132.57 229.77 132.07 235.57 135.00 238.77
  L 133.21 238.87
  L 132.04 238.86
  L 128.71 238.86
  Q 127.65 238.17 127.73 236.50
  Q 128.62 218.15 127.64 200.47
  A 2.08 2.07 -86.8 0 0 125.93 198.55
  L 104.97 194.78
  L 120.32 196.84
  Z"
/>
<path fill="#bbbdc7" fill-opacity="0.996" d="
  M 150.38 203.02
  Q 146.71 220.29 147.51 237.65
  L 135.00 238.77
  C 132.07 235.57 132.57 229.77 133.19 226.11
  Q 134.75 217.01 135.68 203.70
  Q 135.91 200.49 138.84 197.58
  A 1.89 1.85 15.6 0 1 139.75 197.08
  L 145.46 195.81
  Q 145.73 195.65 146.09 195.67
  Q 150.65 197.14 150.38 203.02
  Z"
/>
<path fill="#4d4e54" d="
  M 164.87 198.21
  L 164.85 196.54
  L 164.87 198.21
  Z"
/>
<path fill="#4d4e54" d="
  M 164.88 198.79
  L 164.86 200.21
  L 164.88 198.79
  Z"
/>
<path fill="#4d4e54" d="
  M 117.77 238.12
  L 116.70 238.17
  Q 117.23 238.03 117.77 238.12
  Z"
/>
<path fill="#807d7f" d="
  M 133.21 238.87
  L 132.04 238.86
  L 133.21 238.87
  Z"
/>
</svg>

