<?xml version="1.0" encoding="UTF-8" standalone="no"?>
<!DOCTYPE svg PUBLIC "-//W3C//DTD SVG 1.1//EN" "http://www.w3.org/Graphics/SVG/1.1/DTD/svg11.dtd">
<svg xmlns="http://www.w3.org/2000/svg" version="1.1" viewBox="0.00 0.00 207.00 180.00">
<g stroke-width="2.00" fill="none" stroke-linecap="butt">
<path stroke="#346730" vector-effect="non-scaling-stroke" d="
  M 73.34 75.39
  C 77.06 75.34 80.98 77.83 82.15 81.58
  C 83.13 84.72 85.20 86.43 88.13 85.22
  Q 92.09 83.58 90.44 78.92
  Q 86.40 67.50 74.30 65.98
  Q 74.10 65.96 73.21 65.97
  Q 72.32 65.98 72.13 66.01
  Q 60.08 67.86 56.34 79.38
  Q 54.82 84.08 58.82 85.61
  C 61.78 86.74 63.81 84.98 64.71 81.81
  C 65.77 78.04 69.62 75.44 73.34 75.39"
/>
<path stroke="#346730" vector-effect="non-scaling-stroke" d="
  M 139.25 75.41
  C 142.98 75.48 146.83 78.10 147.88 81.89
  C 148.76 85.07 150.79 86.84 153.76 85.72
  Q 157.78 84.20 156.27 79.48
  Q 152.57 67.92 140.50 66.02
  Q 140.30 65.99 139.41 65.98
  Q 138.52 65.96 138.32 65.98
  Q 126.19 67.46 122.09 78.89
  Q 120.42 83.55 124.38 85.21
  C 127.31 86.43 129.40 84.73 130.40 81.58
  C 131.58 77.84 135.51 75.35 139.25 75.41"
/>
<path stroke="#346730" vector-effect="non-scaling-stroke" d="
  M 106.14 135.07
  C 120.21 135.09 131.96 128.15 138.07 115.34
  Q 140.90 109.41 140.46 103.90
  A 3.11 2.93 -60.6 0 0 140.22 102.93
  Q 138.36 98.73 134.16 99.69
  Q 119.32 103.09 106.18 103.08
  Q 93.04 103.06 78.21 99.62
  Q 74.01 98.65 72.14 102.85
  A 3.11 2.93 60.8 0 0 71.89 103.81
  Q 71.44 109.32 74.26 115.26
  C 80.33 128.08 92.06 135.05 106.14 135.07"
/>
</g>
<path fill="#58bf52" d="
  M 68.05 170.18
  Q 51.71 167.38 37.91 160.41
  C 26.76 154.76 18.55 144.94 18.01 132.00
  Q 17.71 124.66 19.27 116.24
  Q 24.74 86.69 26.62 79.03
  C 28.46 71.49 29.35 66.65 31.56 61.14
  Q 36.67 48.39 43.39 39.63
  Q 61.25 16.39 90.24 11.32
  Q 118.61 6.35 143.69 18.31
  Q 159.74 25.96 171.64 42.37
  Q 173.07 44.33 177.29 52.02
  Q 180.24 57.38 181.66 62.15
  Q 186.26 77.51 187.40 87.04
  Q 189.13 101.56 191.53 108.23
  A 9.04 8.92 -72.2 0 0 192.50 110.15
  C 201.83 123.96 200.94 142.46 187.73 153.48
  C 183.52 156.99 177.60 160.39 172.24 162.43
  C 139.77 174.81 102.19 176.02 68.05 170.18
  Z
  M 73.34 75.39
  C 77.06 75.34 80.98 77.83 82.15 81.58
  C 83.13 84.72 85.20 86.43 88.13 85.22
  Q 92.09 83.58 90.44 78.92
  Q 86.40 67.50 74.30 65.98
  Q 74.10 65.96 73.21 65.97
  Q 72.32 65.98 72.13 66.01
  Q 60.08 67.86 56.34 79.38
  Q 54.82 84.08 58.82 85.61
  C 61.78 86.74 63.81 84.98 64.71 81.81
  C 65.77 78.04 69.62 75.44 73.34 75.39
  Z
  M 139.25 75.41
  C 142.98 75.48 146.83 78.10 147.88 81.89
  C 148.76 85.07 150.79 86.84 153.76 85.72
  Q 157.78 84.20 156.27 79.48
  Q 152.57 67.92 140.50 66.02
  Q 140.30 65.99 139.41 65.98
  Q 138.52 65.96 138.32 65.98
  Q 126.19 67.46 122.09 78.89
  Q 120.42 83.55 124.38 85.21
  C 127.31 86.43 129.40 84.73 130.40 81.58
  C 131.58 77.84 135.51 75.35 139.25 75.41
  Z
  M 106.14 135.07
  C 120.21 135.09 131.96 128.15 138.07 115.34
  Q 140.90 109.41 140.46 103.90
  A 3.11 2.93 -60.6 0 0 140.22 102.93
  Q 138.36 98.73 134.16 99.69
  Q 119.32 103.09 106.18 103.08
  Q 93.04 103.06 78.21 99.62
  Q 74.01 98.65 72.14 102.85
  A 3.11 2.93 60.8 0 0 71.89 103.81
  Q 71.44 109.32 74.26 115.26
  C 80.33 128.08 92.06 135.05 106.14 135.07
  Z"
/>
<path fill="#0f0f0e" d="
  M 73.34 75.39
  C 69.62 75.44 65.77 78.04 64.71 81.81
  C 63.81 84.98 61.78 86.74 58.82 85.61
  Q 54.82 84.08 56.34 79.38
  Q 60.08 67.86 72.13 66.01
  Q 72.32 65.98 73.21 65.97
  Q 74.10 65.96 74.30 65.98
  Q 86.40 67.50 90.44 78.92
  Q 92.09 83.58 88.13 85.22
  C 85.20 86.43 83.13 84.72 82.15 81.58
  C 80.98 77.83 77.06 75.34 73.34 75.39
  Z"
/>
<path fill="#0f0f0e" d="
  M 139.41 65.98
  Q 140.30 65.99 140.50 66.02
  Q 152.57 67.92 156.27 79.48
  Q 157.78 84.20 153.76 85.72
  C 150.79 86.84 148.76 85.07 147.88 81.89
  C 146.83 78.10 142.98 75.48 139.25 75.41
  C 135.51 75.35 131.58 77.84 130.40 81.58
  C 129.40 84.73 127.31 86.43 124.38 85.21
  Q 120.42 83.55 122.09 78.89
  Q 126.19 67.46 138.32 65.98
  Q 138.52 65.96 139.41 65.98
  Z"
/>
<path fill="#0f0f0e" d="
  M 106.18 103.08
  Q 119.32 103.09 134.16 99.69
  Q 138.36 98.73 140.22 102.93
  A 3.11 2.93 -60.6 0 1 140.46 103.90
  Q 140.90 109.41 138.07 115.34
  C 131.96 128.15 120.21 135.09 106.14 135.07
  C 92.06 135.05 80.33 128.08 74.26 115.26
  Q 71.44 109.32 71.89 103.81
  A 3.11 2.93 60.8 0 1 72.14 102.85
  Q 74.01 98.65 78.21 99.62
  Q 93.04 103.06 106.18 103.08
  Z"
/>
</svg>
