<?xml version="1.0" encoding="UTF-8" standalone="no"?>
<!DOCTYPE svg PUBLIC "-//W3C//DTD SVG 1.1//EN" "http://www.w3.org/Graphics/SVG/1.1/DTD/svg11.dtd">
<svg xmlns="http://www.w3.org/2000/svg" version="1.1" viewBox="0.00 0.00 197.00 202.00">
<g stroke-width="2.00" fill="none" stroke-linecap="butt">
<path stroke="#181d28" vector-effect="non-scaling-stroke" d="
  M 138.49 30.19
  L 136.47 31.21"
/>
<path stroke="#0f1010" vector-effect="non-scaling-stroke" d="
  M 136.47 31.21
  Q 136.75 30.81 136.84 30.42
  A 0.46 0.45 7.1 0 0 136.40 29.87
  Q 129.65 29.84 124.15 30.98
  Q 97.77 36.49 76.27 52.82
  C 68.33 58.86 61.77 64.52 51.60 73.09
  C 43.57 79.86 36.80 84.53 27.00 87.52
  A 0.42 0.42 0.0 0 0 26.73 88.07
  Q 26.93 88.63 27.99 88.58"
/>
<path stroke="#181d28" vector-effect="non-scaling-stroke" d="
  M 27.99 88.58
  Q 26.19 88.94 25.14 88.31"
/>
<path stroke="#38558e" vector-effect="non-scaling-stroke" d="
  M 174.70 104.17
  Q 171.83 109.14 167.38 110.39
  A 0.87 0.86 -3.1 0 1 166.29 109.42
  Q 167.94 98.90 161.47 90.64
  A 2.42 2.42 0.0 0 0 160.41 89.86
  Q 149.81 85.94 143.89 76.34
  A 1.33 1.29 -12.5 0 0 142.88 75.72
  Q 132.12 74.83 124.56 67.11
  A 0.29 0.29 0.0 0 0 124.07 67.40
  Q 125.65 72.93 129.22 76.95
  A 0.98 0.98 0.0 0 1 128.51 78.58
  Q 109.16 78.85 95.80 65.97
  A 0.29 0.29 0.0 0 0 95.33 66.27
  Q 97.22 71.74 100.94 75.91
  A 0.63 0.63 0.0 0 1 100.40 76.95
  C 92.33 76.00 84.52 69.40 80.36 62.73
  A 0.29 0.28 36.0 0 0 79.84 62.81
  C 77.76 71.31 75.32 77.30 76.95 83.94
  A 0.79 0.78 6.2 0 1 75.84 84.83
  Q 71.59 82.74 69.53 77.70
  A 0.25 0.25 0.0 0 0 69.07 77.71
  Q 64.85 89.17 55.78 98.40
  A 1.57 1.56 -18.2 0 0 55.34 99.26
  Q 54.63 103.74 56.86 108.00
  A 0.81 0.81 0.0 0 1 56.23 109.18
  Q 53.49 109.48 50.84 107.93
  A 0.58 0.58 0.0 0 0 49.97 108.34
  Q 48.76 115.42 52.22 121.22
  A 0.77 0.77 0.0 0 1 51.56 122.39
  Q 46.20 122.39 42.16 118.30
  A 0.41 0.40 -54.4 0 0 41.50 118.41
  C 38.48 124.97 36.41 132.35 38.33 139.25
  A 0.94 0.94 0.0 0 1 36.93 140.30
  Q 33.33 138.06 31.35 134.35
  A 0.61 0.61 0.0 0 0 30.56 134.09
  Q 29.21 134.72 28.66 135.34"
/>
<path stroke="#0a0f1a" vector-effect="non-scaling-stroke" d="
  M 27.99 88.58
  C 34.65 88.79 39.45 85.09 45.31 81.11
  Q 49.18 78.48 53.81 74.42
  Q 63.68 65.78 69.64 60.90
  C 88.56 45.43 110.25 34.38 134.93 31.93
  Q 135.47 31.87 136.47 31.21"
/>
<path stroke="#874529" vector-effect="non-scaling-stroke" d="
  M 48.35 58.00
  A 5.48 5.48 0.0 0 0 42.87 52.52
  A 5.48 5.48 0.0 0 0 37.39 58.00
  A 5.48 5.48 0.0 0 0 42.87 63.48
  A 5.48 5.48 0.0 0 0 48.35 58.00"
/>
<path stroke="#2f4876" vector-effect="non-scaling-stroke" d="
  M 133.88 98.82
  Q 127.93 98.25 124.96 92.72
  Q 123.98 90.89 123.06 90.73
  C 121.00 90.37 119.39 92.36 120.25 94.36
  C 122.65 99.91 127.37 103.34 133.38 103.92
  C 139.40 104.50 144.69 102.05 148.11 97.07
  C 149.34 95.27 148.14 93.00 146.05 92.96
  Q 145.11 92.94 143.80 94.55
  Q 139.83 99.40 133.88 98.82"
/>
<path stroke="#2f4876" vector-effect="non-scaling-stroke" d="
  M 87.22 99.83
  Q 81.19 100.67 76.94 95.91
  Q 75.53 94.33 74.58 94.39
  C 72.45 94.52 71.33 96.88 72.66 98.66
  C 76.36 103.58 81.85 105.85 87.94 104.99
  C 94.04 104.14 98.69 100.44 100.89 94.70
  C 101.68 92.62 99.96 90.66 97.87 91.12
  Q 96.94 91.33 96.03 93.23
  Q 93.25 98.98 87.22 99.83"
/>
<path stroke="#6088d8" vector-effect="non-scaling-stroke" d="
  M 140.7200 116.5100
  A 9.52 7.06 -180.0 0 0 150.2400 123.5700
  A 9.52 7.06 -180.0 0 0 159.7600 116.5100
  A 9.52 7.06 -180.0 0 0 150.2400 109.4500
  A 9.52 7.06 -180.0 0 0 140.7200 116.5100"
/>
<path stroke="#6088d8" vector-effect="non-scaling-stroke" d="
  M 81.6388 117.7603
  A 9.53 7.00 -0.9 0 0 72.0000 110.9109
  A 9.53 7.00 -0.9 0 0 62.5812 118.0597
  A 9.53 7.00 -0.9 0 0 72.2200 124.9091
  A 9.53 7.00 -0.9 0 0 81.6388 117.7603"
/>
<path stroke="#2f4876" vector-effect="non-scaling-stroke" d="
  M 111.61 120.31
  Q 111.65 120.31 111.69 120.31
  A 0.25 0.09 -0.5 0 1 111.85 120.36
  C 117.88 127.48 127.54 123.35 127.65 114.46
  A 1.96 1.95 1.3 0 0 125.75 112.48
  L 125.68 112.47
  A 2.01 2.01 0.0 0 0 123.61 114.31
  C 123.26 118.35 120.03 121.54 116.14 118.69
  Q 114.54 117.52 113.58 114.34
  C 113.21 113.11 112.70 112.39 111.37 112.43
  C 110.04 112.47 109.57 113.22 109.27 114.47
  Q 108.51 117.71 106.99 118.97
  C 103.28 122.06 99.86 119.07 99.26 115.06
  A 2.01 2.01 0.0 0 0 97.08 113.35
  L 97.02 113.36
  A 1.96 1.95 -4.9 0 0 95.24 115.46
  C 95.90 124.32 105.79 127.85 111.37 120.37
  A 0.25 0.09 -3.0 0 1 111.53 120.31
  Q 111.57 120.31 111.61 120.31"
/>
<path stroke="#aac3f1" vector-effect="non-scaling-stroke" d="
  M 129.61 134.97
  Q 128.39 135.64 127.06 134.89"
/>
<path stroke="#8caff0" vector-effect="non-scaling-stroke" d="
  M 127.06 134.89
  C 127.34 130.42 123.55 128.51 125.54 123.94
  A 0.22 0.22 0.0 0 0 125.24 123.65
  Q 121.76 125.35 121.45 128.67
  Q 121.36 129.62 122.38 131.74
  Q 123.14 133.31 123.29 134.88"
/>
<path stroke="#aac3f1" vector-effect="non-scaling-stroke" d="
  M 123.29 134.88
  L 119.18 134.68
  A 0.73 0.71 -12.3 0 1 118.58 134.31
  Q 117.72 132.68 117.77 130.89
  A 0.27 0.26 61.9 0 0 117.28 130.74
  Q 115.95 132.87 117.47 134.45
  A 0.42 0.42 0.0 0 1 117.20 135.16
  C 112.18 135.59 98.51 137.40 99.42 144.82
  A 0.43 0.43 0.0 0 1 98.79 145.25
  Q 88.13 139.55 78.43 146.71
  A 0.35 0.35 0.0 0 0 78.77 147.31
  C 94.19 141.09 111.51 151.34 104.49 169.36
  A 0.62 0.60 -44.3 0 0 104.48 169.80
  L 104.63 170.24"
/>
<path stroke="#476fc0" vector-effect="non-scaling-stroke" d="
  M 104.63 170.24
  C 102.61 172.56 100.86 175.26 98.65 177.12
  Q 93.99 181.03 88.23 183.19
  A 0.25 0.25 0.0 0 0 88.36 183.67
  C 96.33 182.52 101.31 178.03 105.19 171.20"
/>
<path stroke="#aac3f1" vector-effect="non-scaling-stroke" d="
  M 105.19 171.20
  Q 110.34 176.66 118.36 177.60
  C 129.14 178.86 140.08 175.75 143.82 165.04
  Q 147.18 155.40 146.82 142.99
  A 2.29 2.25 31.6 0 0 146.58 142.02
  C 144.58 138.00 137.42 136.28 132.61 135.68"
/>
<path stroke="#8caff0" vector-effect="non-scaling-stroke" d="
  M 132.61 135.68
  Q 134.56 132.89 134.49 130.42
  C 134.41 127.39 131.42 126.15 132.68 122.41
  A 0.31 0.31 0.0 0 0 132.25 122.04
  Q 129.67 123.32 129.49 126.10
  Q 129.47 126.38 130.47 129.49
  Q 131.33 132.18 129.61 134.97"
/>
<path stroke="#d9e4f6" vector-effect="non-scaling-stroke" d="
  M 132.61 135.68
  L 129.61 134.97"
/>
<path stroke="#94a4c6" vector-effect="non-scaling-stroke" d="
  M 105.19 171.20
  L 104.63 170.24"
/>
<path stroke="#d9e4f6" vector-effect="non-scaling-stroke" d="
  M 127.06 134.89
  L 123.29 134.88"
/>
<path stroke="#a78e85" vector-effect="non-scaling-stroke" d="
  M 142.0499 144.4942
  A 18.86 4.67 -0.2 0 0 123.1737 139.8900
  A 18.86 4.67 -0.2 0 0 104.3301 144.6258
  A 18.86 4.67 -0.2 0 0 123.2063 149.2300
  A 18.86 4.67 -0.2 0 0 142.0499 144.4942"
/>
</g>
<path fill="#1d1e1e" d="
  M 138.49 30.19
  L 136.47 31.21
  Q 136.75 30.81 136.84 30.42
  A 0.46 0.45 7.1 0 0 136.40 29.87
  Q 129.65 29.84 124.15 30.98
  Q 97.77 36.49 76.27 52.82
  C 68.33 58.86 61.77 64.52 51.60 73.09
  C 43.57 79.86 36.80 84.53 27.00 87.52
  A 0.42 0.42 0.0 0 0 26.73 88.07
  Q 26.93 88.63 27.99 88.58
  Q 26.19 88.94 25.14 88.31
  C 13.53 84.91 16.36 71.04 20.52 62.72
  Q 29.07 45.60 45.15 34.13
  Q 51.09 29.90 51.84 29.58
  A 0.41 0.40 56.4 0 0 51.97 28.93
  Q 51.95 28.91 50.79 28.00
  C 47.27 25.24 47.99 20.83 51.30 18.60
  C 55.84 15.55 59.79 19.50 60.10 24.13
  A 0.43 0.43 0.0 0 0 60.73 24.49
  C 79.77 14.63 103.27 5.92 124.95 11.29
  C 133.39 13.38 142.08 20.27 138.49 30.19
  Z
  M 48.35 58.00
  A 5.48 5.48 0.0 0 0 42.87 52.52
  A 5.48 5.48 0.0 0 0 37.39 58.00
  A 5.48 5.48 0.0 0 0 42.87 63.48
  A 5.48 5.48 0.0 0 0 48.35 58.00
  Z"
/>
<path fill="#131c32" d="
  M 174.70 104.17
  Q 171.83 109.14 167.38 110.39
  A 0.87 0.86 -3.1 0 1 166.29 109.42
  Q 167.94 98.90 161.47 90.64
  A 2.42 2.42 0.0 0 0 160.41 89.86
  Q 149.81 85.94 143.89 76.34
  A 1.33 1.29 -12.5 0 0 142.88 75.72
  Q 132.12 74.83 124.56 67.11
  A 0.29 0.29 0.0 0 0 124.07 67.40
  Q 125.65 72.93 129.22 76.95
  A 0.98 0.98 0.0 0 1 128.51 78.58
  Q 109.16 78.85 95.80 65.97
  A 0.29 0.29 0.0 0 0 95.33 66.27
  Q 97.22 71.74 100.94 75.91
  A 0.63 0.63 0.0 0 1 100.40 76.95
  C 92.33 76.00 84.52 69.40 80.36 62.73
  A 0.29 0.28 36.0 0 0 79.84 62.81
  C 77.76 71.31 75.32 77.30 76.95 83.94
  A 0.79 0.78 6.2 0 1 75.84 84.83
  Q 71.59 82.74 69.53 77.70
  A 0.25 0.25 0.0 0 0 69.07 77.71
  Q 64.85 89.17 55.78 98.40
  A 1.57 1.56 -18.2 0 0 55.34 99.26
  Q 54.63 103.74 56.86 108.00
  A 0.81 0.81 0.0 0 1 56.23 109.18
  Q 53.49 109.48 50.84 107.93
  A 0.58 0.58 0.0 0 0 49.97 108.34
  Q 48.76 115.42 52.22 121.22
  A 0.77 0.77 0.0 0 1 51.56 122.39
  Q 46.20 122.39 42.16 118.30
  A 0.41 0.40 -54.4 0 0 41.50 118.41
  C 38.48 124.97 36.41 132.35 38.33 139.25
  A 0.94 0.94 0.0 0 1 36.93 140.30
  Q 33.33 138.06 31.35 134.35
  A 0.61 0.61 0.0 0 0 30.56 134.09
  Q 29.21 134.72 28.66 135.34
  Q 25.78 136.71 24.05 136.72
  A 0.82 0.82 0.0 0 1 23.28 135.60
  C 24.38 132.86 24.99 129.89 24.69 126.82
  Q 24.01 119.93 24.35 117.22
  A 0.39 0.39 0.0 0 0 23.68 116.90
  Q 21.99 118.70 21.34 121.14
  A 0.82 0.82 0.0 0 1 19.77 121.20
  Q 16.44 111.52 21.73 102.19
  A 0.43 0.43 0.0 0 0 21.31 101.55
  Q 15.98 102.09 12.34 99.45
  A 1.06 1.06 0.0 0 1 12.75 97.56
  Q 21.02 95.87 25.14 88.31
  Q 26.19 88.94 27.99 88.58
  C 34.65 88.79 39.45 85.09 45.31 81.11
  Q 49.18 78.48 53.81 74.42
  Q 63.68 65.78 69.64 60.90
  C 88.56 45.43 110.25 34.38 134.93 31.93
  Q 135.47 31.87 136.47 31.21
  L 138.49 30.19
  C 144.70 30.88 148.67 29.50 154.03 28.80
  A 1.47 1.47 0.0 0 1 155.64 30.63
  Q 154.53 34.82 150.51 36.68
  A 0.34 0.33 44.3 0 0 150.52 37.29
  C 157.53 40.41 162.52 45.85 168.01 50.95
  Q 171.50 54.19 176.06 55.28
  A 0.96 0.96 0.0 0 1 176.68 56.66
  C 175.59 58.72 171.35 59.27 169.22 59.29
  A 0.35 0.35 0.0 0 0 168.96 59.88
  L 172.04 63.31
  A 3.29 2.74 70.2 0 1 172.32 63.67
  C 177.13 70.73 179.89 74.69 186.95 76.95
  A 1.26 1.25 32.9 0 1 187.41 79.08
  Q 184.19 81.95 178.89 81.83
  A 0.38 0.37 75.4 0 0 178.56 82.40
  C 182.28 88.62 184.28 98.84 180.37 105.52
  A 0.89 0.88 -44.9 0 1 178.84 105.52
  L 176.47 101.41
  A 0.43 0.43 0.0 0 0 175.70 101.48
  L 174.70 104.17
  Z"
/>
<path fill="#010101" d="
  M 136.47 31.21
  Q 135.47 31.87 134.93 31.93
  C 110.25 34.38 88.56 45.43 69.64 60.90
  Q 63.68 65.78 53.81 74.42
  Q 49.18 78.48 45.31 81.11
  C 39.45 85.09 34.65 88.79 27.99 88.58
  Q 26.93 88.63 26.73 88.07
  A 0.42 0.42 0.0 0 1 27.00 87.52
  C 36.80 84.53 43.57 79.86 51.60 73.09
  C 61.77 64.52 68.33 58.86 76.27 52.82
  Q 97.77 36.49 124.15 30.98
  Q 129.65 29.84 136.40 29.87
  A 0.46 0.45 7.1 0 1 136.84 30.42
  Q 136.75 30.81 136.47 31.21
  Z"
/>
<circle fill="#f16b33" cx="42.87" cy="58.00" r="5.48"/>
<path fill="#5c8eea" d="
  M 174.70 104.17
  C 186.33 128.82 199.18 169.86 165.64 184.89
  Q 159.45 187.67 152.02 189.28
  C 134.72 193.03 115.79 193.42 95.92 193.15
  Q 80.52 192.94 65.77 190.96
  C 44.69 188.12 22.01 178.12 25.15 152.01
  Q 26.14 143.79 28.66 135.34
  Q 29.21 134.72 30.56 134.09
  A 0.61 0.61 0.0 0 1 31.35 134.35
  Q 33.33 138.06 36.93 140.30
  A 0.94 0.94 0.0 0 0 38.33 139.25
  C 36.41 132.35 38.48 124.97 41.50 118.41
  A 0.41 0.40 -54.4 0 1 42.16 118.30
  Q 46.20 122.39 51.56 122.39
  A 0.77 0.77 0.0 0 0 52.22 121.22
  Q 48.76 115.42 49.97 108.34
  A 0.58 0.58 0.0 0 1 50.84 107.93
  Q 53.49 109.48 56.23 109.18
  A 0.81 0.81 0.0 0 0 56.86 108.00
  Q 54.63 103.74 55.34 99.26
  A 1.57 1.56 -18.2 0 1 55.78 98.40
  Q 64.85 89.17 69.07 77.71
  A 0.25 0.25 0.0 0 1 69.53 77.70
  Q 71.59 82.74 75.84 84.83
  A 0.79 0.78 6.2 0 0 76.95 83.94
  C 75.32 77.30 77.76 71.31 79.84 62.81
  A 0.29 0.28 36.0 0 1 80.36 62.73
  C 84.52 69.40 92.33 76.00 100.40 76.95
  A 0.63 0.63 0.0 0 0 100.94 75.91
  Q 97.22 71.74 95.33 66.27
  A 0.29 0.29 0.0 0 1 95.80 65.97
  Q 109.16 78.85 128.51 78.58
  A 0.98 0.98 0.0 0 0 129.22 76.95
  Q 125.65 72.93 124.07 67.40
  A 0.29 0.29 0.0 0 1 124.56 67.11
  Q 132.12 74.83 142.88 75.72
  A 1.33 1.29 -12.5 0 1 143.89 76.34
  Q 149.81 85.94 160.41 89.86
  A 2.42 2.42 0.0 0 1 161.47 90.64
  Q 167.94 98.90 166.29 109.42
  A 0.87 0.86 -3.1 0 0 167.38 110.39
  Q 171.83 109.14 174.70 104.17
  Z
  M 133.88 98.82
  Q 127.93 98.25 124.96 92.72
  Q 123.98 90.89 123.06 90.73
  C 121.00 90.37 119.39 92.36 120.25 94.36
  C 122.65 99.91 127.37 103.34 133.38 103.92
  C 139.40 104.50 144.69 102.05 148.11 97.07
  C 149.34 95.27 148.14 93.00 146.05 92.96
  Q 145.11 92.94 143.80 94.55
  Q 139.83 99.40 133.88 98.82
  Z
  M 87.22 99.83
  Q 81.19 100.67 76.94 95.91
  Q 75.53 94.33 74.58 94.39
  C 72.45 94.52 71.33 96.88 72.66 98.66
  C 76.36 103.58 81.85 105.85 87.94 104.99
  C 94.04 104.14 98.69 100.44 100.89 94.70
  C 101.68 92.62 99.96 90.66 97.87 91.12
  Q 96.94 91.33 96.03 93.23
  Q 93.25 98.98 87.22 99.83
  Z
  M 140.7200 116.5100
  A 9.52 7.06 -180.0 0 0 150.2400 123.5700
  A 9.52 7.06 -180.0 0 0 159.7600 116.5100
  A 9.52 7.06 -180.0 0 0 150.2400 109.4500
  A 9.52 7.06 -180.0 0 0 140.7200 116.5100
  Z
  M 81.6388 117.7603
  A 9.53 7.00 -0.9 0 0 72.0000 110.9109
  A 9.53 7.00 -0.9 0 0 62.5812 118.0597
  A 9.53 7.00 -0.9 0 0 72.2200 124.9091
  A 9.53 7.00 -0.9 0 0 81.6388 117.7603
  Z
  M 111.61 120.31
  Q 111.65 120.31 111.69 120.31
  A 0.25 0.09 -0.5 0 1 111.85 120.36
  C 117.88 127.48 127.54 123.35 127.65 114.46
  A 1.96 1.95 1.3 0 0 125.75 112.48
  L 125.68 112.47
  A 2.01 2.01 0.0 0 0 123.61 114.31
  C 123.26 118.35 120.03 121.54 116.14 118.69
  Q 114.54 117.52 113.58 114.34
  C 113.21 113.11 112.70 112.39 111.37 112.43
  C 110.04 112.47 109.57 113.22 109.27 114.47
  Q 108.51 117.71 106.99 118.97
  C 103.28 122.06 99.86 119.07 99.26 115.06
  A 2.01 2.01 0.0 0 0 97.08 113.35
  L 97.02 113.36
  A 1.96 1.95 -4.9 0 0 95.24 115.46
  C 95.90 124.32 105.79 127.85 111.37 120.37
  A 0.25 0.09 -3.0 0 1 111.53 120.31
  Q 111.57 120.31 111.61 120.31
  Z
  M 129.61 134.97
  Q 128.39 135.64 127.06 134.89
  C 127.34 130.42 123.55 128.51 125.54 123.94
  A 0.22 0.22 0.0 0 0 125.24 123.65
  Q 121.76 125.35 121.45 128.67
  Q 121.36 129.62 122.38 131.74
  Q 123.14 133.31 123.29 134.88
  L 119.18 134.68
  A 0.73 0.71 -12.3 0 1 118.58 134.31
  Q 117.72 132.68 117.77 130.89
  A 0.27 0.26 61.9 0 0 117.28 130.74
  Q 115.95 132.87 117.47 134.45
  A 0.42 0.42 0.0 0 1 117.20 135.16
  C 112.18 135.59 98.51 137.40 99.42 144.82
  A 0.43 0.43 0.0 0 1 98.79 145.25
  Q 88.13 139.55 78.43 146.71
  A 0.35 0.35 0.0 0 0 78.77 147.31
  C 94.19 141.09 111.51 151.34 104.49 169.36
  A 0.62 0.60 -44.3 0 0 104.48 169.80
  L 104.63 170.24
  C 102.61 172.56 100.86 175.26 98.65 177.12
  Q 93.99 181.03 88.23 183.19
  A 0.25 0.25 0.0 0 0 88.36 183.67
  C 96.33 182.52 101.31 178.03 105.19 171.20
  Q 110.34 176.66 118.36 177.60
  C 129.14 178.86 140.08 175.75 143.82 165.04
  Q 147.18 155.40 146.82 142.99
  A 2.29 2.25 31.6 0 0 146.58 142.02
  C 144.58 138.00 137.42 136.28 132.61 135.68
  Q 134.56 132.89 134.49 130.42
  C 134.41 127.39 131.42 126.15 132.68 122.41
  A 0.31 0.31 0.0 0 0 132.25 122.04
  Q 129.67 123.32 129.49 126.10
  Q 129.47 126.38 130.47 129.49
  Q 131.33 132.18 129.61 134.97
  Z"
/>
<path fill="#010101" d="
  M 133.88 98.82
  Q 139.83 99.40 143.80 94.55
  Q 145.11 92.94 146.05 92.96
  C 148.14 93.00 149.34 95.27 148.11 97.07
  C 144.69 102.05 139.40 104.50 133.38 103.92
  C 127.37 103.34 122.65 99.91 120.25 94.36
  C 119.39 92.36 121.00 90.37 123.06 90.73
  Q 123.98 90.89 124.96 92.72
  Q 127.93 98.25 133.88 98.82
  Z"
/>
<path fill="#010101" d="
  M 87.94 104.99
  C 81.85 105.85 76.36 103.58 72.66 98.66
  C 71.33 96.88 72.45 94.52 74.58 94.39
  Q 75.53 94.33 76.94 95.91
  Q 81.19 100.67 87.22 99.83
  Q 93.25 98.98 96.03 93.23
  Q 96.94 91.33 97.87 91.12
  C 99.96 90.66 101.68 92.62 100.89 94.70
  C 98.69 100.44 94.04 104.14 87.94 104.99
  Z"
/>
<ellipse fill="#6382c5" cx="0.00" cy="0.00" transform="translate(150.24,116.51) rotate(-180.0)" rx="9.52" ry="7.06"/>
<ellipse fill="#6382c5" cx="0.00" cy="0.00" transform="translate(72.11,117.91) rotate(-0.9)" rx="9.53" ry="7.00"/>
<path fill="#010101" d="
  M 111.37 112.43
  C 112.70 112.39 113.21 113.11 113.58 114.34
  Q 114.54 117.52 116.14 118.69
  C 120.03 121.54 123.26 118.35 123.61 114.31
  A 2.01 2.01 0.0 0 1 125.68 112.47
  L 125.75 112.48
  A 1.96 1.95 1.3 0 1 127.65 114.46
  C 127.54 123.35 117.88 127.48 111.85 120.36
  A 0.25 0.09 -0.5 0 0 111.69 120.31
  Q 111.65 120.31 111.61 120.31
  Q 111.57 120.31 111.53 120.31
  A 0.25 0.09 -3.0 0 0 111.37 120.37
  C 105.79 127.85 95.90 124.32 95.24 115.46
  A 1.96 1.95 -4.9 0 1 97.02 113.36
  L 97.08 113.35
  A 2.01 2.01 0.0 0 1 99.26 115.06
  C 99.86 119.07 103.28 122.06 106.99 118.97
  Q 108.51 117.71 109.27 114.47
  C 109.57 113.22 110.04 112.47 111.37 112.43
  Z"
/>
<path fill="#bbd0f5" d="
  M 132.61 135.68
  L 129.61 134.97
  Q 131.33 132.18 130.47 129.49
  Q 129.47 126.38 129.49 126.10
  Q 129.67 123.32 132.25 122.04
  A 0.31 0.31 0.0 0 1 132.68 122.41
  C 131.42 126.15 134.41 127.39 134.49 130.42
  Q 134.56 132.89 132.61 135.68
  Z"
/>
<path fill="#bbd0f5" d="
  M 127.06 134.89
  L 123.29 134.88
  Q 123.14 133.31 122.38 131.74
  Q 121.36 129.62 121.45 128.67
  Q 121.76 125.35 125.24 123.65
  A 0.22 0.22 0.0 0 1 125.54 123.94
  C 123.55 128.51 127.34 130.42 127.06 134.89
  Z"
/>
<path fill="#f7f7f7" d="
  M 123.29 134.88
  L 127.06 134.89
  Q 128.39 135.64 129.61 134.97
  L 132.61 135.68
  C 137.42 136.28 144.58 138.00 146.58 142.02
  A 2.29 2.25 31.6 0 1 146.82 142.99
  Q 147.18 155.40 143.82 165.04
  C 140.08 175.75 129.14 178.86 118.36 177.60
  Q 110.34 176.66 105.19 171.20
  L 104.63 170.24
  L 104.48 169.80
  A 0.62 0.60 -44.3 0 1 104.49 169.36
  C 111.51 151.34 94.19 141.09 78.77 147.31
  A 0.35 0.35 0.0 0 1 78.43 146.71
  Q 88.13 139.55 98.79 145.25
  A 0.43 0.43 0.0 0 0 99.42 144.82
  C 98.51 137.40 112.18 135.59 117.20 135.16
  A 0.42 0.42 0.0 0 0 117.47 134.45
  Q 115.95 132.87 117.28 130.74
  A 0.27 0.26 61.9 0 1 117.77 130.89
  Q 117.72 132.68 118.58 134.31
  A 0.73 0.71 -12.3 0 0 119.18 134.68
  L 123.29 134.88
  Z
  M 142.0499 144.4942
  A 18.86 4.67 -0.2 0 0 123.1737 139.8900
  A 18.86 4.67 -0.2 0 0 104.3301 144.6258
  A 18.86 4.67 -0.2 0 0 123.2063 149.2300
  A 18.86 4.67 -0.2 0 0 142.0499 144.4942
  Z"
/>
<ellipse fill="#562412" cx="0.00" cy="0.00" transform="translate(123.19,144.56) rotate(-0.2)" rx="18.86" ry="4.67"/>
<path fill="#315095" d="
  M 104.63 170.24
  L 105.19 171.20
  C 101.31 178.03 96.33 182.52 88.36 183.67
  A 0.25 0.25 0.0 0 1 88.23 183.19
  Q 93.99 181.03 98.65 177.12
  C 100.86 175.26 102.61 172.56 104.63 170.24
  Z"
/>
</svg>
