<?xml version="1.0" encoding="UTF-8" standalone="no"?>
<!DOCTYPE svg PUBLIC "-//W3C//DTD SVG 1.1//EN" "http://www.w3.org/Graphics/SVG/1.1/DTD/svg11.dtd">
<svg xmlns="http://www.w3.org/2000/svg" version="1.1" viewBox="0.00 0.00 195.00 191.00">
<g stroke-width="2.00" fill="none" stroke-linecap="butt">
<path stroke="#fb9a14" vector-effect="non-scaling-stroke" d="
  M 30.58 86.34
  L 32.78 80.65"
/>
<path stroke="#855f10" vector-effect="non-scaling-stroke" d="
  M 76.7921 74.9936
  A 13.16 10.98 -76.5 0 0 63.0434 85.2268
  A 13.16 10.98 -76.5 0 0 70.6479 100.5864
  A 13.16 10.98 -76.5 0 0 84.3966 90.3532
  A 13.16 10.98 -76.5 0 0 76.7921 74.9936"
/>
<path stroke="#855f10" vector-effect="non-scaling-stroke" d="
  M 132.7726 82.0793
  A 12.99 10.92 -79.7 0 0 119.7060 92.9075
  A 12.99 10.92 -79.7 0 0 128.1274 107.6407
  A 12.99 10.92 -79.7 0 0 141.1940 96.8125
  A 12.99 10.92 -79.7 0 0 132.7726 82.0793"
/>
<path stroke="#855f10" vector-effect="non-scaling-stroke" d="
  M 99.5539 110.9320
  A 21.29 15.54 -80.5 0 0 80.7131 129.3652
  A 21.29 15.54 -80.5 0 0 92.5261 152.9280
  A 21.29 15.54 -80.5 0 0 111.3669 134.4948
  A 21.29 15.54 -80.5 0 0 99.5539 110.9320"
/>
</g>
<path fill="#fa8315" d="
  M 21.04 65.34
  C 16.49 65.67 13.17 64.37 10.43 60.86
  Q 9.30 59.42 8.43 55.04
  Q 3.96 32.67 2.95 22.81
  C 2.01 13.62 7.73 7.59 16.75 6.93
  C 25.76 6.27 32.30 11.40 32.72 20.63
  Q 33.16 30.53 32.00 53.31
  Q 31.78 57.77 30.88 59.35
  C 28.68 63.23 25.59 65.01 21.04 65.34
  Z"
/>
<path fill="#fcb113" d="
  M 30.58 86.34
  L 32.78 80.65
  Q 38.30 61.62 51.40 47.16
  Q 59.39 38.35 70.05 32.56
  Q 71.17 31.95 78.15 29.10
  C 94.56 22.39 112.89 23.47 129.43 28.88
  Q 133.73 30.29 137.24 32.25
  C 139.67 33.62 144.06 35.61 147.11 37.84
  Q 165.81 51.49 173.26 73.99
  Q 177.60 87.10 177.51 100.02
  Q 177.45 107.24 175.97 119.49
  Q 174.53 131.36 181.63 141.85
  C 183.09 144.00 183.90 147.63 183.73 150.55
  C 182.77 167.29 167.95 175.03 153.60 178.57
  C 132.95 183.68 111.41 184.32 90.52 182.76
  Q 69.55 181.19 48.83 175.21
  Q 45.72 174.32 36.72 170.27
  C 30.08 167.29 21.32 160.78 18.13 153.94
  Q 13.62 144.29 15.60 133.65
  Q 17.30 124.53 20.03 115.80
  Q 22.27 108.61 26.79 96.42
  Q 28.59 91.59 30.58 86.34
  Z
  M 76.7921 74.9936
  A 13.16 10.98 -76.5 0 0 63.0434 85.2268
  A 13.16 10.98 -76.5 0 0 70.6479 100.5864
  A 13.16 10.98 -76.5 0 0 84.3966 90.3532
  A 13.16 10.98 -76.5 0 0 76.7921 74.9936
  Z
  M 132.7726 82.0793
  A 12.99 10.92 -79.7 0 0 119.7060 92.9075
  A 12.99 10.92 -79.7 0 0 128.1274 107.6407
  A 12.99 10.92 -79.7 0 0 141.1940 96.8125
  A 12.99 10.92 -79.7 0 0 132.7726 82.0793
  Z
  M 99.5539 110.9320
  A 21.29 15.54 -80.5 0 0 80.7131 129.3652
  A 21.29 15.54 -80.5 0 0 92.5261 152.9280
  A 21.29 15.54 -80.5 0 0 111.3669 134.4948
  A 21.29 15.54 -80.5 0 0 99.5539 110.9320
  Z"
/>
<path fill="#fa8315" d="
  M 32.78 80.65
  L 30.58 86.34
  Q 24.43 92.08 17.72 89.05
  C 12.79 86.82 10.96 81.07 12.82 76.00
  C 15.67 68.21 26.62 66.94 30.97 74.39
  Q 31.40 75.13 31.90 77.50
  Q 32.22 79.02 32.78 80.65
  Z"
/>
<ellipse fill="#0d0d0d" cx="0.00" cy="0.00" transform="translate(73.72,87.79) rotate(-76.5)" rx="13.16" ry="10.98"/>
<ellipse fill="#0d0d0d" cx="0.00" cy="0.00" transform="translate(130.45,94.86) rotate(-79.7)" rx="12.99" ry="10.92"/>
<ellipse fill="#0d0d0d" cx="0.00" cy="0.00" transform="translate(96.04,131.93) rotate(-80.5)" rx="21.29" ry="15.54"/>
</svg>
