<?xml version="1.0" encoding="UTF-8" standalone="no"?>
<!DOCTYPE svg PUBLIC "-//W3C//DTD SVG 1.1//EN" "http://www.w3.org/Graphics/SVG/1.1/DTD/svg11.dtd">
<svg xmlns="http://www.w3.org/2000/svg" version="1.1" viewBox="0.00 0.00 197.00 181.00">
<g stroke-width="2.00" fill="none" stroke-linecap="butt">
<path stroke="#822424" vector-effect="non-scaling-stroke" d="
  M 129.71 74.23
  L 137.77 68.89
  A 4.59 4.58 57.5 0 0 139.14 62.67
  L 138.98 62.41
  A 4.22 4.22 0.0 0 0 133.02 61.02
  Q 124.99 66.29 113.11 74.19
  Q 109.90 76.32 109.49 77.40
  C 108.34 80.43 110.74 84.26 114.34 83.74
  A 0.71 0.71 0.0 0 1 115.15 84.55
  C 114.08 91.68 117.68 100.33 125.89 100.81
  C 140.47 101.66 141.63 80.24 129.80 75.25
  A 0.58 0.58 0.0 0 1 129.71 74.23"
/>
<path stroke="#822424" vector-effect="non-scaling-stroke" d="
  M 63.88 80.36
  A 0.59 0.58 39.1 0 1 63.99 81.39
  C 53.28 88.62 58.60 109.55 72.84 105.87
  C 80.85 103.80 82.72 94.55 80.28 87.72
  A 0.72 0.71 -11.4 0 1 80.92 86.76
  C 84.58 86.57 86.20 82.32 84.47 79.55
  Q 83.86 78.56 80.27 77.09
  Q 67.00 71.60 58.04 67.96
  A 4.25 4.25 0.0 0 0 52.42 70.49
  L 52.32 70.78
  A 4.62 4.61 -68.7 0 0 54.88 76.66
  L 63.88 80.36"
/>
<path stroke="#822424" vector-effect="non-scaling-stroke" d="
  M 99.50 112.07
  C 87.02 113.26 74.59 120.45 69.28 132.29
  A 4.04 4.04 0.0 0 0 71.29 137.62
  L 71.52 137.72
  A 4.57 4.56 27.8 0 0 77.31 135.93
  C 82.43 127.48 90.76 122.68 100.42 121.76
  C 110.09 120.83 119.17 123.96 125.81 131.29
  A 4.57 4.56 -38.7 0 0 131.83 131.95
  L 132.04 131.81
  A 4.04 4.04 0.0 0 0 133.00 126.19
  C 125.54 115.57 111.97 110.87 99.50 112.07"
/>
</g>
<path fill="#f53939" d="
  M 26.75 163.25
  C 2.80 149.02 12.45 120.98 14.50 98.66
  Q 15.34 89.57 16.54 80.52
  C 20.08 53.91 35.42 28.00 60.63 16.66
  C 90.63 3.16 126.82 7.59 149.86 31.93
  Q 159.32 41.92 166.05 56.43
  Q 168.32 61.32 172.69 75.93
  Q 176.74 89.48 182.48 101.91
  C 189.88 117.93 190.42 134.60 177.06 147.13
  Q 171.08 152.73 163.67 156.42
  Q 148.15 164.14 130.98 167.97
  Q 94.93 175.99 58.74 172.60
  C 47.29 171.53 36.43 169.00 26.75 163.25
  Z
  M 129.71 74.23
  L 137.77 68.89
  A 4.59 4.58 57.5 0 0 139.14 62.67
  L 138.98 62.41
  A 4.22 4.22 0.0 0 0 133.02 61.02
  Q 124.99 66.29 113.11 74.19
  Q 109.90 76.32 109.49 77.40
  C 108.34 80.43 110.74 84.26 114.34 83.74
  A 0.71 0.71 0.0 0 1 115.15 84.55
  C 114.08 91.68 117.68 100.33 125.89 100.81
  C 140.47 101.66 141.63 80.24 129.80 75.25
  A 0.58 0.58 0.0 0 1 129.71 74.23
  Z
  M 63.88 80.36
  A 0.59 0.58 39.1 0 1 63.99 81.39
  C 53.28 88.62 58.60 109.55 72.84 105.87
  C 80.85 103.80 82.72 94.55 80.28 87.72
  A 0.72 0.71 -11.4 0 1 80.92 86.76
  C 84.58 86.57 86.20 82.32 84.47 79.55
  Q 83.86 78.56 80.27 77.09
  Q 67.00 71.60 58.04 67.96
  A 4.25 4.25 0.0 0 0 52.42 70.49
  L 52.32 70.78
  A 4.62 4.61 -68.7 0 0 54.88 76.66
  L 63.88 80.36
  Z
  M 99.50 112.07
  C 87.02 113.26 74.59 120.45 69.28 132.29
  A 4.04 4.04 0.0 0 0 71.29 137.62
  L 71.52 137.72
  A 4.57 4.56 27.8 0 0 77.31 135.93
  C 82.43 127.48 90.76 122.68 100.42 121.76
  C 110.09 120.83 119.17 123.96 125.81 131.29
  A 4.57 4.56 -38.7 0 0 131.83 131.95
  L 132.04 131.81
  A 4.04 4.04 0.0 0 0 133.00 126.19
  C 125.54 115.57 111.97 110.87 99.50 112.07
  Z"
/>
<path fill="#0f0e0e" d="
  M 129.71 74.23
  A 0.58 0.58 0.0 0 0 129.80 75.25
  C 141.63 80.24 140.47 101.66 125.89 100.81
  C 117.68 100.33 114.08 91.68 115.15 84.55
  A 0.71 0.71 0.0 0 0 114.34 83.74
  C 110.74 84.26 108.34 80.43 109.49 77.40
  Q 109.90 76.32 113.11 74.19
  Q 124.99 66.29 133.02 61.02
  A 4.22 4.22 0.0 0 1 138.98 62.41
  L 139.14 62.67
  A 4.59 4.58 57.5 0 1 137.77 68.89
  L 129.71 74.23
  Z"
/>
<path fill="#0f0e0e" d="
  M 63.88 80.36
  L 54.88 76.66
  A 4.62 4.61 -68.7 0 1 52.32 70.78
  L 52.42 70.49
  A 4.25 4.25 0.0 0 1 58.04 67.96
  Q 67.00 71.60 80.27 77.09
  Q 83.86 78.56 84.47 79.55
  C 86.20 82.32 84.58 86.57 80.92 86.76
  A 0.72 0.71 -11.4 0 0 80.28 87.72
  C 82.72 94.55 80.85 103.80 72.84 105.87
  C 58.60 109.55 53.28 88.62 63.99 81.39
  A 0.59 0.58 39.1 0 0 63.88 80.36
  Z"
/>
<path fill="#0f0e0e" d="
  M 100.42 121.76
  C 90.76 122.68 82.43 127.48 77.31 135.93
  A 4.57 4.56 27.8 0 1 71.52 137.72
  L 71.29 137.62
  A 4.04 4.04 0.0 0 1 69.28 132.29
  C 74.59 120.45 87.02 113.26 99.50 112.07
  C 111.97 110.87 125.54 115.57 133.00 126.19
  A 4.04 4.04 0.0 0 1 132.04 131.81
  L 131.83 131.95
  A 4.57 4.56 -38.7 0 1 125.81 131.29
  C 119.17 123.96 110.09 120.83 100.42 121.76
  Z"
/>
</svg>
