<?xml version="1.0" encoding="UTF-8" standalone="no"?>
<!DOCTYPE svg PUBLIC "-//W3C//DTD SVG 1.1//EN" "http://www.w3.org/Graphics/SVG/1.1/DTD/svg11.dtd">
<svg xmlns="http://www.w3.org/2000/svg" version="1.1" viewBox="0.00 0.00 180.00 185.00">
<g stroke-width="2.00" fill="none" stroke-linecap="butt">
<path stroke="#856c12" vector-effect="non-scaling-stroke" d="
  M 72.7860 86.2899
  A 12.65 10.61 -76.3 0 0 59.4819 96.0671
  A 12.65 10.61 -76.3 0 0 66.7940 110.8701
  A 12.65 10.61 -76.3 0 0 80.0981 101.0929
  A 12.65 10.61 -76.3 0 0 72.7860 86.2899"
/>
<path stroke="#856c12" vector-effect="non-scaling-stroke" d="
  M 126.1070 93.3841
  A 12.59 10.63 -78.7 0 0 113.2161 103.6471
  A 12.59 10.63 -78.7 0 0 121.1730 118.0759
  A 12.59 10.63 -78.7 0 0 134.0639 107.8129
  A 12.59 10.63 -78.7 0 0 126.1070 93.3841"
/>
<path stroke="#856c12" vector-effect="non-scaling-stroke" d="
  M 90.68 141.88
  Q 95.51 143.04 98.85 146.85
  C 100.84 149.10 104.83 148.89 106.29 146.03
  C 108.35 141.96 105.01 137.29 101.75 135.00
  Q 97.67 132.13 93.29 131.07
  Q 88.91 130.01 83.98 130.70
  C 80.03 131.25 74.92 133.88 74.89 138.44
  C 74.89 141.65 78.34 143.66 81.14 142.56
  Q 85.85 140.71 90.68 141.88"
/>
</g>
<path fill="#faca15" d="
  M 26.55 59.28
  C 22.49 59.23 19.28 58.17 19.26 53.80
  C 19.22 43.69 21.15 40.63 29.41 34.95
  C 33.01 32.47 34.24 26.72 30.72 23.74
  C 28.03 21.45 23.73 21.84 21.39 24.72
  Q 20.47 25.85 20.32 29.06
  C 19.93 37.71 6.54 38.32 5.23 29.21
  Q 4.19 22.02 8.65 15.54
  C 14.71 6.73 27.06 4.23 36.67 7.98
  Q 48.50 12.60 49.82 24.80
  C 50.90 34.75 45.24 41.77 37.26 46.75
  Q 36.00 47.53 34.63 49.57
  A 2.50 2.35 -26.1 0 0 34.23 50.63
  L 33.77 54.56
  A 3.20 2.96 63.3 0 1 33.49 55.54
  Q 31.67 59.33 26.55 59.28
  Z"
/>
<path fill="#faca15" d="
  M 38.46 74.17
  Q 39.06 73.05 42.28 68.27
  C 60.14 41.76 91.90 32.84 121.81 41.97
  C 143.61 48.62 159.57 65.25 166.59 86.93
  C 170.43 98.80 170.67 111.72 170.22 124.00
  C 170.08 127.68 170.70 130.90 172.27 134.47
  C 175.56 141.94 177.25 147.91 174.69 156.14
  Q 172.08 164.56 164.58 169.32
  Q 159.08 172.80 153.18 174.71
  Q 133.29 181.13 112.76 182.16
  Q 86.31 183.48 59.28 178.24
  Q 56.78 177.76 46.14 174.85
  C 34.88 171.77 18.95 164.17 16.54 150.74
  C 15.08 142.65 17.08 133.57 19.61 125.88
  Q 24.57 110.77 28.28 98.58
  Q 30.79 90.32 32.64 86.08
  Q 35.13 80.36 38.46 74.17
  Z
  M 72.7860 86.2899
  A 12.65 10.61 -76.3 0 0 59.4819 96.0671
  A 12.65 10.61 -76.3 0 0 66.7940 110.8701
  A 12.65 10.61 -76.3 0 0 80.0981 101.0929
  A 12.65 10.61 -76.3 0 0 72.7860 86.2899
  Z
  M 126.1070 93.3841
  A 12.59 10.63 -78.7 0 0 113.2161 103.6471
  A 12.59 10.63 -78.7 0 0 121.1730 118.0759
  A 12.59 10.63 -78.7 0 0 134.0639 107.8129
  A 12.59 10.63 -78.7 0 0 126.1070 93.3841
  Z
  M 90.68 141.88
  Q 95.51 143.04 98.85 146.85
  C 100.84 149.10 104.83 148.89 106.29 146.03
  C 108.35 141.96 105.01 137.29 101.75 135.00
  Q 97.67 132.13 93.29 131.07
  Q 88.91 130.01 83.98 130.70
  C 80.03 131.25 74.92 133.88 74.89 138.44
  C 74.89 141.65 78.34 143.66 81.14 142.56
  Q 85.85 140.71 90.68 141.88
  Z"
/>
<circle fill="#faca15" cx="25.29" cy="73.13" r="9.68"/>
<ellipse fill="#0f0e0e" cx="0.00" cy="0.00" transform="translate(69.79,98.58) rotate(-76.3)" rx="12.65" ry="10.61"/>
<ellipse fill="#0f0e0e" cx="0.00" cy="0.00" transform="translate(123.64,105.73) rotate(-78.7)" rx="12.59" ry="10.63"/>
<path fill="#0f0e0e" d="
  M 93.29 131.07
  Q 97.67 132.13 101.75 135.00
  C 105.01 137.29 108.35 141.96 106.29 146.03
  C 104.83 148.89 100.84 149.10 98.85 146.85
  Q 95.51 143.04 90.68 141.88
  Q 85.85 140.71 81.14 142.56
  C 78.34 143.66 74.89 141.65 74.89 138.44
  C 74.92 133.88 80.03 131.25 83.98 130.70
  Q 88.91 130.01 93.29 131.07
  Z"
/>
</svg>
