<?xml version="1.0" encoding="UTF-8" standalone="no"?>
<!DOCTYPE svg PUBLIC "-//W3C//DTD SVG 1.1//EN" "http://www.w3.org/Graphics/SVG/1.1/DTD/svg11.dtd">
<svg xmlns="http://www.w3.org/2000/svg" version="1.1" viewBox="0.00 0.00 207.00 182.00">
<g stroke-width="2.00" fill="none" stroke-linecap="butt">
<path stroke="#854b60" vector-effect="non-scaling-stroke" d="
  M 91.2798 72.7005
  A 12.69 10.99 -77.3 0 0 77.7689 82.6639
  A 12.69 10.99 -77.3 0 0 85.7002 97.4595
  A 12.69 10.99 -77.3 0 0 99.2111 87.4961
  A 12.69 10.99 -77.3 0 0 91.2798 72.7005"
/>
<path stroke="#854b60" vector-effect="non-scaling-stroke" d="
  M 148.7429 80.1170
  A 12.95 11.21 -77.5 0 0 134.9957 90.3337
  A 12.95 11.21 -77.5 0 0 143.1371 105.4030
  A 12.95 11.21 -77.5 0 0 156.8843 95.1863
  A 12.95 11.21 -77.5 0 0 148.7429 80.1170"
/>
<path stroke="#854b60" vector-effect="non-scaling-stroke" d="
  M 109.13 141.25
  C 120.81 142.78 130.65 136.42 134.80 125.36
  C 136.59 120.59 135.96 114.54 129.50 114.63
  Q 119.71 114.77 112.71 113.86
  Q 105.71 112.94 96.29 110.29
  C 90.07 108.54 87.90 114.22 88.41 119.29
  C 89.57 131.05 97.45 139.73 109.13 141.25"
/>
</g>
<path fill="#fb87b2" d="
  M 36.49 19.01
  A 0.61 0.60 -56.2 0 0 37.44 18.82
  C 39.78 13.91 42.30 10.25 47.38 8.05
  Q 54.22 5.10 61.31 7.73
  Q 66.08 9.49 68.67 13.97
  Q 72.95 21.34 71.46 29.73
  C 70.65 34.33 69.00 39.58 66.36 44.39
  Q 59.54 56.76 51.67 67.92
  C 49.43 71.10 44.57 68.92 41.08 67.43
  Q 40.36 67.13 30.47 62.25
  Q 26.85 60.47 24.48 58.68
  C 21.69 56.58 18.99 55.23 16.98 53.25
  C 11.36 47.70 8.14 44.26 6.32 36.72
  Q 4.70 30.02 7.83 24.07
  Q 13.36 13.59 25.76 14.39
  Q 31.82 14.78 36.49 19.01
  Z"
/>
<path fill="#fb87b2" d="
  M 78.80 37.07
  C 80.11 33.78 88.67 30.18 93.99 27.78
  Q 106.41 22.20 120.52 22.50
  Q 155.32 23.23 177.09 47.18
  Q 188.87 60.14 193.71 79.49
  C 195.55 86.83 195.67 94.67 195.81 101.76
  C 195.89 105.98 194.39 116.41 195.76 123.87
  A 5.41 5.31 28.1 0 0 196.17 125.18
  Q 199.12 131.79 199.44 133.05
  Q 204.12 151.26 190.55 162.97
  C 184.92 167.83 173.72 171.21 165.14 172.79
  Q 147.07 176.09 128.56 175.64
  C 122.39 175.49 111.02 175.05 102.88 173.85
  Q 83.98 171.06 74.29 168.64
  Q 61.21 165.36 49.49 159.25
  C 36.95 152.72 28.06 141.53 30.67 126.35
  C 32.57 115.31 36.35 106.07 41.52 92.17
  Q 42.72 88.92 43.32 86.73
  C 45.31 79.45 47.55 79.03 54.74 77.57
  A 3.88 3.85 11.3 0 0 57.20 75.94
  Q 60.45 71.15 61.90 68.60
  C 65.28 62.66 70.31 55.44 72.81 50.83
  Q 74.83 47.11 78.80 37.07
  Z
  M 91.2798 72.7005
  A 12.69 10.99 -77.3 0 0 77.7689 82.6639
  A 12.69 10.99 -77.3 0 0 85.7002 97.4595
  A 12.69 10.99 -77.3 0 0 99.2111 87.4961
  A 12.69 10.99 -77.3 0 0 91.2798 72.7005
  Z
  M 148.7429 80.1170
  A 12.95 11.21 -77.5 0 0 134.9957 90.3337
  A 12.95 11.21 -77.5 0 0 143.1371 105.4030
  A 12.95 11.21 -77.5 0 0 156.8843 95.1863
  A 12.95 11.21 -77.5 0 0 148.7429 80.1170
  Z
  M 109.13 141.25
  C 120.81 142.78 130.65 136.42 134.80 125.36
  C 136.59 120.59 135.96 114.54 129.50 114.63
  Q 119.71 114.77 112.71 113.86
  Q 105.71 112.94 96.29 110.29
  C 90.07 108.54 87.90 114.22 88.41 119.29
  C 89.57 131.05 97.45 139.73 109.13 141.25
  Z"
/>
<ellipse fill="#0e0e0e" cx="0.00" cy="0.00" transform="translate(88.49,85.08) rotate(-77.3)" rx="12.69" ry="10.99"/>
<ellipse fill="#0e0e0e" cx="0.00" cy="0.00" transform="translate(145.94,92.76) rotate(-77.5)" rx="12.95" ry="11.21"/>
<path fill="#0e0e0e" d="
  M 112.71 113.86
  Q 119.71 114.77 129.50 114.63
  C 135.96 114.54 136.59 120.59 134.80 125.36
  C 130.65 136.42 120.81 142.78 109.13 141.25
  C 97.45 139.73 89.57 131.05 88.41 119.29
  C 87.90 114.22 90.07 108.54 96.29 110.29
  Q 105.71 112.94 112.71 113.86
  Z"
/>
</svg>
