<?xml version="1.0" encoding="UTF-8" standalone="no"?>
<!DOCTYPE svg PUBLIC "-//W3C//DTD SVG 1.1//EN" "http://www.w3.org/Graphics/SVG/1.1/DTD/svg11.dtd">
<svg xmlns="http://www.w3.org/2000/svg" version="1.1" viewBox="0.00 0.00 192.00 177.00">
<g stroke-width="2.00" fill="none" stroke-linecap="butt">
<path stroke="#854c16" vector-effect="non-scaling-stroke" d="
  M 62.5168 71.2958
  A 13.24 12.02 -87.2 0 0 49.8644 83.9328
  A 13.24 12.02 -87.2 0 0 61.2232 97.7442
  A 13.24 12.02 -87.2 0 0 73.8756 85.1072
  A 13.24 12.02 -87.2 0 0 62.5168 71.2958"
/>
<path stroke="#854c16" vector-effect="non-scaling-stroke" d="
  M 124.6178 72.6917
  A 13.32 12.25 -87.6 0 0 111.8207 85.4870
  A 13.32 12.25 -87.6 0 0 123.5022 99.3083
  A 13.32 12.25 -87.6 0 0 136.2993 86.5130
  A 13.32 12.25 -87.6 0 0 124.6178 72.6917"
/>
<path stroke="#854c16" vector-effect="non-scaling-stroke" d="
  M 92.38 118.53
  C 101.04 118.94 108.49 122.81 113.03 129.80
  Q 114.88 132.66 116.06 133.04
  C 120.88 134.56 123.57 129.97 121.13 125.84
  C 115.05 115.55 105.06 109.26 92.84 108.68
  C 80.62 108.11 70.10 113.45 63.08 123.13
  C 60.27 127.01 62.52 131.83 67.46 130.77
  Q 68.67 130.50 70.78 127.83
  C 75.94 121.28 83.73 118.13 92.38 118.53"
/>
</g>
<path fill="#fb891e" d="
  M 28.31 163.45
  C 15.87 156.04 11.92 143.91 12.72 130.00
  C 13.37 118.69 15.44 107.71 16.64 95.98
  Q 18.04 82.29 19.13 76.56
  C 27.15 34.57 57.85 8.31 101.25 10.49
  C 126.62 11.76 148.80 26.11 160.94 48.34
  C 164.91 55.61 168.17 63.63 171.01 72.97
  Q 175.73 88.46 183.17 105.29
  Q 185.52 110.60 186.53 117.19
  Q 189.47 136.17 176.00 148.99
  C 173.67 151.21 169.06 154.72 164.93 156.77
  Q 155.61 161.40 154.32 161.87
  Q 114.29 176.44 71.23 174.05
  Q 57.94 173.31 44.68 170.12
  Q 36.02 168.04 28.31 163.45
  Z
  M 62.5168 71.2958
  A 13.24 12.02 -87.2 0 0 49.8644 83.9328
  A 13.24 12.02 -87.2 0 0 61.2232 97.7442
  A 13.24 12.02 -87.2 0 0 73.8756 85.1072
  A 13.24 12.02 -87.2 0 0 62.5168 71.2958
  Z
  M 124.6178 72.6917
  A 13.32 12.25 -87.6 0 0 111.8207 85.4870
  A 13.32 12.25 -87.6 0 0 123.5022 99.3083
  A 13.32 12.25 -87.6 0 0 136.2993 86.5130
  A 13.32 12.25 -87.6 0 0 124.6178 72.6917
  Z
  M 145.07 100.04
  A 2.30 2.30 0.0 0 0 142.35 101.60
  Q 139.20 111.80 139.01 122.48
  C 138.87 130.77 145.43 136.72 153.81 134.09
  C 163.71 130.97 162.25 118.12 157.42 111.40
  C 154.40 107.21 149.78 101.13 145.07 100.04
  Z
  M 92.38 118.53
  C 101.04 118.94 108.49 122.81 113.03 129.80
  Q 114.88 132.66 116.06 133.04
  C 120.88 134.56 123.57 129.97 121.13 125.84
  C 115.05 115.55 105.06 109.26 92.84 108.68
  C 80.62 108.11 70.10 113.45 63.08 123.13
  C 60.27 127.01 62.52 131.83 67.46 130.77
  Q 68.67 130.50 70.78 127.83
  C 75.94 121.28 83.73 118.13 92.38 118.53
  Z"
/>
<ellipse fill="#0e0e0e" cx="0.00" cy="0.00" transform="translate(61.87,84.52) rotate(-87.2)" rx="13.24" ry="12.02"/>
<ellipse fill="#0e0e0e" cx="0.00" cy="0.00" transform="translate(124.06,86.00) rotate(-87.6)" rx="13.32" ry="12.25"/>
<path fill="#0e0e0e" d="
  M 92.84 108.68
  C 105.06 109.26 115.05 115.55 121.13 125.84
  C 123.57 129.97 120.88 134.56 116.06 133.04
  Q 114.88 132.66 113.03 129.80
  C 108.49 122.81 101.04 118.94 92.38 118.53
  C 83.73 118.13 75.94 121.28 70.78 127.83
  Q 68.67 130.50 67.46 130.77
  C 62.52 131.83 60.27 127.01 63.08 123.13
  C 70.10 113.45 80.62 108.11 92.84 108.68
  Z"
/>
</svg>
