<svg xmlns="http://www.w3.org/2000/svg" viewBox="0 0 2400 900" preserveAspectRatio="xMidYMid slice"><rect width="2400" height="900" fill="#07111c"/><path d="M0 650 C260 560 520 650 780 540 C1060 420 1300 610 1600 480 C1900 350 2100 440 2400 310 L2400 900 L0 900 Z" fill="#0b2d45"/><path d="M0 505 C270 450 500 555 760 490 C1050 420 1280 520 1570 455 C1850 390 2070 445 2400 360" fill="none" stroke="#7dd3fc" stroke-opacity=".42" stroke-width="34"/><path d="M40 270 C350 220 560 315 880 240 C1160 170 1440 270 1750 200 C2030 140 2210 180 2400 120" fill="none" stroke="#38bdf8" stroke-opacity=".2" stroke-width="12"/></svg>
