<svg xmlns="http://www.w3.org/2000/svg" viewBox="0 0 2400 900" preserveAspectRatio="xMidYMid slice"><rect width="2400" height="900" fill="#1d1a05"/><path d="M0 680 C250 520 460 635 700 505 C990 350 1190 600 1470 420 C1745 240 2040 390 2400 250 L2400 900 L0 900 Z" fill="#423709"/><path d="M110 120 L340 335 L250 352 L500 610 L355 380 L455 365 Z M1210 70 L1390 270 L1310 275 L1500 500 L1415 300 L1510 292 Z M1940 130 L2180 320 L2080 338 L2300 565 L2195 350 L2295 332 Z" fill="#fde047" fill-opacity=".35"/><path d="M0 300 C360 180 620 330 930 210 C1250 90 1540 250 1870 120 C2090 35 2230 95 2400 40" fill="none" stroke="#fde047" stroke-opacity=".32" stroke-width="14"/></svg>
