<svg xmlns="http://www.w3.org/2000/svg" viewBox="0 0 2400 900" preserveAspectRatio="xMidYMid slice"><rect width="2400" height="900" fill="#05181a"/><path d="M0 655 C260 540 520 660 780 535 C1060 405 1310 610 1590 470 C1880 330 2100 450 2400 315 L2400 900 L0 900 Z" fill="#0b3739"/><path d="M0 510 C330 430 560 545 870 470 C1180 395 1430 500 1730 430 C2040 360 2190 405 2400 335" fill="none" stroke="#5eead4" stroke-opacity=".42" stroke-width="30"/><path d="M230 250 L330 210 L430 250 M1280 225 L1390 180 L1505 225 M1980 265 L2080 225 L2185 265" fill="none" stroke="#99f6e4" stroke-opacity=".3" stroke-width="11" stroke-linecap="round" stroke-linejoin="round"/></svg>
