<svg xmlns="http://www.w3.org/2000/svg" viewBox="0 0 2400 900" preserveAspectRatio="xMidYMid slice"><rect width="2400" height="900" fill="#061812"/><path d="M0 660 C270 520 500 690 770 540 C1050 385 1280 590 1580 455 C1880 320 2090 440 2400 300 L2400 900 L0 900 Z" fill="#0d3829"/><path d="M0 450 C330 370 540 500 870 410 C1160 330 1420 435 1730 360 C2030 290 2190 335 2400 260" fill="none" stroke="#6ee7b7" stroke-opacity=".42" stroke-width="26"/><path d="M160 265 C520 155 770 300 1130 195 C1500 90 1810 230 2260 120" fill="none" stroke="#a7f3d0" stroke-opacity=".17" stroke-width="13"/></svg>
