<svg xmlns="http://www.w3.org/2000/svg" viewBox="0 0 2400 900" preserveAspectRatio="xMidYMid slice"><rect width="2400" height="900" fill="#1b1004"/><path d="M0 710 C310 590 520 690 820 570 C1120 450 1350 650 1660 520 C1940 405 2160 485 2400 350 L2400 900 L0 900 Z" fill="#49310d"/><path d="M0 245 C320 210 530 290 830 230 C1120 170 1410 265 1710 205 C2000 145 2170 205 2400 150" fill="none" stroke="#fbbf24" stroke-opacity=".34" stroke-width="22"/><path d="M90 470 C470 410 710 500 1030 430 C1390 350 1650 470 2290 350" fill="none" stroke="#fde68a" stroke-opacity=".13" stroke-width="28"/></svg>
