<svg xmlns="http://www.w3.org/2000/svg" viewBox="0 0 900 1600" preserveAspectRatio="xMidYMid slice"><rect width="900" height="1600" fill="#1f0816"/><path d="M0 1230 C160 1060 330 1200 500 1015 C650 850 765 960 900 770 L900 1600 L0 1600 Z" fill="#42122f"/><path d="M110 80 C350 310 245 520 500 715 C720 885 600 1080 820 1260" fill="none" stroke="#f9a8d4" stroke-opacity=".42" stroke-width="25"/><path d="M245 340 C270 310 315 310 340 340 C365 310 410 310 435 340 C435 395 340 440 340 440 C340 440 245 395 245 340 Z M510 1020 C535 990 580 990 605 1020 C630 990 675 990 700 1020 C700 1075 605 1120 605 1120 C605 1120 510 1075 510 1020 Z" fill="#f9a8d4" fill-opacity=".24"/></svg>
