<svg xmlns="http://www.w3.org/2000/svg" viewBox="0 0 2400 900" preserveAspectRatio="xMidYMid slice"><rect width="2400" height="900" fill="#1f0816"/><path d="M0 660 C260 530 500 675 770 535 C1050 390 1280 600 1580 460 C1880 325 2090 440 2400 310 L2400 900 L0 900 Z" fill="#42122f"/><path d="M0 445 C320 365 540 495 860 405 C1170 320 1425 435 1730 355 C2030 280 2190 335 2400 255" fill="none" stroke="#f9a8d4" stroke-opacity=".42" stroke-width="25"/><path d="M245 250 C270 220 315 220 340 250 C365 220 410 220 435 250 C435 305 340 350 340 350 C340 350 245 305 245 250 Z M1410 205 C1435 175 1480 175 1505 205 C1530 175 1575 175 1600 205 C1600 260 1505 305 1505 305 C1505 305 1410 260 1410 205 Z" fill="#f9a8d4" fill-opacity=".24"/></svg>
